Graphik-LightItalic.ufo
<glyph name="exclam" format="2">
  <advance width="271"/>
  <unicode hex="0021"/>
  <outline>
    <contour>
      <point x="101" y="179" type="line"/>
      <point x="178" y="715" type="line"/>
      <point x="237" y="715" type="line"/>
      <point x="143" y="179" type="line"/>
    </contour>
    <contour>
      <point x="101" y="-5" type="curve" smooth="yes"/>
      <point x="77" y="-5"/>
      <point x="58" y="14"/>
      <point x="58" y="37" type="curve" smooth="yes"/>
      <point x="58" y="61"/>
      <point x="77" y="80"/>
      <point x="100" y="80" type="curve" smooth="yes"/>
      <point x="124" y="80"/>
      <point x="143" y="61"/>
      <point x="143" y="37" type="curve" smooth="yes"/>
      <point x="143" y="14"/>
      <point x="124" y="-5"/>
    </contour>
  </outline>
</glyph>
<glyph name="quotedbl" format="2">
  <advance width="305"/>
  <unicode hex="0022"/>
  <outline>
    <contour>
      <point x="105" y="506" type="line"/>
      <point x="129" y="715" type="line"/>
      <point x="187" y="715" type="line"/>
      <point x="145" y="506" type="line"/>
    </contour>
    <contour>
      <point x="236" y="506" type="line"/>
      <point x="260" y="715" type="line"/>
      <point x="317" y="715" type="line"/>
      <point x="276" y="506" type="line"/>
    </contour>
  </outline>
</glyph>
<glyph name="numbersign" format="2">
  <advance width="492"/>
  <unicode hex="0023"/>
  <outline>
    <contour>
      <point x="251" y="99" type="line"/>
      <point x="297" y="295" type="line"/>
      <point x="177" y="295" type="line"/>
      <point x="131" y="99" type="line"/>
      <point x="86" y="99" type="line"/>
      <point x="132" y="295" type="line"/>
      <point x="40" y="295" type="line"/>
      <point x="47" y="340" type="line"/>
      <point x="142" y="340" type="line"/>
      <point x="179" y="497" type="line"/>
      <point x="86" y="497" type="line"/>
      <point x="93" y="542" type="line"/>
      <point x="190" y="542" type="line"/>
      <point x="231" y="715" type="line"/>
      <point x="276" y="715" type="line"/>
      <point x="235" y="542" type="line"/>
      <point x="355" y="542" type="line"/>
      <point x="396" y="715" type="line"/>
      <point x="441" y="715" type="line"/>
      <point x="400" y="542" type="line"/>
      <point x="493" y="542" type="line"/>
      <point x="487" y="497" type="line"/>
      <point x="389" y="497" type="line"/>
      <point x="352" y="340" type="line"/>
      <point x="447" y="340" type="line"/>
      <point x="441" y="295" type="line"/>
      <point x="342" y="295" type="line"/>
      <point x="296" y="99" type="line"/>
    </contour>
    <contour>
      <point x="224" y="497" type="line"/>
      <point x="187" y="340" type="line"/>
      <point x="307" y="340" type="line"/>
      <point x="344" y="497" type="line"/>
    </contour>
  </outline>
</glyph>
<glyph name="dollar" format="2">
  <advance width="601"/>
  <unicode hex="0024"/>
  <outline>
    <contour>
      <point x="289" y="-8" type="curve" smooth="yes"/>
      <point x="276" y="-8" type="line"/>
      <point x="256" y="-135" type="line"/>
      <point x="216" y="-135" type="line"/>
      <point x="236" y="-4" type="line"/>
      <point x="109" y="12"/>
      <point x="34" y="92"/>
      <point x="31" y="205" type="curve"/>
      <point x="84" y="205" type="line"/>
      <point x="91" y="118"/>
      <point x="142" y="54"/>
      <point x="243" y="40" type="curve"/>
      <point x="293" y="351" type="line"/>
      <point x="169" y="388"/>
      <point x="109" y="436"/>
      <point x="109" y="530" type="curve" smooth="yes"/>
      <point x="109" y="645"/>
      <point x="208" y="723"/>
      <point x="343" y="723" type="curve" smooth="yes"/>
      <point x="351" y="723" type="line"/>
      <point x="366" y="813" type="line"/>
      <point x="406" y="813" type="line"/>
      <point x="391" y="720" type="line"/>
      <point x="494" y="706"/>
      <point x="563" y="646"/>
      <point x="569" y="543" type="curve"/>
      <point x="518" y="543" type="line"/>
      <point x="509" y="622"/>
      <point x="459" y="663"/>
      <point x="384" y="674" type="curve"/>
      <point x="339" y="390" type="line"/>
      <point x="472" y="351"/>
      <point x="535" y="309"/>
      <point x="535" y="206" type="curve" smooth="yes"/>
      <point x="535" y="76"/>
      <point x="436" y="-8"/>
    </contour>
    <contour>
      <point x="481" y="201" type="curve" smooth="yes"/>
      <point x="481" y="275"/>
      <point x="442" y="308"/>
      <point x="331" y="341" type="curve"/>
      <point x="283" y="37" type="line"/>
      <point x="290" y="37" type="line" smooth="yes"/>
      <point x="406" y="37"/>
      <point x="481" y="97"/>
    </contour>
    <contour>
      <point x="162" y="532" type="curve" smooth="yes"/>
      <point x="162" y="471"/>
      <point x="195" y="435"/>
      <point x="301" y="401" type="curve"/>
      <point x="344" y="678" type="line"/>
      <point x="338" y="678" type="line" smooth="yes"/>
      <point x="229" y="678"/>
      <point x="162" y="623"/>
    </contour>
  </outline>
</glyph>
<glyph name="percent" format="2">
  <advance width="766"/>
  <unicode hex="0025"/>
  <outline>
    <contour>
      <point x="132" y="543" type="curve" smooth="yes"/>
      <point x="133" y="487"/>
      <point x="165" y="440"/>
      <point x="230" y="440" type="curve" smooth="yes"/>
      <point x="300" y="440"/>
      <point x="347" y="495"/>
      <point x="346" y="572" type="curve" smooth="yes"/>
      <point x="346" y="627"/>
      <point x="314" y="678"/>
      <point x="248" y="678" type="curve" smooth="yes"/>
      <point x="175" y="678"/>
      <point x="132" y="617"/>
    </contour>
    <contour>
      <point x="229" y="398" type="curve" smooth="yes"/>
      <point x="144" y="398"/>
      <point x="83" y="461"/>
      <point x="83" y="545" type="curve" smooth="yes"/>
      <point x="83" y="639"/>
      <point x="155" y="720"/>
      <point x="250" y="720" type="curve" smooth="yes"/>
      <point x="336" y="720"/>
      <point x="395" y="655"/>
      <point x="395" y="570" type="curve" smooth="yes"/>
      <point x="395" y="472"/>
      <point x="322" y="398"/>
    </contour>
    <contour>
      <point x="89" y="0" type="line"/>
      <point x="655" y="715" type="line"/>
      <point x="708" y="715" type="line"/>
      <point x="141" y="0" type="line"/>
    </contour>
    <contour>
      <point x="449" y="138" type="curve" smooth="yes"/>
      <point x="450" y="83"/>
      <point x="482" y="35"/>
      <point x="547" y="35" type="curve" smooth="yes"/>
      <point x="617" y="35"/>
      <point x="663" y="90"/>
      <point x="663" y="168" type="curve" smooth="yes"/>
      <point x="662" y="223"/>
      <point x="631" y="274"/>
      <point x="565" y="274" type="curve" smooth="yes"/>
      <point x="492" y="274"/>
      <point x="449" y="213"/>
    </contour>
    <contour>
      <point x="546" y="-7" type="curve" smooth="yes"/>
      <point x="461" y="-7"/>
      <point x="400" y="56"/>
      <point x="400" y="141" type="curve" smooth="yes"/>
      <point x="400" y="234"/>
      <point x="471" y="316"/>
      <point x="567" y="316" type="curve" smooth="yes"/>
      <point x="653" y="316"/>
      <point x="712" y="251"/>
      <point x="712" y="166" type="curve" smooth="yes"/>
      <point x="712" y="68"/>
      <point x="639" y="-7"/>
    </contour>
  </outline>
</glyph>
<glyph name="ampersand" format="2">
  <advance width="658"/>
  <unicode hex="0026"/>
  <outline>
    <contour>
      <point x="583" y="0" type="line"/>
      <point x="520" y="0" type="line"/>
      <point x="451" y="102" type="line"/>
      <point x="403" y="48"/>
      <point x="330" y="-6"/>
      <point x="238" y="-6" type="curve" smooth="yes"/>
      <point x="135" y="-6"/>
      <point x="36" y="47"/>
      <point x="36" y="175" type="curve" smooth="yes"/>
      <point x="36" y="300"/>
      <point x="131" y="361"/>
      <point x="244" y="406" type="curve"/>
      <point x="212" y="456"/>
      <point x="191" y="502"/>
      <point x="191" y="551" type="curve" smooth="yes"/>
      <point x="191" y="650"/>
      <point x="263" y="719"/>
      <point x="359" y="719" type="curve" smooth="yes"/>
      <point x="442" y="719"/>
      <point x="501" y="664"/>
      <point x="501" y="583" type="curve" smooth="yes"/>
      <point x="501" y="477"/>
      <point x="403" y="427"/>
      <point x="316" y="391" type="curve"/>
      <point x="461" y="180" type="line"/>
      <point x="581" y="362" type="line"/>
      <point x="634" y="362" type="line"/>
      <point x="486" y="142" type="line"/>
    </contour>
    <contour>
      <point x="91" y="176" type="curve" smooth="yes"/>
      <point x="91" y="89"/>
      <point x="152" y="38"/>
      <point x="239" y="38" type="curve" smooth="yes"/>
      <point x="314" y="38"/>
      <point x="381" y="84"/>
      <point x="427" y="138" type="curve"/>
      <point x="265" y="373" type="line"/>
      <point x="177" y="337"/>
      <point x="91" y="290"/>
    </contour>
    <contour>
      <point x="358" y="677" type="curve" smooth="yes"/>
      <point x="291" y="677"/>
      <point x="244" y="627"/>
      <point x="244" y="555" type="curve" smooth="yes"/>
      <point x="244" y="513"/>
      <point x="264" y="472"/>
      <point x="295" y="425" type="curve"/>
      <point x="365" y="454"/>
      <point x="450" y="490"/>
      <point x="450" y="581" type="curve" smooth="yes"/>
      <point x="450" y="634"/>
      <point x="419" y="676"/>
    </contour>
  </outline>
</glyph>
<glyph name="quotesingle" format="2">
  <advance width="174"/>
  <unicode hex="0027"/>
  <outline>
    <contour>
      <point x="105" y="506" type="line"/>
      <point x="129" y="715" type="line"/>
      <point x="187" y="715" type="line"/>
      <point x="145" y="506" type="line"/>
    </contour>
  </outline>
</glyph>
<glyph name="parenleft" format="2">
  <advance width="299"/>
  <unicode hex="0028"/>
  <outline>
    <contour>
      <point x="160" y="-148" type="line"/>
      <point x="98" y="-56"/>
      <point x="54" y="63"/>
      <point x="54" y="207" type="curve" smooth="yes"/>
      <point x="54" y="437"/>
      <point x="154" y="631"/>
      <point x="300" y="773" type="curve"/>
      <point x="358" y="773" type="line"/>
      <point x="205" y="618"/>
      <point x="109" y="432"/>
      <point x="109" y="207" type="curve" smooth="yes"/>
      <point x="109" y="68"/>
      <point x="151" y="-49"/>
      <point x="212" y="-148" type="curve"/>
    </contour>
  </outline>
</glyph>
<glyph name="parenright" format="2">
  <advance width="299"/>
  <unicode hex="0029"/>
  <outline>
    <contour>
      <point x="154" y="775" type="line"/>
      <point x="216" y="683"/>
      <point x="259" y="563"/>
      <point x="259" y="420" type="curve" smooth="yes"/>
      <point x="259" y="190"/>
      <point x="159" y="-4"/>
      <point x="14" y="-146" type="curve"/>
      <point x="-45" y="-146" type="line"/>
      <point x="109" y="9"/>
      <point x="205" y="194"/>
      <point x="205" y="420" type="curve" smooth="yes"/>
      <point x="205" y="558"/>
      <point x="163" y="676"/>
      <point x="102" y="775" type="curve"/>
    </contour>
  </outline>
</glyph>
<glyph name="asterisk" format="2">
  <advance width="417"/>
  <unicode hex="002A"/>
  <outline>
    <contour>
      <point x="150" y="431" type="line"/>
      <point x="117" y="460" type="line"/>
      <point x="226" y="570" type="line"/>
      <point x="100" y="618" type="line"/>
      <point x="121" y="661" type="line"/>
      <point x="242" y="602" type="line"/>
      <point x="260" y="743" type="line"/>
      <point x="308" y="743" type="line"/>
      <point x="282" y="600" type="line"/>
      <point x="417" y="641" type="line"/>
      <point x="425" y="597" type="line"/>
      <point x="286" y="566" type="line"/>
      <point x="358" y="445" type="line"/>
      <point x="317" y="420" type="line"/>
      <point x="251" y="546" type="line"/>
    </contour>
  </outline>
</glyph>
<glyph name="plus" format="2">
  <advance width="510"/>
  <unicode hex="002B"/>
  <outline>
    <contour>
      <point x="206" y="110" type="line"/>
      <point x="239" y="319" type="line"/>
      <point x="44" y="319" type="line"/>
      <point x="52" y="365" type="line"/>
      <point x="246" y="365" type="line"/>
      <point x="280" y="574" type="line"/>
      <point x="328" y="574" type="line"/>
      <point x="294" y="365" type="line"/>
      <point x="489" y="365" type="line"/>
      <point x="482" y="319" type="line"/>
      <point x="287" y="319" type="line"/>
      <point x="254" y="110" type="line"/>
    </contour>
  </outline>
</glyph>
<glyph name="comma" format="2">
  <advance width="229"/>
  <unicode hex="002C"/>
  <outline>
    <contour>
      <point x="18" y="-117" type="line"/>
      <point x="-16" y="-98" type="line"/>
      <point x="80" y="84" type="line"/>
      <point x="128" y="60" type="line"/>
    </contour>
  </outline>
</glyph>
<glyph name="hyphen" format="2">
  <advance width="334"/>
  <unicode hex="002D"/>
  <outline>
    <contour>
      <point x="58" y="252" type="line"/>
      <point x="66" y="302" type="line"/>
      <point x="275" y="302" type="line"/>
      <point x="268" y="252" type="line"/>
    </contour>
  </outline>
</glyph>
<glyph name="zero" format="2">
  <advance width="659"/>
  <unicode hex="0030"/>
  <outline>
    <contour>
      <point x="310" y="-8" type="curve" smooth="yes"/>
      <point x="138" y="-8"/>
      <point x="62" y="108"/>
      <point x="62" y="257" type="curve" smooth="yes"/>
      <point x="62" y="287"/>
      <point x="64" y="317"/>
      <point x="69" y="346" type="curve" smooth="yes"/>
      <point x="78" y="404" type="line" smooth="yes"/>
      <point x="110" y="603"/>
      <point x="223" y="723"/>
      <point x="384" y="723" type="curve" smooth="yes"/>
      <point x="554" y="723"/>
      <point x="624" y="604"/>
      <point x="625" y="457" type="curve" smooth="yes"/>
      <point x="625" y="428"/>
      <point x="623" y="398"/>
      <point x="618" y="368" type="curve" smooth="yes"/>
      <point x="608" y="310" type="line" smooth="yes"/>
      <point x="576" y="112"/>
      <point x="472" y="-8"/>
    </contour>
    <contour>
      <point x="312" y="39" type="curve" smooth="yes"/>
      <point x="444" y="39"/>
      <point x="524" y="135"/>
      <point x="554" y="316" type="curve" smooth="yes"/>
      <point x="563" y="374" type="line" smooth="yes"/>
      <point x="567" y="401"/>
      <point x="569" y="429"/>
      <point x="569" y="457" type="curve" smooth="yes"/>
      <point x="569" y="574"/>
      <point x="521" y="677"/>
      <point x="381" y="677" type="curve" smooth="yes"/>
      <point x="252" y="677"/>
      <point x="162" y="577"/>
      <point x="133" y="400" type="curve" smooth="yes"/>
      <point x="124" y="343" type="line" smooth="yes"/>
      <point x="120" y="315"/>
      <point x="117" y="286"/>
      <point x="117" y="257" type="curve" smooth="yes"/>
      <point x="118" y="140"/>
      <point x="165" y="39"/>
    </contour>
  </outline>
</glyph>
<glyph name="one" format="2">
  <advance width="368"/>
  <unicode hex="0031"/>
  <outline>
    <contour>
      <point x="149" y="0" type="line"/>
      <point x="252" y="655" type="line"/>
      <point x="71" y="541" type="line"/>
      <point x="79" y="595" type="line"/>
      <point x="270" y="715" type="line"/>
      <point x="317" y="715" type="line"/>
      <point x="204" y="0" type="line"/>
    </contour>
  </outline>
</glyph>
<glyph name="two" format="2">
  <advance width="537"/>
  <unicode hex="0032"/>
  <outline>
    <contour>
      <point x="-32" y="0" type="line"/>
      <point x="-30" y="13" type="line"/>
      <point x="312" y="305" type="line" smooth="yes"/>
      <point x="392" y="372"/>
      <point x="457" y="444"/>
      <point x="457" y="543" type="curve" smooth="yes"/>
      <point x="457" y="620"/>
      <point x="408" y="677"/>
      <point x="319" y="677" type="curve" smooth="yes"/>
      <point x="231" y="678"/>
      <point x="159" y="632"/>
      <point x="129" y="507" type="curve"/>
      <point x="77" y="507" type="line"/>
      <point x="103" y="654"/>
      <point x="203" y="723"/>
      <point x="322" y="723" type="curve" smooth="yes"/>
      <point x="433" y="723"/>
      <point x="513" y="654"/>
      <point x="513" y="544" type="curve" smooth="yes"/>
      <point x="513" y="428"/>
      <point x="437" y="350"/>
      <point x="341" y="270" type="curve" smooth="yes"/>
      <point x="75" y="46" type="line"/>
      <point x="450" y="46" type="line"/>
      <point x="443" y="0" type="line"/>
    </contour>
  </outline>
</glyph>
<glyph name="three" format="2">
  <advance width="567"/>
  <unicode hex="0033"/>
  <outline>
    <contour>
      <point x="256" y="-8" type="curve" smooth="yes"/>
      <point x="119" y="-8"/>
      <point x="26" y="71"/>
      <point x="25" y="202" type="curve"/>
      <point x="78" y="202" type="line"/>
      <point x="80" y="104"/>
      <point x="141" y="38"/>
      <point x="258" y="38" type="curve" smooth="yes"/>
      <point x="367" y="38"/>
      <point x="447" y="95"/>
      <point x="447" y="216" type="curve" smooth="yes"/>
      <point x="447" y="291"/>
      <point x="402" y="351"/>
      <point x="298" y="351" type="curve" smooth="yes"/>
      <point x="254" y="351" type="line"/>
      <point x="262" y="398" type="line"/>
      <point x="317" y="398" type="line" smooth="yes"/>
      <point x="404" y="398"/>
      <point x="475" y="444"/>
      <point x="475" y="548" type="curve" smooth="yes"/>
      <point x="475" y="627"/>
      <point x="422" y="676"/>
      <point x="336" y="676" type="curve" smooth="yes"/>
      <point x="244" y="676"/>
      <point x="175" y="623"/>
      <point x="153" y="527" type="curve"/>
      <point x="103" y="527" type="line"/>
      <point x="123" y="646"/>
      <point x="221" y="723"/>
      <point x="339" y="723" type="curve" smooth="yes"/>
      <point x="440" y="723"/>
      <point x="530" y="665"/>
      <point x="530" y="550" type="curve" smooth="yes"/>
      <point x="530" y="461"/>
      <point x="477" y="395"/>
      <point x="389" y="373" type="curve"/>
      <point x="460" y="354"/>
      <point x="504" y="296"/>
      <point x="504" y="216" type="curve" smooth="yes"/>
      <point x="504" y="73"/>
      <point x="396" y="-8"/>
    </contour>
  </outline>
</glyph>
<glyph name="four" format="2">
  <advance width="595"/>
  <unicode hex="0034"/>
  <outline>
    <contour>
      <point x="360" y="0" type="line"/>
      <point x="385" y="161" type="line"/>
      <point x="17" y="161" type="line"/>
      <point x="21" y="178" type="line"/>
      <point x="449" y="715" type="line"/>
      <point x="528" y="715" type="line"/>
      <point x="447" y="207" type="line"/>
      <point x="546" y="207" type="line"/>
      <point x="539" y="161" type="line"/>
      <point x="440" y="161" type="line"/>
      <point x="415" y="0" type="line"/>
    </contour>
    <contour>
      <point x="98" y="207" type="line"/>
      <point x="393" y="207" type="line"/>
      <point x="466" y="670" type="line"/>
    </contour>
  </outline>
</glyph>
<glyph name="five" format="2">
  <advance width="561"/>
  <unicode hex="0035"/>
  <outline>
    <contour>
      <point x="246" y="-8" type="curve" smooth="yes"/>
      <point x="122" y="-8"/>
      <point x="32" y="62"/>
      <point x="26" y="184" type="curve"/>
      <point x="79" y="184" type="line"/>
      <point x="86" y="96"/>
      <point x="143" y="38"/>
      <point x="247" y="38" type="curve" smooth="yes"/>
      <point x="373" y="38"/>
      <point x="447" y="128"/>
      <point x="447" y="259" type="curve" smooth="yes"/>
      <point x="447" y="351"/>
      <point x="391" y="419"/>
      <point x="289" y="419" type="curve" smooth="yes"/>
      <point x="207" y="419"/>
      <point x="154" y="385"/>
      <point x="112" y="341" type="curve"/>
      <point x="91" y="341" type="line"/>
      <point x="151" y="715" type="line"/>
      <point x="541" y="715" type="line"/>
      <point x="533" y="667" type="line"/>
      <point x="190" y="667" type="line"/>
      <point x="149" y="408" type="line"/>
      <point x="181" y="438"/>
      <point x="236" y="465"/>
      <point x="305" y="465" type="curve" smooth="yes"/>
      <point x="423" y="465"/>
      <point x="504" y="382"/>
      <point x="504" y="261" type="curve" smooth="yes"/>
      <point x="504" y="108"/>
      <point x="404" y="-8"/>
    </contour>
  </outline>
</glyph>
<glyph name="seven" format="2">
  <advance width="504"/>
  <unicode hex="0037"/>
  <outline>
    <contour>
      <point x="98" y="0" type="line"/>
      <point x="473" y="669" type="line"/>
      <point x="90" y="669" type="line"/>
      <point x="97" y="715" type="line"/>
      <point x="554" y="715" type="line"/>
      <point x="552" y="706" type="line"/>
      <point x="157" y="0" type="line"/>
    </contour>
  </outline>
</glyph>
<glyph name="eight" format="2">
  <advance width="583"/>
  <unicode hex="0038"/>
  <outline>
    <contour>
      <point x="276" y="-8" type="curve" smooth="yes"/>
      <point x="160" y="-8"/>
      <point x="44" y="55"/>
      <point x="44" y="184" type="curve" smooth="yes"/>
      <point x="44" y="299"/>
      <point x="122" y="370"/>
      <point x="230" y="391" type="curve"/>
      <point x="169" y="412"/>
      <point x="124" y="465"/>
      <point x="124" y="536" type="curve" smooth="yes"/>
      <point x="124" y="650"/>
      <point x="228" y="723"/>
      <point x="345" y="723" type="curve" smooth="yes"/>
      <point x="447" y="723"/>
      <point x="542" y="657"/>
      <point x="542" y="550" type="curve" smooth="yes"/>
      <point x="542" y="453"/>
      <point x="483" y="403"/>
      <point x="394" y="383" type="curve"/>
      <point x="471" y="358"/>
      <point x="524" y="296"/>
      <point x="524" y="212" type="curve" smooth="yes"/>
      <point x="524" y="66"/>
      <point x="408" y="-8"/>
    </contour>
    <contour>
      <point x="100" y="190" type="curve" smooth="yes"/>
      <point x="100" y="91"/>
      <point x="182" y="39"/>
      <point x="279" y="39" type="curve" smooth="yes"/>
      <point x="385" y="39"/>
      <point x="468" y="96"/>
      <point x="468" y="212" type="curve" smooth="yes"/>
      <point x="468" y="302"/>
      <point x="397" y="362"/>
      <point x="297" y="362" type="curve" smooth="yes"/>
      <point x="190" y="362"/>
      <point x="100" y="305"/>
    </contour>
    <contour>
      <point x="179" y="537" type="curve" smooth="yes"/>
      <point x="179" y="464"/>
      <point x="238" y="407"/>
      <point x="331" y="407" type="curve" smooth="yes"/>
      <point x="412" y="407"/>
      <point x="487" y="448"/>
      <point x="487" y="548" type="curve" smooth="yes"/>
      <point x="487" y="623"/>
      <point x="426" y="678"/>
      <point x="341" y="678" type="curve" smooth="yes"/>
      <point x="258" y="678"/>
      <point x="180" y="632"/>
    </contour>
  </outline>
</glyph>
<glyph name="nine" format="2">
  <advance width="599"/>
  <unicode hex="0039"/>
  <outline>
    <contour>
      <point x="253" y="-7" type="curve" smooth="yes"/>
      <point x="141" y="-7"/>
      <point x="56" y="47"/>
      <point x="45" y="164" type="curve"/>
      <point x="99" y="164" type="line"/>
      <point x="111" y="76"/>
      <point x="167" y="39"/>
      <point x="256" y="39" type="curve" smooth="yes"/>
      <point x="379" y="39"/>
      <point x="460" y="119"/>
      <point x="494" y="335" type="curve" smooth="yes"/>
      <point x="500" y="370" type="line"/>
      <point x="458" y="298"/>
      <point x="380" y="260"/>
      <point x="298" y="260" type="curve" smooth="yes"/>
      <point x="182" y="260"/>
      <point x="85" y="331"/>
      <point x="85" y="462" type="curve" smooth="yes"/>
      <point x="85" y="613"/>
      <point x="190" y="723"/>
      <point x="344" y="723" type="curve" smooth="yes"/>
      <point x="484" y="723"/>
      <point x="566" y="639"/>
      <point x="566" y="490" type="curve" smooth="yes"/>
      <point x="566" y="459"/>
      <point x="563" y="426"/>
      <point x="558" y="394" type="curve" smooth="yes"/>
      <point x="549" y="336" type="line" smooth="yes"/>
      <point x="508" y="85"/>
      <point x="407" y="-7"/>
    </contour>
    <contour>
      <point x="141" y="464" type="curve" smooth="yes"/>
      <point x="141" y="366"/>
      <point x="206" y="305"/>
      <point x="304" y="305" type="curve" smooth="yes"/>
      <point x="419" y="305"/>
      <point x="513" y="381"/>
      <point x="513" y="507" type="curve" smooth="yes"/>
      <point x="513" y="605"/>
      <point x="456" y="679"/>
      <point x="342" y="679" type="curve" smooth="yes"/>
      <point x="220" y="679"/>
      <point x="141" y="588"/>
    </contour>
  </outline>
</glyph>
<glyph name="colon" format="2">
  <advance width="237"/>
  <unicode hex="003A"/>
  <outline>
    <contour>
      <point x="81" y="-5" type="curve" smooth="yes"/>
      <point x="58" y="-5"/>
      <point x="39" y="14"/>
      <point x="39" y="37" type="curve" smooth="yes"/>
      <point x="39" y="61"/>
      <point x="57" y="80"/>
      <point x="81" y="80" type="curve" smooth="yes"/>
      <point x="104" y="80"/>
      <point x="124" y="61"/>
      <point x="124" y="37" type="curve" smooth="yes"/>
      <point x="124" y="14"/>
      <point x="105" y="-5"/>
    </contour>
    <contour>
      <point x="133" y="320" type="curve" smooth="yes"/>
      <point x="110" y="320"/>
      <point x="91" y="338"/>
      <point x="91" y="362" type="curve" smooth="yes"/>
      <point x="91" y="386"/>
      <point x="109" y="404"/>
      <point x="133" y="404" type="curve" smooth="yes"/>
      <point x="156" y="404"/>
      <point x="176" y="386"/>
      <point x="176" y="362" type="curve" smooth="yes"/>
      <point x="176" y="338"/>
      <point x="157" y="320"/>
    </contour>
  </outline>
</glyph>
<glyph name="semicolon" format="2">
  <advance width="237"/>
  <unicode hex="003B"/>
  <outline>
    <contour>
      <point x="8" y="-117" type="line"/>
      <point x="-26" y="-98" type="line"/>
      <point x="70" y="84" type="line"/>
      <point x="118" y="60" type="line"/>
    </contour>
    <contour>
      <point x="138" y="320" type="curve" smooth="yes"/>
      <point x="114" y="320"/>
      <point x="95" y="338"/>
      <point x="95" y="362" type="curve" smooth="yes"/>
      <point x="95" y="386"/>
      <point x="114" y="404"/>
      <point x="137" y="404" type="curve" smooth="yes"/>
      <point x="161" y="404"/>
      <point x="180" y="386"/>
      <point x="180" y="362" type="curve" smooth="yes"/>
      <point x="180" y="338"/>
      <point x="161" y="320"/>
    </contour>
  </outline>
</glyph>
<glyph name="less" format="2">
  <advance width="496"/>
  <unicode hex="003C"/>
  <outline>
    <contour>
      <point x="409" y="104" type="line"/>
      <point x="58" y="321" type="line"/>
      <point x="60" y="334" type="line"/>
      <point x="477" y="538" type="line"/>
      <point x="469" y="484" type="line"/>
      <point x="136" y="325" type="line"/>
      <point x="417" y="155" type="line"/>
    </contour>
  </outline>
</glyph>
<glyph name="equal" format="2">
  <advance width="484"/>
  <unicode hex="003D"/>
  <outline>
    <contour>
      <point x="31" y="213" type="line"/>
      <point x="39" y="259" type="line"/>
      <point x="443" y="259" type="line"/>
      <point x="435" y="213" type="line"/>
    </contour>
    <contour>
      <point x="57" y="380" type="line"/>
      <point x="65" y="426" type="line"/>
      <point x="469" y="426" type="line"/>
      <point x="461" y="380" type="line"/>
    </contour>
  </outline>
</glyph>
<glyph name="greater" format="2">
  <advance width="496"/>
  <unicode hex="003E"/>
  <outline>
    <contour>
      <point x="104" y="538" type="line"/>
      <point x="455" y="321" type="line"/>
      <point x="453" y="308" type="line"/>
      <point x="36" y="104" type="line"/>
      <point x="44" y="158" type="line"/>
      <point x="377" y="317" type="line"/>
      <point x="96" y="488" type="line"/>
    </contour>
  </outline>
</glyph>
<glyph name="question" format="2">
  <advance width="477"/>
  <unicode hex="003F"/>
  <outline>
    <contour>
      <point x="174" y="179" type="line"/>
      <point x="183" y="240" type="line" smooth="yes"/>
      <point x="197" y="329"/>
      <point x="251" y="368"/>
      <point x="315" y="418" type="curve" smooth="yes"/>
      <point x="373" y="462"/>
      <point x="420" y="496"/>
      <point x="420" y="573" type="curve" smooth="yes"/>
      <point x="420" y="643"/>
      <point x="365" y="678"/>
      <point x="294" y="678" type="curve" smooth="yes"/>
      <point x="210" y="678"/>
      <point x="147" y="627"/>
      <point x="129" y="528" type="curve"/>
      <point x="78" y="528" type="line"/>
      <point x="96" y="653"/>
      <point x="186" y="723"/>
      <point x="299" y="723" type="curve" smooth="yes"/>
      <point x="405" y="723"/>
      <point x="474" y="664"/>
      <point x="474" y="573" type="curve" smooth="yes"/>
      <point x="474" y="473"/>
      <point x="409" y="434"/>
      <point x="342" y="382" type="curve" smooth="yes"/>
      <point x="283" y="338"/>
      <point x="242" y="304"/>
      <point x="231" y="235" type="curve" smooth="yes"/>
      <point x="222" y="179" type="line"/>
    </contour>
    <contour>
      <point x="178" y="-5" type="curve" smooth="yes"/>
      <point x="154" y="-5"/>
      <point x="136" y="14"/>
      <point x="136" y="37" type="curve" smooth="yes"/>
      <point x="136" y="61"/>
      <point x="154" y="80"/>
      <point x="177" y="80" type="curve" smooth="yes"/>
      <point x="201" y="80"/>
      <point x="220" y="61"/>
      <point x="220" y="37" type="curve" smooth="yes"/>
      <point x="220" y="14"/>
      <point x="201" y="-5"/>
    </contour>
  </outline>
</glyph>
<glyph name="at" format="2">
  <advance width="909"/>
  <unicode hex="0040"/>
  <outline>
    <contour>
      <point x="659" y="460" type="line"/>
      <point x="622" y="220" type="line" smooth="yes"/>
      <point x="611" y="152"/>
      <point x="630" y="110"/>
      <point x="687" y="110" type="curve" smooth="yes"/>
      <point x="755" y="110"/>
      <point x="822" y="175"/>
      <point x="822" y="321" type="curve" smooth="yes"/>
      <point x="822" y="510"/>
      <point x="696" y="645"/>
      <point x="477" y="645" type="curve" smooth="yes"/>
      <point x="269" y="645"/>
      <point x="100" y="483"/>
      <point x="100" y="261" type="curve" smooth="yes"/>
      <point x="100" y="69"/>
      <point x="223" y="-104"/>
      <point x="464" y="-104" type="curve" smooth="yes"/>
      <point x="595" y="-104"/>
      <point x="678" y="-60"/>
      <point x="735" y="0" type="curve"/>
      <point x="785" y="0" type="line"/>
      <point x="736" y="-81"/>
      <point x="619" y="-147"/>
      <point x="464" y="-147" type="curve" smooth="yes"/>
      <point x="195" y="-147"/>
      <point x="50" y="46"/>
      <point x="50" y="260" type="curve" smooth="yes"/>
      <point x="50" y="504"/>
      <point x="251" y="688"/>
      <point x="477" y="688" type="curve" smooth="yes"/>
      <point x="716" y="688"/>
      <point x="869" y="529"/>
      <point x="869" y="323" type="curve" smooth="yes"/>
      <point x="869" y="140"/>
      <point x="766" y="70"/>
      <point x="686" y="70" type="curve" smooth="yes"/>
      <point x="613" y="70"/>
      <point x="578" y="109"/>
      <point x="574" y="171" type="curve"/>
      <point x="550" y="118"/>
      <point x="497" y="63"/>
      <point x="419" y="63" type="curve" smooth="yes"/>
      <point x="328" y="63"/>
      <point x="264" y="125"/>
      <point x="264" y="230" type="curve" smooth="yes"/>
      <point x="264" y="358"/>
      <point x="349" y="469"/>
      <point x="465" y="469" type="curve" smooth="yes"/>
      <point x="538" y="469"/>
      <point x="582" y="427"/>
      <point x="593" y="376" type="curve"/>
      <point x="606" y="460" type="line"/>
    </contour>
    <contour>
      <point x="428" y="105" type="curve" smooth="yes"/>
      <point x="507" y="105"/>
      <point x="580" y="189"/>
      <point x="580" y="298" type="curve" smooth="yes"/>
      <point x="581" y="378"/>
      <point x="537" y="426"/>
      <point x="470" y="426" type="curve" smooth="yes"/>
      <point x="382" y="426"/>
      <point x="318" y="339"/>
      <point x="318" y="229" type="curve" smooth="yes"/>
      <point x="318" y="150"/>
      <point x="363" y="105"/>
    </contour>
  </outline>
</glyph>
<glyph name="A" format="2">
  <advance width="641"/>
  <unicode hex="0041"/>
  <outline>
    <contour>
      <point x="518" y="0" type="line"/>
      <point x="473" y="219" type="line"/>
      <point x="151" y="219" type="line"/>
      <point x="39" y="0" type="line"/>
      <point x="-15" y="0" type="line"/>
      <point x="353" y="715" type="line"/>
      <point x="427" y="715" type="line"/>
      <point x="572" y="0" type="line"/>
    </contour>
    <contour>
      <point x="382" y="670" type="line"/>
      <point x="174" y="264" type="line"/>
      <point x="464" y="264" type="line"/>
    </contour>
  </outline>
</glyph>
<glyph name="B" format="2">
  <advance width="604"/>
  <unicode hex="0042"/>
  <outline>
    <contour>
      <point x="50" y="0" type="line"/>
      <point x="163" y="715" type="line"/>
      <point x="356" y="715" type="line" smooth="yes"/>
      <point x="480" y="715"/>
      <point x="554" y="660"/>
      <point x="553" y="552" type="curve" smooth="yes"/>
      <point x="553" y="453"/>
      <point x="499" y="397"/>
      <point x="404" y="372" type="curve"/>
      <point x="492" y="356"/>
      <point x="538" y="301"/>
      <point x="539" y="216" type="curve" smooth="yes"/>
      <point x="539" y="80"/>
      <point x="440" y="0"/>
      <point x="296" y="0" type="curve" smooth="yes"/>
    </contour>
    <contour>
      <point x="111" y="45" type="line"/>
      <point x="296" y="45" type="line" smooth="yes"/>
      <point x="413" y="45"/>
      <point x="484" y="108"/>
      <point x="484" y="217" type="curve" smooth="yes"/>
      <point x="484" y="300"/>
      <point x="432" y="349"/>
      <point x="313" y="349" type="curve" smooth="yes"/>
      <point x="160" y="349" type="line"/>
    </contour>
    <contour>
      <point x="167" y="393" type="line"/>
      <point x="316" y="393" type="line" smooth="yes"/>
      <point x="421" y="393"/>
      <point x="499" y="439"/>
      <point x="499" y="550" type="curve" smooth="yes"/>
      <point x="499" y="628"/>
      <point x="450" y="670"/>
      <point x="354" y="670" type="curve" smooth="yes"/>
      <point x="211" y="670" type="line"/>
    </contour>
  </outline>
</glyph>
<glyph name="C" format="2">
  <advance width="725"/>
  <unicode hex="0043"/>
  <outline>
    <contour>
      <point x="377" y="-8" type="curve" smooth="yes"/>
      <point x="183" y="-8"/>
      <point x="62" y="114"/>
      <point x="62" y="309" type="curve" smooth="yes"/>
      <point x="62" y="535"/>
      <point x="213" y="724"/>
      <point x="440" y="724" type="curve" smooth="yes"/>
      <point x="577" y="724"/>
      <point x="691" y="646"/>
      <point x="705" y="500" type="curve"/>
      <point x="653" y="500" type="line"/>
      <point x="633" y="615"/>
      <point x="556" y="679"/>
      <point x="438" y="679" type="curve" smooth="yes"/>
      <point x="239" y="679"/>
      <point x="120" y="512"/>
      <point x="120" y="309" type="curve" smooth="yes"/>
      <point x="120" y="139"/>
      <point x="212" y="38"/>
      <point x="377" y="38" type="curve" smooth="yes"/>
      <point x="502" y="38"/>
      <point x="594" y="110"/>
      <point x="633" y="230" type="curve"/>
      <point x="686" y="230" type="line"/>
      <point x="645" y="80"/>
      <point x="524" y="-8"/>
    </contour>
  </outline>
</glyph>
<glyph name="E" format="2">
  <advance width="569"/>
  <unicode hex="0045"/>
  <outline>
    <contour>
      <point x="50" y="0" type="line"/>
      <point x="163" y="715" type="line"/>
      <point x="569" y="715" type="line"/>
      <point x="561" y="669" type="line"/>
      <point x="211" y="669" type="line"/>
      <point x="167" y="390" type="line"/>
      <point x="455" y="390" type="line"/>
      <point x="448" y="344" type="line"/>
      <point x="160" y="344" type="line"/>
      <point x="113" y="46" type="line"/>
      <point x="487" y="46" type="line"/>
      <point x="479" y="0" type="line"/>
    </contour>
  </outline>
</glyph>
<glyph name="F" format="2">
  <advance width="546"/>
  <unicode hex="0046"/>
  <outline>
    <contour>
      <point x="50" y="0" type="line"/>
      <point x="163" y="715" type="line"/>
      <point x="570" y="715" type="line"/>
      <point x="562" y="669" type="line"/>
      <point x="211" y="669" type="line"/>
      <point x="166" y="385" type="line"/>
      <point x="442" y="385" type="line"/>
      <point x="435" y="339" type="line"/>
      <point x="159" y="339" type="line"/>
      <point x="106" y="0" type="line"/>
    </contour>
  </outline>
</glyph>
<glyph name="G" format="2">
  <advance width="758"/>
  <unicode hex="0047"/>
  <outline>
    <contour>
      <point x="389" y="-8" type="curve" smooth="yes"/>
      <point x="181" y="-8"/>
      <point x="64" y="131"/>
      <point x="64" y="315" type="curve" smooth="yes"/>
      <point x="64" y="538"/>
      <point x="218" y="723"/>
      <point x="437" y="723" type="curve" smooth="yes"/>
      <point x="576" y="723"/>
      <point x="697" y="655"/>
      <point x="712" y="511" type="curve"/>
      <point x="657" y="511" type="line"/>
      <point x="643" y="624"/>
      <point x="551" y="678"/>
      <point x="436" y="678" type="curve" smooth="yes"/>
      <point x="244" y="678"/>
      <point x="121" y="516"/>
      <point x="121" y="315" type="curve" smooth="yes"/>
      <point x="121" y="154"/>
      <point x="215" y="38"/>
      <point x="390" y="38" type="curve" smooth="yes"/>
      <point x="545" y="38"/>
      <point x="638" y="134"/>
      <point x="660" y="302" type="curve"/>
      <point x="435" y="302" type="line"/>
      <point x="443" y="349" type="line"/>
      <point x="720" y="349" type="line"/>
      <point x="700" y="98"/>
      <point x="574" y="-8"/>
    </contour>
  </outline>
</glyph>
<glyph name="H" format="2">
  <advance width="717"/>
  <unicode hex="0048"/>
  <outline>
    <contour>
      <point x="50" y="0" type="line"/>
      <point x="163" y="715" type="line"/>
      <point x="219" y="715" type="line"/>
      <point x="166" y="382" type="line"/>
      <point x="587" y="382" type="line"/>
      <point x="640" y="715" type="line"/>
      <point x="696" y="715" type="line"/>
      <point x="583" y="0" type="line"/>
      <point x="527" y="0" type="line"/>
      <point x="580" y="335" type="line"/>
      <point x="159" y="335" type="line"/>
      <point x="106" y="0" type="line"/>
    </contour>
  </outline>
</glyph>
<glyph name="I" format="2">
  <advance width="251"/>
  <unicode hex="0049"/>
  <outline>
    <contour>
      <point x="55" y="0" type="line"/>
      <point x="168" y="715" type="line"/>
      <point x="224" y="715" type="line"/>
      <point x="111" y="0" type="line"/>
    </contour>
  </outline>
</glyph>
<glyph name="J" format="2">
  <advance width="401"/>
  <unicode hex="004A"/>
  <outline>
    <contour>
      <point x="113" y="-7" type="curve" smooth="yes"/>
      <point x="51" y="-7"/>
      <point x="18" y="8"/>
      <point x="-2" y="21" type="curve"/>
      <point x="5" y="67" type="line"/>
      <point x="32" y="52"/>
      <point x="64" y="39"/>
      <point x="112" y="39" type="curve" smooth="yes"/>
      <point x="187" y="39"/>
      <point x="234" y="78"/>
      <point x="249" y="172" type="curve" smooth="yes"/>
      <point x="334" y="715" type="line"/>
      <point x="390" y="715" type="line"/>
      <point x="303" y="167" type="line" smooth="yes"/>
      <point x="284" y="43"/>
      <point x="210" y="-7"/>
    </contour>
  </outline>
</glyph>
<glyph name="K" format="2">
  <advance width="599"/>
  <unicode hex="004B"/>
  <outline>
    <contour>
      <point x="532" y="0" type="line"/>
      <point x="469" y="0" type="line"/>
      <point x="165" y="367" type="line"/>
      <point x="563" y="715" type="line"/>
      <point x="629" y="715" type="line"/>
      <point x="230" y="369" type="line"/>
    </contour>
    <contour>
      <point x="50" y="0" type="line"/>
      <point x="163" y="715" type="line"/>
      <point x="219" y="715" type="line"/>
      <point x="106" y="0" type="line"/>
    </contour>
  </outline>
</glyph>
<glyph name="L" format="2">
  <advance width="530"/>
  <unicode hex="004C"/>
  <outline>
    <contour>
      <point x="50" y="0" type="line"/>
      <point x="163" y="715" type="line"/>
      <point x="219" y="715" type="line"/>
      <point x="113" y="46" type="line"/>
      <point x="461" y="46" type="line"/>
      <point x="453" y="0" type="line"/>
    </contour>
  </outline>
</glyph>
<glyph name="M" format="2">
  <advance width="851"/>
  <unicode hex="004D"/>
  <outline>
    <contour>
      <point x="50" y="0" type="line"/>
      <point x="163" y="715" type="line"/>
      <point x="241" y="715" type="line"/>
      <point x="396" y="101" type="line"/>
      <point x="746" y="715" type="line"/>
      <point x="826" y="715" type="line"/>
      <point x="713" y="0" type="line"/>
      <point x="658" y="0" type="line"/>
      <point x="760" y="645" type="line"/>
      <point x="389" y="0" type="line"/>
      <point x="371" y="0" type="line"/>
      <point x="204" y="645" type="line"/>
      <point x="102" y="0" type="line"/>
    </contour>
  </outline>
</glyph>
<glyph name="P" format="2">
  <advance width="568"/>
  <unicode hex="0050"/>
  <outline>
    <contour>
      <point x="50" y="0" type="line"/>
      <point x="163" y="715" type="line"/>
      <point x="343" y="715" type="line" smooth="yes"/>
      <point x="474" y="715"/>
      <point x="563" y="659"/>
      <point x="563" y="535" type="curve" smooth="yes"/>
      <point x="563" y="370"/>
      <point x="446" y="306"/>
      <point x="301" y="306" type="curve" smooth="yes"/>
      <point x="154" y="306" type="line"/>
      <point x="106" y="0" type="line"/>
    </contour>
    <contour>
      <point x="161" y="351" type="line"/>
      <point x="304" y="351" type="line" smooth="yes"/>
      <point x="433" y="351"/>
      <point x="508" y="409"/>
      <point x="508" y="534" type="curve" smooth="yes"/>
      <point x="508" y="631"/>
      <point x="444" y="669"/>
      <point x="337" y="669" type="curve" smooth="yes"/>
      <point x="211" y="669" type="line"/>
    </contour>
  </outline>
</glyph>
<glyph name="S" format="2">
  <advance width="600"/>
  <unicode hex="0053"/>
  <outline>
    <contour>
      <point x="284" y="-8" type="curve" smooth="yes"/>
      <point x="127" y="-8"/>
      <point x="32" y="77"/>
      <point x="28" y="205" type="curve"/>
      <point x="82" y="205" type="line"/>
      <point x="90" y="106"/>
      <point x="156" y="38"/>
      <point x="287" y="38" type="curve" smooth="yes"/>
      <point x="403" y="37"/>
      <point x="480" y="99"/>
      <point x="480" y="203" type="curve" smooth="yes"/>
      <point x="480" y="282"/>
      <point x="435" y="315"/>
      <point x="308" y="350" type="curve" smooth="yes"/>
      <point x="173" y="389"/>
      <point x="107" y="432"/>
      <point x="107" y="530" type="curve" smooth="yes"/>
      <point x="107" y="645"/>
      <point x="200" y="723"/>
      <point x="337" y="723" type="curve" smooth="yes"/>
      <point x="466" y="723"/>
      <point x="552" y="661"/>
      <point x="559" y="543" type="curve"/>
      <point x="507" y="543" type="line"/>
      <point x="496" y="638"/>
      <point x="432" y="677"/>
      <point x="333" y="677" type="curve" smooth="yes"/>
      <point x="223" y="677"/>
      <point x="160" y="623"/>
      <point x="160" y="532" type="curve" smooth="yes"/>
      <point x="160" y="466"/>
      <point x="202" y="434"/>
      <point x="328" y="398" type="curve" smooth="yes"/>
      <point x="469" y="358"/>
      <point x="535" y="314"/>
      <point x="535" y="208" type="curve" smooth="yes"/>
      <point x="535" y="78"/>
      <point x="433" y="-8"/>
    </contour>
  </outline>
</glyph>
<glyph name="W" format="2">
  <advance width="899"/>
  <unicode hex="0057"/>
  <outline>
    <contour>
      <point x="173" y="0" type="line"/>
      <point x="95" y="715" type="line"/>
      <point x="151" y="715" type="line"/>
      <point x="217" y="84" type="line"/>
      <point x="500" y="715" type="line"/>
      <point x="536" y="715" type="line"/>
      <point x="621" y="82" type="line"/>
      <point x="889" y="715" type="line"/>
      <point x="942" y="715" type="line"/>
      <point x="637" y="0" type="line"/>
      <point x="582" y="0" type="line"/>
      <point x="502" y="613" type="line"/>
      <point x="226" y="0" type="line"/>
    </contour>
  </outline>
</glyph>
<glyph name="X" format="2">
  <advance width="614"/>
  <unicode hex="0058"/>
  <outline>
    <contour>
      <point x="-10" y="0" type="line"/>
      <point x="294" y="373" type="line"/>
      <point x="123" y="715" type="line"/>
      <point x="181" y="715" type="line"/>
      <point x="335" y="410" type="line"/>
      <point x="578" y="715" type="line"/>
      <point x="638" y="715" type="line"/>
      <point x="357" y="366" type="line"/>
      <point x="540" y="0" type="line"/>
      <point x="481" y="0" type="line"/>
      <point x="315" y="329" type="line"/>
      <point x="49" y="0" type="line"/>
    </contour>
  </outline>
</glyph>
<glyph name="bracketleft" format="2">
  <advance width="340"/>
  <unicode hex="005B"/>
  <outline>
    <contour>
      <point x="27" y="-148" type="line"/>
      <point x="173" y="776" type="line"/>
      <point x="379" y="776" type="line"/>
      <point x="372" y="733" type="line"/>
      <point x="220" y="733" type="line"/>
      <point x="87" y="-105" type="line"/>
      <point x="240" y="-105" type="line"/>
      <point x="233" y="-148" type="line"/>
    </contour>
  </outline>
</glyph>
<glyph name="backslash" format="2">
  <advance width="391"/>
  <unicode hex="005C"/>
  <outline>
    <contour>
      <point x="263" y="-148" type="line"/>
      <point x="117" y="776" type="line"/>
      <point x="166" y="776" type="line"/>
      <point x="312" y="-148" type="line"/>
    </contour>
  </outline>
</glyph>
<glyph name="bracketright" format="2">
  <advance width="340"/>
  <unicode hex="005D"/>
  <outline>
    <contour>
      <point x="-24" y="-148" type="line"/>
      <point x="-17" y="-105" type="line"/>
      <point x="136" y="-105" type="line"/>
      <point x="268" y="733" type="line"/>
      <point x="115" y="733" type="line"/>
      <point x="122" y="776" type="line"/>
      <point x="327" y="776" type="line"/>
      <point x="181" y="-148" type="line"/>
    </contour>
  </outline>
</glyph>
<glyph name="asciicircum" format="2">
  <advance width="478"/>
  <unicode hex="005E"/>
  <outline>
    <contour>
      <point x="70" y="422" type="line"/>
      <point x="282" y="715" type="line"/>
      <point x="335" y="715" type="line"/>
      <point x="457" y="422" type="line"/>
      <point x="404" y="422" type="line"/>
      <point x="302" y="667" type="line"/>
      <point x="126" y="422" type="line"/>
    </contour>
  </outline>
</glyph>
<glyph name="underscore" format="2">
  <advance width="389"/>
  <unicode hex="005F"/>
  <outline>
    <contour>
      <point x="-67" y="-151" type="line"/>
      <point x="-59" y="-107" type="line"/>
      <point x="331" y="-107" type="line"/>
      <point x="324" y="-151" type="line"/>
    </contour>
  </outline>
</glyph>
<glyph name="grave" format="2">
  <advance width="400"/>
  <unicode hex="0060"/>
  <outline>
    <contour>
      <point x="238" y="605" type="line"/>
      <point x="165" y="752" type="line"/>
      <point x="229" y="752" type="line"/>
      <point x="279" y="605" type="line"/>
    </contour>
  </outline>
</glyph>
<glyph name="b" format="2">
  <advance width="608"/>
  <unicode hex="0062"/>
  <outline>
    <contour>
      <point x="311" y="-8" type="curve" smooth="yes"/>
      <point x="192" y="-8"/>
      <point x="133" y="70"/>
      <point x="115" y="134" type="curve"/>
      <point x="93" y="0" type="line"/>
      <point x="40" y="0" type="line"/>
      <point x="162" y="773" type="line"/>
      <point x="215" y="773" type="line"/>
      <point x="158" y="407" type="line"/>
      <point x="194" y="476"/>
      <point x="268" y="531"/>
      <point x="359" y="531" type="curve" smooth="yes"/>
      <point x="478" y="531"/>
      <point x="569" y="440"/>
      <point x="569" y="298" type="curve" smooth="yes"/>
      <point x="569" y="131"/>
      <point x="478" y="-8"/>
    </contour>
    <contour>
      <point x="309" y="36" type="curve" smooth="yes"/>
      <point x="442" y="36"/>
      <point x="513" y="150"/>
      <point x="513" y="295" type="curve" smooth="yes"/>
      <point x="513" y="416"/>
      <point x="444" y="487"/>
      <point x="351" y="487" type="curve" smooth="yes"/>
      <point x="219" y="487"/>
      <point x="130" y="370"/>
      <point x="130" y="229" type="curve" smooth="yes"/>
      <point x="129" y="109"/>
      <point x="203" y="36"/>
    </contour>
  </outline>
</glyph>
<glyph name="f" format="2">
  <advance width="327"/>
  <unicode hex="0066"/>
  <outline>
    <contour>
      <point x="56" y="478" type="line"/>
      <point x="63" y="523" type="line"/>
      <point x="143" y="523" type="line"/>
      <point x="159" y="623" type="line" smooth="yes"/>
      <point x="176" y="733"/>
      <point x="243" y="776"/>
      <point x="323" y="776" type="curve" smooth="yes"/>
      <point x="352" y="776"/>
      <point x="370" y="772"/>
      <point x="386" y="765" type="curve"/>
      <point x="380" y="722" type="line"/>
      <point x="364" y="728"/>
      <point x="348" y="731"/>
      <point x="325" y="731" type="curve" smooth="yes"/>
      <point x="267" y="731"/>
      <point x="225" y="703"/>
      <point x="212" y="622" type="curve" smooth="yes"/>
      <point x="196" y="523" type="line"/>
      <point x="341" y="523" type="line"/>
      <point x="334" y="478" type="line"/>
      <point x="189" y="478" type="line"/>
      <point x="113" y="0" type="line"/>
      <point x="60" y="0" type="line"/>
      <point x="136" y="478" type="line"/>
    </contour>
  </outline>
</glyph>
<glyph name="j" format="2">
  <advance width="221"/>
  <unicode hex="006A"/>
  <outline>
    <contour>
      <point x="-64" y="-187" type="curve"/>
      <point x="-57" y="-143" type="line"/>
      <point x="2" y="-140"/>
      <point x="24" y="-112"/>
      <point x="33" y="-57" type="curve" smooth="yes"/>
      <point x="125" y="523" type="line"/>
      <point x="178" y="523" type="line"/>
      <point x="86" y="-60" type="line" smooth="yes"/>
      <point x="72" y="-146"/>
      <point x="29" y="-186"/>
    </contour>
    <contour>
      <point x="173" y="635" type="curve" smooth="yes"/>
      <point x="152" y="635"/>
      <point x="136" y="652"/>
      <point x="136" y="672" type="curve" smooth="yes"/>
      <point x="136" y="693"/>
      <point x="153" y="710"/>
      <point x="174" y="710" type="curve" smooth="yes"/>
      <point x="194" y="710"/>
      <point x="211" y="694"/>
      <point x="211" y="673" type="curve" smooth="yes"/>
      <point x="211" y="653"/>
      <point x="194" y="635"/>
    </contour>
  </outline>
</glyph>
<glyph name="m" format="2">
  <advance width="891"/>
  <unicode hex="006D"/>
  <outline>
    <contour>
      <point x="40" y="0" type="line"/>
      <point x="100" y="377" type="line" smooth="yes"/>
      <point x="111" y="447"/>
      <point x="113" y="486"/>
      <point x="114" y="523" type="curve"/>
      <point x="164" y="523" type="line"/>
      <point x="164" y="495"/>
      <point x="162" y="455"/>
      <point x="156" y="414" type="curve"/>
      <point x="192" y="480"/>
      <point x="252" y="531"/>
      <point x="333" y="531" type="curve" smooth="yes"/>
      <point x="415" y="531"/>
      <point x="471" y="490"/>
      <point x="481" y="402" type="curve"/>
      <point x="520" y="485"/>
      <point x="596" y="531"/>
      <point x="671" y="531" type="curve" smooth="yes"/>
      <point x="777" y="531"/>
      <point x="846" y="467"/>
      <point x="821" y="311" type="curve" smooth="yes"/>
      <point x="772" y="0" type="line"/>
      <point x="719" y="0" type="line"/>
      <point x="769" y="318" type="line" smooth="yes"/>
      <point x="787" y="434"/>
      <point x="747" y="485"/>
      <point x="661" y="485" type="curve" smooth="yes"/>
      <point x="581" y="485"/>
      <point x="500" y="426"/>
      <point x="482" y="313" type="curve" smooth="yes"/>
      <point x="433" y="0" type="line"/>
      <point x="380" y="0" type="line"/>
      <point x="430" y="321" type="line" smooth="yes"/>
      <point x="448" y="431"/>
      <point x="407" y="485"/>
      <point x="322" y="485" type="curve" smooth="yes"/>
      <point x="240" y="485"/>
      <point x="160" y="423"/>
      <point x="143" y="313" type="curve" smooth="yes"/>
      <point x="93" y="0" type="line"/>
    </contour>
  </outline>
</glyph>
<glyph name="n" format="2">
  <advance width="577"/>
  <unicode hex="006E"/>
  <outline>
    <contour>
      <point x="40" y="0" type="line"/>
      <point x="100" y="377" type="line" smooth="yes"/>
      <point x="111" y="447"/>
      <point x="113" y="486"/>
      <point x="114" y="523" type="curve"/>
      <point x="164" y="523" type="line"/>
      <point x="164" y="495"/>
      <point x="161" y="452"/>
      <point x="155" y="410" type="curve"/>
      <point x="191" y="476"/>
      <point x="258" y="531"/>
      <point x="350" y="531" type="curve" smooth="yes"/>
      <point x="462" y="531"/>
      <point x="531" y="464"/>
      <point x="507" y="312" type="curve" smooth="yes"/>
      <point x="457" y="0" type="line"/>
      <point x="404" y="0" type="line"/>
      <point x="455" y="322" type="line" smooth="yes"/>
      <point x="473" y="432"/>
      <point x="427" y="485"/>
      <point x="340" y="485" type="curve" smooth="yes"/>
      <point x="248" y="485"/>
      <point x="160" y="422"/>
      <point x="142" y="310" type="curve" smooth="yes"/>
      <point x="93" y="0" type="line"/>
    </contour>
  </outline>
</glyph>
<glyph name="o" format="2">
  <advance width="579"/>
  <unicode hex="006F"/>
  <outline>
    <contour>
      <point x="267" y="-8" type="curve" smooth="yes"/>
      <point x="127" y="-8"/>
      <point x="38" y="95"/>
      <point x="38" y="227" type="curve" smooth="yes"/>
      <point x="38" y="393"/>
      <point x="149" y="530"/>
      <point x="312" y="530" type="curve" smooth="yes"/>
      <point x="455" y="530"/>
      <point x="541" y="427"/>
      <point x="541" y="297" type="curve" smooth="yes"/>
      <point x="541" y="124"/>
      <point x="432" y="-8"/>
    </contour>
    <contour>
      <point x="269" y="37" type="curve" smooth="yes"/>
      <point x="404" y="37"/>
      <point x="486" y="149"/>
      <point x="486" y="296" type="curve" smooth="yes"/>
      <point x="486" y="403"/>
      <point x="424" y="486"/>
      <point x="310" y="486" type="curve" smooth="yes"/>
      <point x="175" y="486"/>
      <point x="92" y="370"/>
      <point x="92" y="227" type="curve" smooth="yes"/>
      <point x="92" y="119"/>
      <point x="156" y="37"/>
    </contour>
  </outline>
</glyph>
<glyph name="p" format="2">
  <advance width="608"/>
  <unicode hex="0070"/>
  <outline>
    <contour>
      <point x="359" y="531" type="curve" smooth="yes"/>
      <point x="478" y="531"/>
      <point x="569" y="440"/>
      <point x="569" y="298" type="curve" smooth="yes"/>
      <point x="569" y="131"/>
      <point x="478" y="-8"/>
      <point x="311" y="-8" type="curve" smooth="yes"/>
      <point x="192" y="-8"/>
      <point x="133" y="70"/>
      <point x="115" y="133" type="curve"/>
      <point x="64" y="-182" type="line"/>
      <point x="11" y="-182" type="line"/>
      <point x="97" y="359" type="line" smooth="yes"/>
      <point x="109" y="438"/>
      <point x="113" y="486"/>
      <point x="114" y="523" type="curve"/>
      <point x="164" y="523" type="line"/>
      <point x="164" y="495"/>
      <point x="159" y="440"/>
      <point x="153" y="400" type="curve"/>
      <point x="191" y="477"/>
      <point x="268" y="531"/>
    </contour>
    <contour>
      <point x="309" y="36" type="curve" smooth="yes"/>
      <point x="442" y="36"/>
      <point x="513" y="150"/>
      <point x="513" y="295" type="curve" smooth="yes"/>
      <point x="513" y="416"/>
      <point x="444" y="487"/>
      <point x="351" y="487" type="curve" smooth="yes"/>
      <point x="219" y="487"/>
      <point x="130" y="370"/>
      <point x="130" y="229" type="curve" smooth="yes"/>
      <point x="129" y="109"/>
      <point x="203" y="36"/>
    </contour>
  </outline>
</glyph>
<glyph name="q" format="2">
  <advance width="609"/>
  <unicode hex="0071"/>
  <outline>
    <contour>
      <point x="403" y="-182" type="line"/>
      <point x="449" y="110" type="line"/>
      <point x="411" y="41"/>
      <point x="347" y="-8"/>
      <point x="256" y="-8" type="curve" smooth="yes"/>
      <point x="131" y="-8"/>
      <point x="39" y="81"/>
      <point x="39" y="223" type="curve" smooth="yes"/>
      <point x="39" y="389"/>
      <point x="141" y="531"/>
      <point x="305" y="531" type="curve" smooth="yes"/>
      <point x="421" y="531"/>
      <point x="476" y="453"/>
      <point x="493" y="390" type="curve"/>
      <point x="514" y="523" type="line"/>
      <point x="567" y="523" type="line"/>
      <point x="456" y="-182" type="line"/>
    </contour>
    <contour>
      <point x="261" y="37" type="curve" smooth="yes"/>
      <point x="392" y="37"/>
      <point x="477" y="147"/>
      <point x="478" y="295" type="curve" smooth="yes"/>
      <point x="479" y="414"/>
      <point x="407" y="486"/>
      <point x="307" y="486" type="curve" smooth="yes"/>
      <point x="173" y="486"/>
      <point x="94" y="371"/>
      <point x="94" y="226" type="curve" smooth="yes"/>
      <point x="94" y="106"/>
      <point x="164" y="37"/>
    </contour>
  </outline>
</glyph>
<glyph name="u" format="2">
  <advance width="573"/>
  <unicode hex="0075"/>
  <outline>
    <contour>
      <point x="530" y="523" type="line"/>
      <point x="471" y="146" type="line" smooth="yes"/>
      <point x="461" y="80"/>
      <point x="458" y="35"/>
      <point x="459" y="0" type="curve"/>
      <point x="408" y="0" type="line"/>
      <point x="407" y="30"/>
      <point x="410" y="73"/>
      <point x="416" y="112" type="curve"/>
      <point x="380" y="46"/>
      <point x="314" y="-8"/>
      <point x="222" y="-8" type="curve" smooth="yes"/>
      <point x="110" y="-8"/>
      <point x="44" y="63"/>
      <point x="67" y="211" type="curve" smooth="yes"/>
      <point x="117" y="523" type="line"/>
      <point x="170" y="523" type="line"/>
      <point x="119" y="201" type="line" smooth="yes"/>
      <point x="102" y="93"/>
      <point x="145" y="38"/>
      <point x="232" y="38" type="curve" smooth="yes"/>
      <point x="324" y="38"/>
      <point x="410" y="101"/>
      <point x="428" y="213" type="curve" smooth="yes"/>
      <point x="477" y="523" type="line"/>
    </contour>
  </outline>
</glyph>
<glyph name="v" format="2">
  <advance width="504"/>
  <unicode hex="0076"/>
  <outline>
    <contour>
      <point x="178" y="0" type="line"/>
      <point x="63" y="523" type="line"/>
      <point x="119" y="523" type="line"/>
      <point x="221" y="51" type="line"/>
      <point x="466" y="523" type="line"/>
      <point x="523" y="523" type="line"/>
      <point x="247" y="0" type="line"/>
    </contour>
  </outline>
</glyph>
<glyph name="x" format="2">
  <advance width="489"/>
  <unicode hex="0078"/>
  <outline>
    <contour>
      <point x="-21" y="0" type="line"/>
      <point x="213" y="275" type="line"/>
      <point x="73" y="523" type="line"/>
      <point x="133" y="523" type="line"/>
      <point x="250" y="313" type="line"/>
      <point x="429" y="523" type="line"/>
      <point x="489" y="523" type="line"/>
      <point x="275" y="269" type="line"/>
      <point x="426" y="0" type="line"/>
      <point x="365" y="0" type="line"/>
      <point x="237" y="232" type="line"/>
      <point x="40" y="0" type="line"/>
    </contour>
  </outline>
</glyph>
<glyph name="z" format="2">
  <advance width="467"/>
  <unicode hex="007A"/>
  <outline>
    <contour>
      <point x="-19" y="0" type="line"/>
      <point x="-17" y="9" type="line"/>
      <point x="387" y="478" type="line"/>
      <point x="86" y="478" type="line"/>
      <point x="93" y="523" type="line"/>
      <point x="479" y="523" type="line"/>
      <point x="477" y="513" type="line"/>
      <point x="77" y="47" type="line"/>
      <point x="399" y="47" type="line"/>
      <point x="391" y="0" type="line"/>
    </contour>
  </outline>
</glyph>
<glyph name="braceleft" format="2">
  <advance width="363"/>
  <unicode hex="007B"/>
  <outline>
    <contour>
      <point x="255" y="-146" type="line"/>
      <point x="117" y="-138"/>
      <point x="63" y="-65"/>
      <point x="110" y="64" type="curve" smooth="yes"/>
      <point x="148" y="171" type="line" smooth="yes"/>
      <point x="174" y="244"/>
      <point x="153" y="299"/>
      <point x="48" y="304" type="curve"/>
      <point x="54" y="344" type="line"/>
      <point x="158" y="343"/>
      <point x="196" y="385"/>
      <point x="193" y="467" type="curve" smooth="yes"/>
      <point x="189" y="585" type="line" smooth="yes"/>
      <point x="184" y="730"/>
      <point x="258" y="776"/>
      <point x="401" y="778" type="curve"/>
      <point x="395" y="737" type="line"/>
      <point x="285" y="733"/>
      <point x="235" y="703"/>
      <point x="239" y="582" type="curve" smooth="yes"/>
      <point x="243" y="467" type="line" smooth="yes"/>
      <point x="245" y="374"/>
      <point x="197" y="335"/>
      <point x="127" y="321" type="curve"/>
      <point x="195" y="303"/>
      <point x="225" y="248"/>
      <point x="194" y="161" type="curve" smooth="yes"/>
      <point x="158" y="59" type="line" smooth="yes"/>
      <point x="120" y="-51"/>
      <point x="154" y="-97"/>
      <point x="262" y="-104" type="curve"/>
    </contour>
  </outline>
</glyph>
<glyph name="braceright" format="2">
  <advance width="363"/>
  <unicode hex="007D"/>
  <outline>
    <contour>
      <point x="123" y="778" type="line"/>
      <point x="260" y="770"/>
      <point x="314" y="697"/>
      <point x="268" y="568" type="curve" smooth="yes"/>
      <point x="229" y="460" type="line" smooth="yes"/>
      <point x="203" y="388"/>
      <point x="225" y="332"/>
      <point x="329" y="324" type="curve"/>
      <point x="324" y="284" type="line"/>
      <point x="220" y="288"/>
      <point x="182" y="248"/>
      <point x="184" y="165" type="curve" smooth="yes"/>
      <point x="189" y="48" type="line" smooth="yes"/>
      <point x="194" y="-98"/>
      <point x="119" y="-144"/>
      <point x="-24" y="-146" type="curve"/>
      <point x="-17" y="-105" type="line"/>
      <point x="93" y="-101"/>
      <point x="143" y="-71"/>
      <point x="139" y="50" type="curve" smooth="yes"/>
      <point x="135" y="168" type="line" smooth="yes"/>
      <point x="133" y="263"/>
      <point x="182" y="298"/>
      <point x="250" y="309" type="curve"/>
      <point x="182" y="329"/>
      <point x="152" y="386"/>
      <point x="182" y="467" type="curve" smooth="yes"/>
      <point x="220" y="573" type="line" smooth="yes"/>
      <point x="258" y="683"/>
      <point x="223" y="729"/>
      <point x="116" y="736" type="curve"/>
    </contour>
  </outline>
</glyph>
<glyph name="asciitilde" format="2">
  <advance width="438"/>
  <unicode hex="007E"/>
  <outline>
    <contour>
      <point x="44" y="232" type="line"/>
      <point x="57" y="301"/>
      <point x="96" y="342"/>
      <point x="146" y="342" type="curve" smooth="yes"/>
      <point x="210" y="342"/>
      <point x="251" y="282"/>
      <point x="294" y="282" type="curve" smooth="yes"/>
      <point x="325" y="282"/>
      <point x="348" y="307"/>
      <point x="355" y="344" type="curve"/>
      <point x="399" y="344" type="line"/>
      <point x="386" y="273"/>
      <point x="345" y="234"/>
      <point x="298" y="234" type="curve" smooth="yes"/>
      <point x="231" y="234"/>
      <point x="190" y="294"/>
      <point x="148" y="294" type="curve" smooth="yes"/>
      <point x="118" y="294"/>
      <point x="96" y="268"/>
      <point x="88" y="232" type="curve"/>
    </contour>
  </outline>
</glyph>
<glyph name="exclamdown" format="2">
  <advance width="272"/>
  <unicode hex="00A1"/>
  <outline>
    <contour>
      <point x="181" y="419" type="line"/>
      <point x="104" y="-117" type="line"/>
      <point x="45" y="-117" type="line"/>
      <point x="139" y="419" type="line"/>
    </contour>
    <contour>
      <point x="182" y="603" type="curve" smooth="yes"/>
      <point x="205" y="603"/>
      <point x="224" y="584"/>
      <point x="224" y="561" type="curve" smooth="yes"/>
      <point x="224" y="537"/>
      <point x="206" y="518"/>
      <point x="182" y="518" type="curve" smooth="yes"/>
      <point x="159" y="518"/>
      <point x="139" y="537"/>
      <point x="139" y="561" type="curve" smooth="yes"/>
      <point x="139" y="584"/>
      <point x="158" y="603"/>
    </contour>
  </outline>
</glyph>
<glyph name="cent" format="2">
  <advance width="551"/>
  <unicode hex="00A2"/>
  <outline>
    <contour>
      <point x="278" y="-8" type="curve" smooth="yes"/>
      <point x="265" y="-8" type="line"/>
      <point x="245" y="-135" type="line"/>
      <point x="205" y="-135" type="line"/>
      <point x="226" y="-3" type="line"/>
      <point x="109" y="16"/>
      <point x="40" y="105"/>
      <point x="40" y="229" type="curve" smooth="yes"/>
      <point x="40" y="408"/>
      <point x="160" y="529"/>
      <point x="310" y="531" type="curve"/>
      <point x="326" y="629" type="line"/>
      <point x="366" y="629" type="line"/>
      <point x="350" y="528" type="line"/>
      <point x="443" y="516"/>
      <point x="512" y="455"/>
      <point x="518" y="354" type="curve"/>
      <point x="467" y="354" type="line"/>
      <point x="462" y="430"/>
      <point x="412" y="474"/>
      <point x="343" y="484" type="curve"/>
      <point x="272" y="37" type="line"/>
      <point x="279" y="37" type="line" smooth="yes"/>
      <point x="363" y="37"/>
      <point x="436" y="80"/>
      <point x="459" y="179" type="curve"/>
      <point x="510" y="179" type="line"/>
      <point x="484" y="51"/>
      <point x="388" y="-8"/>
    </contour>
    <contour>
      <point x="95" y="229" type="curve" smooth="yes"/>
      <point x="95" y="124"/>
      <point x="146" y="58"/>
      <point x="233" y="41" type="curve"/>
      <point x="303" y="486" type="line"/>
      <point x="180" y="482"/>
      <point x="95" y="378"/>
    </contour>
  </outline>
</glyph>
<glyph name="sterling" format="2">
  <advance width="589"/>
  <unicode hex="00A3"/>
  <outline>
    <contour>
      <point x="59" y="327" type="line"/>
      <point x="66" y="368" type="line"/>
      <point x="139" y="368" type="line"/>
      <point x="136" y="402"/>
      <point x="133" y="438"/>
      <point x="133" y="475" type="curve" smooth="yes"/>
      <point x="133" y="614"/>
      <point x="212" y="723"/>
      <point x="370" y="723" type="curve" smooth="yes"/>
      <point x="495" y="723"/>
      <point x="565" y="655"/>
      <point x="567" y="540" type="curve"/>
      <point x="513" y="540" type="line"/>
      <point x="509" y="620"/>
      <point x="468" y="676"/>
      <point x="368" y="676" type="curve" smooth="yes"/>
      <point x="244" y="676"/>
      <point x="188" y="590"/>
      <point x="188" y="474" type="curve" smooth="yes"/>
      <point x="188" y="436"/>
      <point x="191" y="402"/>
      <point x="194" y="368" type="curve"/>
      <point x="421" y="368" type="line"/>
      <point x="415" y="327" type="line"/>
      <point x="197" y="327" type="line"/>
      <point x="199" y="305"/>
      <point x="200" y="282"/>
      <point x="200" y="257" type="curve" smooth="yes"/>
      <point x="200" y="195"/>
      <point x="189" y="149"/>
      <point x="162" y="108" type="curve"/>
      <point x="236" y="94"/>
      <point x="310" y="40"/>
      <point x="376" y="40" type="curve" smooth="yes"/>
      <point x="430" y="40"/>
      <point x="474" y="72"/>
      <point x="484" y="144" type="curve"/>
      <point x="532" y="144" type="line"/>
      <point x="520" y="49"/>
      <point x="461" y="-8"/>
      <point x="374" y="-8" type="curve" smooth="yes"/>
      <point x="283" y="-8"/>
      <point x="199" y="65"/>
      <point x="132" y="65" type="curve" smooth="yes"/>
      <point x="88" y="65"/>
      <point x="60" y="36"/>
      <point x="52" y="0" type="curve"/>
      <point x="3" y="0" type="line"/>
      <point x="13" y="47"/>
      <point x="50" y="99"/>
      <point x="109" y="109" type="curve"/>
      <point x="136" y="148"/>
      <point x="148" y="193"/>
      <point x="148" y="252" type="curve" smooth="yes"/>
      <point x="148" y="276"/>
      <point x="146" y="301"/>
      <point x="144" y="327" type="curve"/>
    </contour>
  </outline>
</glyph>
<glyph name="yen" format="2">
  <advance width="548"/>
  <unicode hex="00A5"/>
  <outline>
    <contour>
      <point x="78" y="305" type="line"/>
      <point x="84" y="344" type="line"/>
      <point x="256" y="344" type="line"/>
      <point x="99" y="715" type="line"/>
      <point x="157" y="715" type="line"/>
      <point x="297" y="375" type="line"/>
      <point x="535" y="715" type="line"/>
      <point x="591" y="715" type="line"/>
      <point x="329" y="344" type="line"/>
      <point x="499" y="344" type="line"/>
      <point x="493" y="305" type="line"/>
      <point x="313" y="305" type="line"/>
      <point x="298" y="208" type="line"/>
      <point x="477" y="208" type="line"/>
      <point x="471" y="169" type="line"/>
      <point x="292" y="169" type="line"/>
      <point x="266" y="0" type="line"/>
      <point x="211" y="0" type="line"/>
      <point x="238" y="169" type="line"/>
      <point x="56" y="169" type="line"/>
      <point x="62" y="208" type="line"/>
      <point x="244" y="208" type="line"/>
      <point x="259" y="305" type="line"/>
    </contour>
  </outline>
</glyph>
<glyph name="section" format="2">
  <advance width="535"/>
  <unicode hex="00A7"/>
  <outline>
    <contour>
      <point x="216" y="-137" type="curve" smooth="yes"/>
      <point x="122" y="-137"/>
      <point x="41" y="-88"/>
      <point x="39" y="16" type="curve"/>
      <point x="93" y="16" type="line"/>
      <point x="98" y="-53"/>
      <point x="142" y="-91"/>
      <point x="220" y="-91" type="curve" smooth="yes"/>
      <point x="290" y="-92"/>
      <point x="348" y="-50"/>
      <point x="348" y="24" type="curve" smooth="yes"/>
      <point x="348" y="79"/>
      <point x="315" y="111"/>
      <point x="214" y="149" type="curve" smooth="yes"/>
      <point x="114" y="185"/>
      <point x="52" y="227"/>
      <point x="52" y="310" type="curve" smooth="yes"/>
      <point x="52" y="395"/>
      <point x="125" y="435"/>
      <point x="204" y="452" type="curve"/>
      <point x="171" y="478"/>
      <point x="151" y="512"/>
      <point x="151" y="564" type="curve" smooth="yes"/>
      <point x="151" y="657"/>
      <point x="232" y="724"/>
      <point x="334" y="724" type="curve" smooth="yes"/>
      <point x="424" y="724"/>
      <point x="492" y="679"/>
      <point x="494" y="578" type="curve"/>
      <point x="440" y="578" type="line"/>
      <point x="439" y="644"/>
      <point x="399" y="678"/>
      <point x="329" y="678" type="curve" smooth="yes"/>
      <point x="260" y="679"/>
      <point x="204" y="640"/>
      <point x="204" y="567" type="curve" smooth="yes"/>
      <point x="204" y="516"/>
      <point x="230" y="481"/>
      <point x="330" y="443" type="curve" smooth="yes"/>
      <point x="428" y="406"/>
      <point x="491" y="365"/>
      <point x="491" y="278" type="curve" smooth="yes"/>
      <point x="491" y="197"/>
      <point x="426" y="158"/>
      <point x="346" y="140" type="curve"/>
      <point x="379" y="116"/>
      <point x="402" y="76"/>
      <point x="402" y="28" type="curve" smooth="yes"/>
      <point x="402" y="-73"/>
      <point x="321" y="-137"/>
    </contour>
    <contour>
      <point x="308" y="166" type="line"/>
      <point x="374" y="176"/>
      <point x="437" y="207"/>
      <point x="437" y="275" type="curve" smooth="yes"/>
      <point x="437" y="331"/>
      <point x="392" y="364"/>
      <point x="315" y="395" type="curve" smooth="yes"/>
      <point x="239" y="425" type="line"/>
      <point x="172" y="415"/>
      <point x="106" y="385"/>
      <point x="106" y="314" type="curve" smooth="yes"/>
      <point x="106" y="259"/>
      <point x="150" y="227"/>
      <point x="228" y="197" type="curve" smooth="yes"/>
    </contour>
  </outline>
</glyph>
<glyph name="dieresis" format="2">
  <advance width="400"/>
  <unicode hex="00A8"/>
  <outline>
    <contour>
      <point x="180" y="636" type="curve" smooth="yes"/>
      <point x="160" y="636"/>
      <point x="144" y="652"/>
      <point x="144" y="672" type="curve" smooth="yes"/>
      <point x="144" y="692"/>
      <point x="161" y="709"/>
      <point x="181" y="709" type="curve" smooth="yes"/>
      <point x="201" y="709"/>
      <point x="217" y="693"/>
      <point x="217" y="673" type="curve" smooth="yes"/>
      <point x="217" y="653"/>
      <point x="201" y="636"/>
    </contour>
    <contour>
      <point x="347" y="636" type="curve" smooth="yes"/>
      <point x="327" y="636"/>
      <point x="311" y="652"/>
      <point x="311" y="672" type="curve" smooth="yes"/>
      <point x="311" y="692"/>
      <point x="327" y="709"/>
      <point x="348" y="709" type="curve" smooth="yes"/>
      <point x="368" y="709"/>
      <point x="384" y="693"/>
      <point x="384" y="673" type="curve" smooth="yes"/>
      <point x="384" y="653"/>
      <point x="367" y="636"/>
    </contour>
  </outline>
</glyph>
<glyph name="copyright" format="2">
  <advance width="844"/>
  <unicode hex="00A9"/>
  <outline>
    <contour>
      <point x="435" y="151" type="curve" smooth="yes"/>
      <point x="314" y="151"/>
      <point x="240" y="233"/>
      <point x="240" y="356" type="curve" smooth="yes"/>
      <point x="240" y="363" type="line" smooth="yes"/>
      <point x="240" y="485"/>
      <point x="325" y="568"/>
      <point x="434" y="568" type="curve" smooth="yes"/>
      <point x="523" y="568"/>
      <point x="593" y="523"/>
      <point x="605" y="435" type="curve"/>
      <point x="553" y="435" type="line"/>
      <point x="542" y="494"/>
      <point x="501" y="526"/>
      <point x="434" y="526" type="curve" smooth="yes"/>
      <point x="352" y="526"/>
      <point x="294" y="463"/>
      <point x="294" y="363" type="curve" smooth="yes"/>
      <point x="294" y="357" type="line" smooth="yes"/>
      <point x="294" y="256"/>
      <point x="348" y="194"/>
      <point x="435" y="194" type="curve" smooth="yes"/>
      <point x="501" y="194"/>
      <point x="549" y="229"/>
      <point x="560" y="293" type="curve"/>
      <point x="609" y="293" type="line"/>
      <point x="597" y="201"/>
      <point x="527" y="151"/>
    </contour>
    <contour>
      <point x="432" y="23" type="curve" smooth="yes"/>
      <point x="612" y="23"/>
      <point x="763" y="164"/>
      <point x="763" y="359" type="curve" smooth="yes"/>
      <point x="763" y="551"/>
      <point x="617" y="692"/>
      <point x="434" y="692" type="curve" smooth="yes"/>
      <point x="251" y="692"/>
      <point x="103" y="550"/>
      <point x="103" y="357" type="curve" smooth="yes"/>
      <point x="103" y="162"/>
      <point x="255" y="23"/>
    </contour>
    <contour>
      <point x="432" y="-9" type="curve" smooth="yes"/>
      <point x="229" y="-9"/>
      <point x="66" y="150"/>
      <point x="66" y="357" type="curve" smooth="yes"/>
      <point x="66" y="561"/>
      <point x="228" y="724"/>
      <point x="434" y="724" type="curve" smooth="yes"/>
      <point x="642" y="724"/>
      <point x="800" y="562"/>
      <point x="800" y="359" type="curve" smooth="yes"/>
      <point x="800" y="151"/>
      <point x="638" y="-9"/>
    </contour>
  </outline>
</glyph>
<glyph name="ordfeminine" format="2">
  <advance width="418"/>
  <unicode hex="00AA"/>
  <outline>
    <contour>
      <point x="191" y="302" type="curve" smooth="yes"/>
      <point x="106" y="302"/>
      <point x="61" y="349"/>
      <point x="61" y="413" type="curve" smooth="yes"/>
      <point x="61" y="515"/>
      <point x="150" y="544"/>
      <point x="254" y="544" type="curve" smooth="yes"/>
      <point x="348" y="544" type="line"/>
      <point x="353" y="574" type="line" smooth="yes"/>
      <point x="363" y="643"/>
      <point x="340" y="681"/>
      <point x="264" y="681" type="curve" smooth="yes"/>
      <point x="209" y="681"/>
      <point x="169" y="657"/>
      <point x="154" y="600" type="curve"/>
      <point x="103" y="600" type="line"/>
      <point x="123" y="690"/>
      <point x="197" y="723"/>
      <point x="266" y="723" type="curve" smooth="yes"/>
      <point x="366" y="723"/>
      <point x="419" y="671"/>
      <point x="403" y="570" type="curve" smooth="yes"/>
      <point x="381" y="427" type="line" smooth="yes"/>
      <point x="372" y="373"/>
      <point x="371" y="338"/>
      <point x="373" y="309" type="curve"/>
      <point x="324" y="309" type="line"/>
      <point x="323" y="328"/>
      <point x="323" y="347"/>
      <point x="325" y="368" type="curve"/>
      <point x="297" y="327"/>
      <point x="250" y="302"/>
    </contour>
    <contour>
      <point x="201" y="342" type="curve" smooth="yes"/>
      <point x="268" y="342"/>
      <point x="322" y="378"/>
      <point x="333" y="443" type="curve" smooth="yes"/>
      <point x="343" y="507" type="line"/>
      <point x="252" y="507" type="line" smooth="yes"/>
      <point x="170" y="507"/>
      <point x="112" y="489"/>
      <point x="112" y="416" type="curve" smooth="yes"/>
      <point x="112" y="374"/>
      <point x="140" y="342"/>
    </contour>
  </outline>
</glyph>
<glyph name="guillemotleft" format="2">
  <advance width="448"/>
  <unicode hex="00AB"/>
  <outline>
    <contour>
      <point x="160" y="83" type="line"/>
      <point x="53" y="262" type="line"/>
      <point x="216" y="439" type="line"/>
      <point x="272" y="439" type="line"/>
      <point x="110" y="259" type="line"/>
      <point x="212" y="83" type="line"/>
    </contour>
    <contour>
      <point x="318" y="83" type="line"/>
      <point x="211" y="262" type="line"/>
      <point x="374" y="439" type="line"/>
      <point x="430" y="439" type="line"/>
      <point x="268" y="259" type="line"/>
      <point x="370" y="83" type="line"/>
    </contour>
  </outline>
</glyph>
<glyph name="registered" format="2">
  <advance width="514"/>
  <unicode hex="00AE"/>
  <outline>
    <contour>
      <point x="218" y="393" type="line"/>
      <point x="218" y="621" type="line"/>
      <point x="293" y="621" type="line" smooth="yes"/>
      <point x="343" y="621"/>
      <point x="376" y="599"/>
      <point x="376" y="554" type="curve" smooth="yes"/>
      <point x="376" y="553" type="line" smooth="yes"/>
      <point x="376" y="518"/>
      <point x="356" y="499"/>
      <point x="325" y="492" type="curve"/>
      <point x="390" y="393" type="line"/>
      <point x="349" y="393" type="line"/>
      <point x="288" y="486" type="line"/>
      <point x="255" y="486" type="line"/>
      <point x="255" y="393" type="line"/>
    </contour>
    <contour>
      <point x="255" y="514" type="line"/>
      <point x="292" y="514" type="line" smooth="yes"/>
      <point x="324" y="514"/>
      <point x="340" y="527"/>
      <point x="340" y="552" type="curve" smooth="yes"/>
      <point x="340" y="553" type="line" smooth="yes"/>
      <point x="340" y="581"/>
      <point x="323" y="592"/>
      <point x="292" y="592" type="curve" smooth="yes"/>
      <point x="255" y="592" type="line"/>
    </contour>
    <contour>
      <point x="292" y="310" type="curve" smooth="yes"/>
      <point x="400" y="310"/>
      <point x="483" y="391"/>
      <point x="483" y="503" type="curve" smooth="yes"/>
      <point x="483" y="615"/>
      <point x="402" y="697"/>
      <point x="292" y="697" type="curve" smooth="yes"/>
      <point x="183" y="697"/>
      <point x="101" y="614"/>
      <point x="101" y="502" type="curve" smooth="yes"/>
      <point x="101" y="389"/>
      <point x="185" y="310"/>
    </contour>
    <contour>
      <point x="292" y="282" type="curve" smooth="yes"/>
      <point x="169" y="282"/>
      <point x="70" y="377"/>
      <point x="70" y="502" type="curve" smooth="yes"/>
      <point x="70" y="625"/>
      <point x="168" y="724"/>
      <point x="292" y="724" type="curve" smooth="yes"/>
      <point x="418" y="724"/>
      <point x="514" y="626"/>
      <point x="514" y="503" type="curve" smooth="yes"/>
      <point x="514" y="378"/>
      <point x="416" y="282"/>
    </contour>
  </outline>
</glyph>
<glyph name="macron" format="2">
  <advance width="400"/>
  <unicode hex="00AF"/>
  <outline>
    <contour>
      <point x="139" y="647" type="line"/>
      <point x="145" y="689" type="line"/>
      <point x="388" y="689" type="line"/>
      <point x="381" y="647" type="line"/>
    </contour>
  </outline>
</glyph>
<glyph name="degree" format="2">
  <advance width="407"/>
  <unicode hex="00B0"/>
  <outline>
    <contour>
      <point x="248" y="466" type="curve" smooth="yes"/>
      <point x="310" y="466"/>
      <point x="355" y="513"/>
      <point x="355" y="580" type="curve" smooth="yes"/>
      <point x="355" y="639"/>
      <point x="312" y="685"/>
      <point x="254" y="685" type="curve" smooth="yes"/>
      <point x="194" y="685"/>
      <point x="144" y="638"/>
      <point x="144" y="571" type="curve" smooth="yes"/>
      <point x="144" y="513"/>
      <point x="188" y="466"/>
    </contour>
    <contour>
      <point x="247" y="427" type="curve" smooth="yes"/>
      <point x="164" y="427"/>
      <point x="98" y="491"/>
      <point x="98" y="570" type="curve" smooth="yes"/>
      <point x="98" y="655"/>
      <point x="167" y="724"/>
      <point x="255" y="724" type="curve" smooth="yes"/>
      <point x="338" y="724"/>
      <point x="403" y="661"/>
      <point x="403" y="581" type="curve" smooth="yes"/>
      <point x="403" y="496"/>
      <point x="335" y="427"/>
    </contour>
  </outline>
</glyph>
<glyph name="plusminus" format="2">
  <advance width="510"/>
  <unicode hex="00B1"/>
  <outline>
    <contour>
      <point x="209" y="131" type="line"/>
      <point x="241" y="330" type="line"/>
      <point x="46" y="330" type="line"/>
      <point x="53" y="375" type="line"/>
      <point x="248" y="375" type="line"/>
      <point x="280" y="574" type="line"/>
      <point x="328" y="574" type="line"/>
      <point x="296" y="375" type="line"/>
      <point x="491" y="375" type="line"/>
      <point x="483" y="330" type="line"/>
      <point x="288" y="330" type="line"/>
      <point x="257" y="131" type="line"/>
    </contour>
    <contour>
      <point x="-6" y="0" type="line"/>
      <point x="1" y="45" type="line"/>
      <point x="439" y="45" type="line"/>
      <point x="431" y="0" type="line"/>
    </contour>
  </outline>
</glyph>
<glyph name="twosuperior" format="2">
  <advance width="285"/>
  <unicode hex="00B2"/>
  <outline>
    <contour>
      <point x="30" y="372" type="line"/>
      <point x="31" y="381" type="line"/>
      <point x="180" y="508" type="line" smooth="yes"/>
      <point x="224" y="545"/>
      <point x="262" y="580"/>
      <point x="262" y="626" type="curve" smooth="yes"/>
      <point x="261" y="661"/>
      <point x="237" y="684"/>
      <point x="201" y="684" type="curve" smooth="yes"/>
      <point x="160" y="684"/>
      <point x="129" y="659"/>
      <point x="116" y="606" type="curve"/>
      <point x="75" y="606" type="line"/>
      <point x="88" y="678"/>
      <point x="140" y="719"/>
      <point x="204" y="719" type="curve" smooth="yes"/>
      <point x="260" y="719"/>
      <point x="304" y="689"/>
      <point x="306" y="628" type="curve" smooth="yes"/>
      <point x="307" y="572"/>
      <point x="266" y="533"/>
      <point x="209" y="485" type="curve" smooth="yes"/>
      <point x="114" y="407" type="line"/>
      <point x="277" y="407" type="line"/>
      <point x="271" y="372" type="line"/>
    </contour>
  </outline>
</glyph>
<glyph name="acute" format="2">
  <advance width="400"/>
  <unicode hex="00B4"/>
  <outline>
    <contour>
      <point x="227" y="605" type="line"/>
      <point x="315" y="752" type="line"/>
      <point x="383" y="752" type="line"/>
      <point x="271" y="605" type="line"/>
    </contour>
  </outline>
</glyph>
<glyph name="paragraph" format="2">
  <advance width="559"/>
  <unicode hex="00B6"/>
  <outline>
    <contour>
      <point x="213" y="-100" type="line"/>
      <point x="285" y="353" type="line"/>
      <point x="281" y="353" type="line" smooth="yes"/>
      <point x="164" y="353"/>
      <point x="85" y="411"/>
      <point x="85" y="515" type="curve" smooth="yes"/>
      <point x="85" y="651"/>
      <point x="188" y="715"/>
      <point x="317" y="715" type="curve" smooth="yes"/>
      <point x="536" y="715" type="line"/>
      <point x="407" y="-100" type="line"/>
      <point x="361" y="-100" type="line"/>
      <point x="484" y="677" type="line"/>
      <point x="381" y="677" type="line"/>
      <point x="258" y="-100" type="line"/>
    </contour>
  </outline>
</glyph>
<glyph name="periodcentered" format="2">
  <advance width="229"/>
  <unicode hex="00B7"/>
  <outline>
    <contour>
      <point x="123" y="281" type="curve" smooth="yes"/>
      <point x="99" y="281"/>
      <point x="80" y="300"/>
      <point x="80" y="324" type="curve" smooth="yes"/>
      <point x="80" y="347"/>
      <point x="99" y="366"/>
      <point x="122" y="366" type="curve" smooth="yes"/>
      <point x="146" y="366"/>
      <point x="165" y="347"/>
      <point x="165" y="324" type="curve" smooth="yes"/>
      <point x="165" y="300"/>
      <point x="146" y="281"/>
    </contour>
  </outline>
</glyph>
<glyph name="cedilla" format="2">
  <advance width="400"/>
  <unicode hex="00B8"/>
  <outline>
    <contour>
      <point x="143" y="-212" type="curve" smooth="yes"/>
      <point x="92" y="-212"/>
      <point x="53" y="-187"/>
      <point x="48" y="-134" type="curve"/>
      <point x="92" y="-134" type="line"/>
      <point x="94" y="-159"/>
      <point x="113" y="-176"/>
      <point x="143" y="-176" type="curve" smooth="yes"/>
      <point x="167" y="-176"/>
      <point x="193" y="-164"/>
      <point x="193" y="-129" type="curve" smooth="yes"/>
      <point x="193" y="-104"/>
      <point x="174" y="-93"/>
      <point x="151" y="-93" type="curve" smooth="yes"/>
      <point x="135" y="-93"/>
      <point x="125" y="-98"/>
      <point x="118" y="-102" type="curve"/>
      <point x="98" y="-80" type="line"/>
      <point x="154" y="0" type="line"/>
      <point x="196" y="0" type="line"/>
      <point x="153" y="-59" type="line"/>
      <point x="196" y="-50"/>
      <point x="241" y="-75"/>
      <point x="241" y="-127" type="curve" smooth="yes"/>
      <point x="241" y="-182"/>
      <point x="201" y="-212"/>
    </contour>
  </outline>
</glyph>
<glyph name="ordmasculine" format="2">
  <advance width="475"/>
  <unicode hex="00BA"/>
  <outline>
    <contour>
      <point x="258" y="302" type="curve" smooth="yes"/>
      <point x="146" y="302"/>
      <point x="77" y="380"/>
      <point x="77" y="484" type="curve" smooth="yes"/>
      <point x="77" y="616"/>
      <point x="165" y="722"/>
      <point x="294" y="722" type="curve" smooth="yes"/>
      <point x="407" y="722"/>
      <point x="474" y="642"/>
      <point x="474" y="540" type="curve" smooth="yes"/>
      <point x="474" y="404"/>
      <point x="387" y="302"/>
    </contour>
    <contour>
      <point x="260" y="344" type="curve" smooth="yes"/>
      <point x="361" y="344"/>
      <point x="421" y="429"/>
      <point x="421" y="539" type="curve" smooth="yes"/>
      <point x="421" y="619"/>
      <point x="376" y="680"/>
      <point x="291" y="680" type="curve" smooth="yes"/>
      <point x="190" y="680"/>
      <point x="129" y="593"/>
      <point x="129" y="484" type="curve" smooth="yes"/>
      <point x="129" y="404"/>
      <point x="175" y="344"/>
    </contour>
  </outline>
</glyph>
<glyph name="guillemotright" format="2">
  <advance width="448"/>
  <unicode hex="00BB"/>
  <outline>
    <contour>
      <point x="286" y="439" type="line"/>
      <point x="393" y="260" type="line"/>
      <point x="230" y="83" type="line"/>
      <point x="174" y="83" type="line"/>
      <point x="336" y="263" type="line"/>
      <point x="234" y="439" type="line"/>
    </contour>
    <contour>
      <point x="128" y="439" type="line"/>
      <point x="235" y="260" type="line"/>
      <point x="72" y="83" type="line"/>
      <point x="16" y="83" type="line"/>
      <point x="178" y="263" type="line"/>
      <point x="76" y="439" type="line"/>
    </contour>
  </outline>
</glyph>
<glyph name="onequarter" format="2">
  <advance width="673"/>
  <unicode hex="00BC"/>
  <outline>
    <contour>
      <point x="128" y="372" type="line"/>
      <point x="175" y="666" type="line"/>
      <point x="78" y="606" type="line"/>
      <point x="84" y="648" type="line"/>
      <point x="191" y="715" type="line"/>
      <point x="228" y="715" type="line"/>
      <point x="173" y="372" type="line"/>
    </contour>
    <contour>
      <point x="25" y="0" type="line"/>
      <point x="618" y="715" type="line"/>
      <point x="665" y="715" type="line"/>
      <point x="72" y="0" type="line"/>
    </contour>
    <contour>
      <point x="513" y="0" type="line"/>
      <point x="525" y="74" type="line"/>
      <point x="346" y="74" type="line"/>
      <point x="348" y="90" type="line"/>
      <point x="552" y="343" type="line"/>
      <point x="611" y="343" type="line"/>
      <point x="573" y="108" type="line"/>
      <point x="620" y="108" type="line"/>
      <point x="615" y="74" type="line"/>
      <point x="568" y="74" type="line"/>
      <point x="556" y="0" type="line"/>
    </contour>
    <contour>
      <point x="404" y="108" type="line"/>
      <point x="531" y="108" type="line"/>
      <point x="562" y="307" type="line"/>
    </contour>
  </outline>
</glyph>
<glyph name="onehalf" format="2">
  <advance width="680"/>
  <unicode hex="00BD"/>
  <outline>
    <contour>
      <point x="4" y="0" type="line"/>
      <point x="597" y="715" type="line"/>
      <point x="644" y="715" type="line"/>
      <point x="51" y="0" type="line"/>
    </contour>
    <contour>
      <point x="128" y="372" type="line"/>
      <point x="175" y="666" type="line"/>
      <point x="78" y="606" type="line"/>
      <point x="84" y="648" type="line"/>
      <point x="191" y="715" type="line"/>
      <point x="228" y="715" type="line"/>
      <point x="173" y="372" type="line"/>
    </contour>
    <contour>
      <point x="362" y="0" type="line"/>
      <point x="364" y="10" type="line"/>
      <point x="513" y="137" type="line" smooth="yes"/>
      <point x="561" y="177"/>
      <point x="594" y="207"/>
      <point x="594" y="254" type="curve" smooth="yes"/>
      <point x="594" y="289"/>
      <point x="569" y="312"/>
      <point x="534" y="312" type="curve" smooth="yes"/>
      <point x="492" y="312"/>
      <point x="461" y="287"/>
      <point x="449" y="234" type="curve"/>
      <point x="408" y="234" type="line"/>
      <point x="420" y="307"/>
      <point x="473" y="347"/>
      <point x="536" y="347" type="curve" smooth="yes"/>
      <point x="593" y="347"/>
      <point x="639" y="315"/>
      <point x="639" y="255" type="curve" smooth="yes"/>
      <point x="639" y="197"/>
      <point x="599" y="164"/>
      <point x="540" y="114" type="curve" smooth="yes"/>
      <point x="445" y="35" type="line"/>
      <point x="610" y="35" type="line"/>
      <point x="604" y="0" type="line"/>
    </contour>
  </outline>
</glyph>
<glyph name="threequarters" format="2">
  <advance width="699"/>
  <unicode hex="00BE"/>
  <outline>
    <contour>
      <point x="186" y="368" type="curve" smooth="yes"/>
      <point x="120" y="368"/>
      <point x="63" y="399"/>
      <point x="61" y="473" type="curve"/>
      <point x="103" y="473" type="line"/>
      <point x="106" y="430"/>
      <point x="135" y="402"/>
      <point x="186" y="402" type="curve" smooth="yes"/>
      <point x="229" y="402"/>
      <point x="267" y="425"/>
      <point x="267" y="474" type="curve" smooth="yes"/>
      <point x="267" y="509"/>
      <point x="244" y="534"/>
      <point x="201" y="534" type="curve" smooth="yes"/>
      <point x="177" y="534" type="line"/>
      <point x="182" y="567" type="line"/>
      <point x="210" y="567" type="line" smooth="yes"/>
      <point x="249" y="567"/>
      <point x="279" y="587"/>
      <point x="279" y="628" type="curve" smooth="yes"/>
      <point x="279" y="664"/>
      <point x="255" y="685"/>
      <point x="216" y="685" type="curve" smooth="yes"/>
      <point x="171" y="685"/>
      <point x="142" y="658"/>
      <point x="132" y="619" type="curve"/>
      <point x="92" y="619" type="line"/>
      <point x="102" y="679"/>
      <point x="152" y="719"/>
      <point x="217" y="719" type="curve" smooth="yes"/>
      <point x="272" y="719"/>
      <point x="322" y="693"/>
      <point x="322" y="631" type="curve" smooth="yes"/>
      <point x="322" y="591"/>
      <point x="297" y="562"/>
      <point x="255" y="549" type="curve"/>
      <point x="288" y="541"/>
      <point x="313" y="515"/>
      <point x="313" y="472" type="curve" smooth="yes"/>
      <point x="313" y="405"/>
      <point x="254" y="368"/>
    </contour>
    <contour>
      <point x="72" y="0" type="line"/>
      <point x="665" y="715" type="line"/>
      <point x="712" y="715" type="line"/>
      <point x="119" y="0" type="line"/>
    </contour>
    <contour>
      <point x="540" y="0" type="line"/>
      <point x="552" y="74" type="line"/>
      <point x="373" y="74" type="line"/>
      <point x="375" y="90" type="line"/>
      <point x="579" y="343" type="line"/>
      <point x="638" y="343" type="line"/>
      <point x="600" y="108" type="line"/>
      <point x="647" y="108" type="line"/>
      <point x="642" y="74" type="line"/>
      <point x="595" y="74" type="line"/>
      <point x="583" y="0" type="line"/>
    </contour>
    <contour>
      <point x="431" y="108" type="line"/>
      <point x="558" y="108" type="line"/>
      <point x="589" y="307" type="line"/>
    </contour>
  </outline>
</glyph>
<glyph name="questiondown" format="2">
  <advance width="477"/>
  <unicode hex="00BF"/>
  <outline>
    <contour>
      <point x="311" y="419" type="line"/>
      <point x="302" y="358" type="line" smooth="yes"/>
      <point x="288" y="269"/>
      <point x="234" y="230"/>
      <point x="170" y="180" type="curve" smooth="yes"/>
      <point x="112" y="136"/>
      <point x="65" y="102"/>
      <point x="65" y="25" type="curve" smooth="yes"/>
      <point x="65" y="-45"/>
      <point x="120" y="-80"/>
      <point x="191" y="-80" type="curve" smooth="yes"/>
      <point x="275" y="-80"/>
      <point x="338" y="-29"/>
      <point x="356" y="70" type="curve"/>
      <point x="407" y="70" type="line"/>
      <point x="389" y="-55"/>
      <point x="299" y="-125"/>
      <point x="186" y="-125" type="curve" smooth="yes"/>
      <point x="80" y="-125"/>
      <point x="11" y="-66"/>
      <point x="11" y="25" type="curve" smooth="yes"/>
      <point x="11" y="125"/>
      <point x="76" y="164"/>
      <point x="143" y="216" type="curve" smooth="yes"/>
      <point x="202" y="260"/>
      <point x="243" y="294"/>
      <point x="254" y="363" type="curve" smooth="yes"/>
      <point x="263" y="419" type="line"/>
    </contour>
    <contour>
      <point x="307" y="603" type="curve" smooth="yes"/>
      <point x="331" y="603"/>
      <point x="349" y="584"/>
      <point x="349" y="561" type="curve" smooth="yes"/>
      <point x="349" y="537"/>
      <point x="331" y="518"/>
      <point x="308" y="518" type="curve" smooth="yes"/>
      <point x="284" y="518"/>
      <point x="265" y="537"/>
      <point x="265" y="561" type="curve" smooth="yes"/>
      <point x="265" y="584"/>
      <point x="284" y="603"/>
    </contour>
  </outline>
</glyph>
<glyph name="Aacute" format="2">
  <advance width="641"/>
  <unicode hex="00C1"/>
  <outline>
    <contour>
      <point x="518" y="0" type="line"/>
      <point x="473" y="219" type="line"/>
      <point x="151" y="219" type="line"/>
      <point x="39" y="0" type="line"/>
      <point x="-15" y="0" type="line"/>
      <point x="353" y="715" type="line"/>
      <point x="427" y="715" type="line"/>
      <point x="572" y="0" type="line"/>
    </contour>
    <contour>
      <point x="382" y="670" type="line"/>
      <point x="174" y="264" type="line"/>
      <point x="464" y="264" type="line"/>
    </contour>
    <contour>
      <point x="368" y="771" type="line"/>
      <point x="442" y="893" type="line"/>
      <point x="510" y="893" type="line"/>
      <point x="413" y="771" type="line"/>
    </contour>
  </outline>
</glyph>
<glyph name="Acircumflex" format="2">
  <advance width="641"/>
  <unicode hex="00C2"/>
  <outline>
    <contour>
      <point x="518" y="0" type="line"/>
      <point x="473" y="219" type="line"/>
      <point x="151" y="219" type="line"/>
      <point x="39" y="0" type="line"/>
      <point x="-15" y="0" type="line"/>
      <point x="353" y="715" type="line"/>
      <point x="427" y="715" type="line"/>
      <point x="572" y="0" type="line"/>
    </contour>
    <contour>
      <point x="382" y="670" type="line"/>
      <point x="174" y="264" type="line"/>
      <point x="464" y="264" type="line"/>
    </contour>
    <contour>
      <point x="255" y="771" type="line"/>
      <point x="380" y="893" type="line"/>
      <point x="430" y="893" type="line"/>
      <point x="523" y="771" type="line"/>
      <point x="483" y="771" type="line"/>
      <point x="401" y="849" type="line"/>
      <point x="298" y="771" type="line"/>
    </contour>
  </outline>
</glyph>
<glyph name="Atilde" format="2">
  <advance width="641"/>
  <unicode hex="00C3"/>
  <outline>
    <contour>
      <point x="518" y="0" type="line"/>
      <point x="473" y="219" type="line"/>
      <point x="151" y="219" type="line"/>
      <point x="39" y="0" type="line"/>
      <point x="-15" y="0" type="line"/>
      <point x="353" y="715" type="line"/>
      <point x="427" y="715" type="line"/>
      <point x="572" y="0" type="line"/>
    </contour>
    <contour>
      <point x="382" y="670" type="line"/>
      <point x="174" y="264" type="line"/>
      <point x="464" y="264" type="line"/>
    </contour>
    <contour>
      <point x="460" y="774" type="curve" smooth="yes"/>
      <point x="412" y="774"/>
      <point x="373" y="827"/>
      <point x="338" y="827" type="curve" smooth="yes"/>
      <point x="316" y="827"/>
      <point x="294" y="808"/>
      <point x="286" y="773" type="curve"/>
      <point x="246" y="773" type="line"/>
      <point x="258" y="838"/>
      <point x="294" y="872"/>
      <point x="339" y="872" type="curve" smooth="yes"/>
      <point x="386" y="872"/>
      <point x="425" y="820"/>
      <point x="461" y="820" type="curve" smooth="yes"/>
      <point x="482" y="820"/>
      <point x="504" y="838"/>
      <point x="512" y="873" type="curve"/>
      <point x="552" y="873" type="line"/>
      <point x="539" y="809"/>
      <point x="504" y="774"/>
    </contour>
  </outline>
</glyph>
<glyph name="Adieresis" format="2">
  <advance width="641"/>
  <unicode hex="00C4"/>
  <outline>
    <contour>
      <point x="518" y="0" type="line"/>
      <point x="473" y="219" type="line"/>
      <point x="151" y="219" type="line"/>
      <point x="39" y="0" type="line"/>
      <point x="-15" y="0" type="line"/>
      <point x="353" y="715" type="line"/>
      <point x="427" y="715" type="line"/>
      <point x="572" y="0" type="line"/>
    </contour>
    <contour>
      <point x="382" y="670" type="line"/>
      <point x="174" y="264" type="line"/>
      <point x="464" y="264" type="line"/>
    </contour>
    <contour>
      <point x="307" y="788" type="curve" smooth="yes"/>
      <point x="286" y="788"/>
      <point x="270" y="804"/>
      <point x="270" y="824" type="curve" smooth="yes"/>
      <point x="270" y="844"/>
      <point x="287" y="861"/>
      <point x="307" y="861" type="curve" smooth="yes"/>
      <point x="328" y="861"/>
      <point x="343" y="845"/>
      <point x="343" y="825" type="curve" smooth="yes"/>
      <point x="343" y="805"/>
      <point x="327" y="788"/>
    </contour>
    <contour>
      <point x="487" y="788" type="curve" smooth="yes"/>
      <point x="467" y="788"/>
      <point x="451" y="804"/>
      <point x="451" y="824" type="curve" smooth="yes"/>
      <point x="451" y="844"/>
      <point x="467" y="861"/>
      <point x="488" y="861" type="curve" smooth="yes"/>
      <point x="508" y="861"/>
      <point x="524" y="845"/>
      <point x="524" y="825" type="curve" smooth="yes"/>
      <point x="524" y="805"/>
      <point x="507" y="788"/>
    </contour>
  </outline>
</glyph>
<glyph name="Aring" format="2">
  <advance width="641"/>
  <unicode hex="00C5"/>
  <outline>
    <contour>
      <point x="518" y="0" type="line"/>
      <point x="473" y="219" type="line"/>
      <point x="151" y="219" type="line"/>
      <point x="39" y="0" type="line"/>
      <point x="-15" y="0" type="line"/>
      <point x="353" y="715" type="line"/>
      <point x="427" y="715" type="line"/>
      <point x="572" y="0" type="line"/>
    </contour>
    <contour>
      <point x="382" y="670" type="line"/>
      <point x="174" y="264" type="line"/>
      <point x="464" y="264" type="line"/>
    </contour>
    <contour>
      <point x="397" y="754" type="curve" smooth="yes"/>
      <point x="342" y="754"/>
      <point x="300" y="797"/>
      <point x="300" y="848" type="curve" smooth="yes"/>
      <point x="300" y="902"/>
      <point x="346" y="945"/>
      <point x="400" y="945" type="curve" smooth="yes"/>
      <point x="455" y="945"/>
      <point x="496" y="904"/>
      <point x="496" y="852" type="curve" smooth="yes"/>
      <point x="496" y="797"/>
      <point x="452" y="754"/>
    </contour>
    <contour>
      <point x="397" y="786" type="curve" smooth="yes"/>
      <point x="433" y="786"/>
      <point x="459" y="813"/>
      <point x="459" y="852" type="curve" smooth="yes"/>
      <point x="459" y="888"/>
      <point x="436" y="914"/>
      <point x="400" y="914" type="curve" smooth="yes"/>
      <point x="365" y="914"/>
      <point x="337" y="886"/>
      <point x="337" y="848" type="curve" smooth="yes"/>
      <point x="337" y="813"/>
      <point x="361" y="786"/>
    </contour>
  </outline>
</glyph>
<glyph name="AE" format="2">
  <advance width="946"/>
  <unicode hex="00C6"/>
  <outline>
    <contour>
      <point x="-13" y="0" type="line"/>
      <point x="453" y="715" type="line"/>
      <point x="949" y="715" type="line"/>
      <point x="941" y="669" type="line"/>
      <point x="591" y="669" type="line"/>
      <point x="547" y="390" type="line"/>
      <point x="835" y="390" type="line"/>
      <point x="828" y="344" type="line"/>
      <point x="540" y="344" type="line"/>
      <point x="493" y="46" type="line"/>
      <point x="866" y="46" type="line"/>
      <point x="859" y="0" type="line"/>
      <point x="430" y="0" type="line"/>
      <point x="464" y="220" type="line"/>
      <point x="188" y="220" type="line"/>
      <point x="46" y="0" type="line"/>
    </contour>
    <contour>
      <point x="480" y="669" type="line"/>
      <point x="217" y="264" type="line"/>
      <point x="471" y="264" type="line"/>
      <point x="535" y="669" type="line"/>
    </contour>
  </outline>
</glyph>
<glyph name="Ccedilla" format="2">
  <advance width="725"/>
  <unicode hex="00C7"/>
  <outline>
    <contour>
      <point x="298" y="-212" type="curve" smooth="yes"/>
      <point x="247" y="-212"/>
      <point x="208" y="-187"/>
      <point x="203" y="-134" type="curve"/>
      <point x="247" y="-134" type="line"/>
      <point x="249" y="-159"/>
      <point x="268" y="-176"/>
      <point x="298" y="-176" type="curve" smooth="yes"/>
      <point x="322" y="-176"/>
      <point x="348" y="-164"/>
      <point x="348" y="-129" type="curve" smooth="yes"/>
      <point x="348" y="-104"/>
      <point x="329" y="-93"/>
      <point x="306" y="-93" type="curve" smooth="yes"/>
      <point x="290" y="-93"/>
      <point x="280" y="-98"/>
      <point x="273" y="-102" type="curve"/>
      <point x="253" y="-80" type="line"/>
      <point x="307" y="-2" type="line"/>
      <point x="154" y="23"/>
      <point x="62" y="138"/>
      <point x="62" y="309" type="curve" smooth="yes"/>
      <point x="62" y="535"/>
      <point x="213" y="724"/>
      <point x="440" y="724" type="curve" smooth="yes"/>
      <point x="577" y="724"/>
      <point x="691" y="646"/>
      <point x="705" y="500" type="curve"/>
      <point x="653" y="500" type="line"/>
      <point x="633" y="615"/>
      <point x="556" y="679"/>
      <point x="438" y="679" type="curve" smooth="yes"/>
      <point x="239" y="679"/>
      <point x="120" y="512"/>
      <point x="120" y="309" type="curve" smooth="yes"/>
      <point x="120" y="139"/>
      <point x="212" y="38"/>
      <point x="377" y="38" type="curve" smooth="yes"/>
      <point x="502" y="38"/>
      <point x="594" y="110"/>
      <point x="633" y="230" type="curve"/>
      <point x="686" y="230" type="line"/>
      <point x="645" y="80"/>
      <point x="524" y="-8"/>
      <point x="377" y="-8" type="curve" smooth="yes"/>
      <point x="366" y="-8"/>
      <point x="361" y="-8"/>
      <point x="346" y="-7" type="curve"/>
      <point x="308" y="-59" type="line"/>
      <point x="351" y="-50"/>
      <point x="396" y="-75"/>
      <point x="396" y="-127" type="curve" smooth="yes"/>
      <point x="396" y="-182"/>
      <point x="356" y="-212"/>
    </contour>
  </outline>
</glyph>
<glyph name="Eacute" format="2">
  <advance width="569"/>
  <unicode hex="00C9"/>
  <outline>
    <contour>
      <point x="339" y="771" type="line"/>
      <point x="413" y="893" type="line"/>
      <point x="481" y="893" type="line"/>
      <point x="384" y="771" type="line"/>
    </contour>
    <contour>
      <point x="50" y="0" type="line"/>
      <point x="163" y="715" type="line"/>
      <point x="569" y="715" type="line"/>
      <point x="561" y="669" type="line"/>
      <point x="211" y="669" type="line"/>
      <point x="167" y="390" type="line"/>
      <point x="455" y="390" type="line"/>
      <point x="448" y="344" type="line"/>
      <point x="160" y="344" type="line"/>
      <point x="113" y="46" type="line"/>
      <point x="487" y="46" type="line"/>
      <point x="479" y="0" type="line"/>
    </contour>
  </outline>
</glyph>
<glyph name="Ecircumflex" format="2">
  <advance width="569"/>
  <unicode hex="00CA"/>
  <outline>
    <contour>
      <point x="231" y="771" type="line"/>
      <point x="356" y="893" type="line"/>
      <point x="406" y="893" type="line"/>
      <point x="499" y="771" type="line"/>
      <point x="459" y="771" type="line"/>
      <point x="377" y="849" type="line"/>
      <point x="274" y="771" type="line"/>
    </contour>
    <contour>
      <point x="50" y="0" type="line"/>
      <point x="163" y="715" type="line"/>
      <point x="569" y="715" type="line"/>
      <point x="561" y="669" type="line"/>
      <point x="211" y="669" type="line"/>
      <point x="167" y="390" type="line"/>
      <point x="455" y="390" type="line"/>
      <point x="448" y="344" type="line"/>
      <point x="160" y="344" type="line"/>
      <point x="113" y="46" type="line"/>
      <point x="487" y="46" type="line"/>
      <point x="479" y="0" type="line"/>
    </contour>
  </outline>
</glyph>
<glyph name="Edieresis" format="2">
  <advance width="569"/>
  <unicode hex="00CB"/>
  <outline>
    <contour>
      <point x="50" y="0" type="line"/>
      <point x="163" y="715" type="line"/>
      <point x="569" y="715" type="line"/>
      <point x="561" y="669" type="line"/>
      <point x="211" y="669" type="line"/>
      <point x="167" y="390" type="line"/>
      <point x="455" y="390" type="line"/>
      <point x="448" y="344" type="line"/>
      <point x="160" y="344" type="line"/>
      <point x="113" y="46" type="line"/>
      <point x="487" y="46" type="line"/>
      <point x="479" y="0" type="line"/>
    </contour>
    <contour>
      <point x="284" y="788" type="curve" smooth="yes"/>
      <point x="263" y="788"/>
      <point x="247" y="804"/>
      <point x="247" y="824" type="curve" smooth="yes"/>
      <point x="247" y="844"/>
      <point x="264" y="861"/>
      <point x="284" y="861" type="curve" smooth="yes"/>
      <point x="305" y="861"/>
      <point x="320" y="845"/>
      <point x="320" y="825" type="curve" smooth="yes"/>
      <point x="320" y="805"/>
      <point x="304" y="788"/>
    </contour>
    <contour>
      <point x="464" y="788" type="curve" smooth="yes"/>
      <point x="444" y="788"/>
      <point x="428" y="804"/>
      <point x="428" y="824" type="curve" smooth="yes"/>
      <point x="428" y="844"/>
      <point x="444" y="861"/>
      <point x="465" y="861" type="curve" smooth="yes"/>
      <point x="485" y="861"/>
      <point x="501" y="845"/>
      <point x="501" y="825" type="curve" smooth="yes"/>
      <point x="501" y="805"/>
      <point x="484" y="788"/>
    </contour>
  </outline>
</glyph>
<glyph name="Igrave" format="2">
  <advance width="251"/>
  <unicode hex="00CC"/>
  <outline>
    <contour>
      <point x="55" y="0" type="line"/>
      <point x="168" y="715" type="line"/>
      <point x="224" y="715" type="line"/>
      <point x="111" y="0" type="line"/>
    </contour>
    <contour>
      <point x="190" y="771" type="line"/>
      <point x="117" y="893" type="line"/>
      <point x="182" y="893" type="line"/>
      <point x="231" y="771" type="line"/>
    </contour>
  </outline>
</glyph>
<glyph name="Icircumflex" format="2">
  <advance width="251"/>
  <unicode hex="00CE"/>
  <outline>
    <contour>
      <point x="55" y="0" type="line"/>
      <point x="168" y="715" type="line"/>
      <point x="224" y="715" type="line"/>
      <point x="111" y="0" type="line"/>
    </contour>
    <contour>
      <point x="68" y="771" type="line"/>
      <point x="193" y="893" type="line"/>
      <point x="243" y="893" type="line"/>
      <point x="336" y="771" type="line"/>
      <point x="296" y="771" type="line"/>
      <point x="214" y="849" type="line"/>
      <point x="111" y="771" type="line"/>
    </contour>
  </outline>
</glyph>
<glyph name="Idieresis" format="2">
  <advance width="251"/>
  <unicode hex="00CF"/>
  <outline>
    <contour>
      <point x="55" y="0" type="line"/>
      <point x="168" y="715" type="line"/>
      <point x="224" y="715" type="line"/>
      <point x="111" y="0" type="line"/>
    </contour>
    <contour>
      <point x="123" y="788" type="curve" smooth="yes"/>
      <point x="102" y="788"/>
      <point x="86" y="804"/>
      <point x="86" y="824" type="curve" smooth="yes"/>
      <point x="86" y="844"/>
      <point x="103" y="861"/>
      <point x="123" y="861" type="curve" smooth="yes"/>
      <point x="144" y="861"/>
      <point x="159" y="845"/>
      <point x="159" y="825" type="curve" smooth="yes"/>
      <point x="159" y="805"/>
      <point x="143" y="788"/>
    </contour>
    <contour>
      <point x="303" y="788" type="curve" smooth="yes"/>
      <point x="283" y="788"/>
      <point x="267" y="804"/>
      <point x="267" y="824" type="curve" smooth="yes"/>
      <point x="267" y="844"/>
      <point x="283" y="861"/>
      <point x="304" y="861" type="curve" smooth="yes"/>
      <point x="324" y="861"/>
      <point x="340" y="845"/>
      <point x="340" y="825" type="curve" smooth="yes"/>
      <point x="340" y="805"/>
      <point x="323" y="788"/>
    </contour>
  </outline>
</glyph>
<glyph name="Ntilde" format="2">
  <advance width="713"/>
  <unicode hex="00D1"/>
  <outline>
    <contour>
      <point x="510" y="774" type="curve" smooth="yes"/>
      <point x="462" y="774"/>
      <point x="423" y="827"/>
      <point x="388" y="827" type="curve" smooth="yes"/>
      <point x="366" y="827"/>
      <point x="344" y="808"/>
      <point x="336" y="773" type="curve"/>
      <point x="296" y="773" type="line"/>
      <point x="308" y="838"/>
      <point x="344" y="872"/>
      <point x="389" y="872" type="curve" smooth="yes"/>
      <point x="436" y="872"/>
      <point x="475" y="820"/>
      <point x="511" y="820" type="curve" smooth="yes"/>
      <point x="532" y="820"/>
      <point x="554" y="838"/>
      <point x="562" y="873" type="curve"/>
      <point x="602" y="873" type="line"/>
      <point x="589" y="809"/>
      <point x="554" y="774"/>
    </contour>
    <contour>
      <point x="50" y="0" type="line"/>
      <point x="163" y="715" type="line"/>
      <point x="237" y="715" type="line"/>
      <point x="537" y="77" type="line"/>
      <point x="639" y="715" type="line"/>
      <point x="692" y="715" type="line"/>
      <point x="579" y="0" type="line"/>
      <point x="515" y="0" type="line"/>
      <point x="207" y="653" type="line"/>
      <point x="104" y="0" type="line"/>
    </contour>
  </outline>
</glyph>
<glyph name="Otilde" format="2">
  <advance width="797"/>
  <unicode hex="00D5"/>
  <outline>
    <contour>
      <point x="524" y="774" type="curve" smooth="yes"/>
      <point x="476" y="774"/>
      <point x="437" y="827"/>
      <point x="402" y="827" type="curve" smooth="yes"/>
      <point x="380" y="827"/>
      <point x="358" y="808"/>
      <point x="350" y="773" type="curve"/>
      <point x="310" y="773" type="line"/>
      <point x="322" y="838"/>
      <point x="358" y="872"/>
      <point x="403" y="872" type="curve" smooth="yes"/>
      <point x="450" y="872"/>
      <point x="489" y="820"/>
      <point x="525" y="820" type="curve" smooth="yes"/>
      <point x="546" y="820"/>
      <point x="568" y="838"/>
      <point x="576" y="873" type="curve"/>
      <point x="616" y="873" type="line"/>
      <point x="603" y="809"/>
      <point x="568" y="774"/>
    </contour>
    <contour>
      <point x="763" y="396" type="curve" smooth="yes"/>
      <point x="763" y="174"/>
      <point x="605" y="-8"/>
      <point x="388" y="-8" type="curve" smooth="yes"/>
      <point x="188" y="-8"/>
      <point x="62" y="133"/>
      <point x="62" y="321" type="curve" smooth="yes"/>
      <point x="62" y="538"/>
      <point x="222" y="723"/>
      <point x="442" y="723" type="curve" smooth="yes"/>
      <point x="641" y="723"/>
      <point x="763" y="577"/>
    </contour>
    <contour>
      <point x="706" y="396" type="curve" smooth="yes"/>
      <point x="706" y="549"/>
      <point x="610" y="677"/>
      <point x="441" y="677" type="curve" smooth="yes"/>
      <point x="247" y="677"/>
      <point x="121" y="513"/>
      <point x="120" y="321" type="curve" smooth="yes"/>
      <point x="118" y="156"/>
      <point x="224" y="39"/>
      <point x="389" y="39" type="curve" smooth="yes"/>
      <point x="578" y="39"/>
      <point x="706" y="199"/>
    </contour>
  </outline>
</glyph>
<glyph name="multiply" format="2">
  <advance width="483"/>
  <unicode hex="00D7"/>
  <outline>
    <contour>
      <point x="64" y="143" type="line"/>
      <point x="36" y="175" type="line"/>
      <point x="216" y="336" type="line"/>
      <point x="77" y="496" type="line"/>
      <point x="110" y="527" type="line"/>
      <point x="250" y="366" type="line"/>
      <point x="430" y="527" type="line"/>
      <point x="459" y="494" type="line"/>
      <point x="278" y="333" type="line"/>
      <point x="418" y="173" type="line"/>
      <point x="384" y="143" type="line"/>
      <point x="244" y="303" type="line"/>
    </contour>
  </outline>
</glyph>
<glyph name="Oslash" format="2">
  <advance width="797"/>
  <unicode hex="00D8"/>
  <outline>
    <contour>
      <point x="62" y="-24" type="line"/>
      <point x="33" y="5" type="line"/>
      <point x="132" y="107" type="line"/>
      <point x="87" y="163"/>
      <point x="62" y="237"/>
      <point x="62" y="321" type="curve" smooth="yes"/>
      <point x="62" y="538"/>
      <point x="222" y="723"/>
      <point x="442" y="723" type="curve" smooth="yes"/>
      <point x="529" y="723"/>
      <point x="601" y="695"/>
      <point x="655" y="648" type="curve"/>
      <point x="743" y="739" type="line"/>
      <point x="771" y="709" type="line"/>
      <point x="684" y="619" type="line"/>
      <point x="735" y="560"/>
      <point x="763" y="482"/>
      <point x="763" y="396" type="curve" smooth="yes"/>
      <point x="763" y="174"/>
      <point x="605" y="-8"/>
      <point x="388" y="-8" type="curve" smooth="yes"/>
      <point x="293" y="-8"/>
      <point x="215" y="23"/>
      <point x="159" y="76" type="curve"/>
    </contour>
    <contour>
      <point x="706" y="396" type="curve" smooth="yes"/>
      <point x="706" y="469"/>
      <point x="686" y="533"/>
      <point x="649" y="582" type="curve"/>
      <point x="195" y="113" type="line"/>
      <point x="241" y="66"/>
      <point x="308" y="39"/>
      <point x="389" y="39" type="curve" smooth="yes"/>
      <point x="578" y="39"/>
      <point x="706" y="199"/>
    </contour>
    <contour>
      <point x="120" y="321" type="curve" smooth="yes"/>
      <point x="119" y="251"/>
      <point x="136" y="191"/>
      <point x="168" y="144" type="curve"/>
      <point x="621" y="613" type="line"/>
      <point x="576" y="653"/>
      <point x="516" y="677"/>
      <point x="441" y="677" type="curve" smooth="yes"/>
      <point x="247" y="677"/>
      <point x="121" y="513"/>
    </contour>
  </outline>
</glyph>
<glyph name="Ugrave" format="2">
  <advance width="682"/>
  <unicode hex="00D9"/>
  <outline>
    <contour>
      <point x="400" y="771" type="line"/>
      <point x="327" y="893" type="line"/>
      <point x="392" y="893" type="line"/>
      <point x="441" y="771" type="line"/>
    </contour>
    <contour>
      <point x="320" y="-7" type="curve" smooth="yes"/>
      <point x="140" y="-7"/>
      <point x="54" y="93"/>
      <point x="82" y="273" type="curve" smooth="yes"/>
      <point x="153" y="715" type="line"/>
      <point x="208" y="715" type="line"/>
      <point x="138" y="273" type="line" smooth="yes"/>
      <point x="114" y="116"/>
      <point x="175" y="40"/>
      <point x="323" y="40" type="curve" smooth="yes"/>
      <point x="450" y="40"/>
      <point x="519" y="104"/>
      <point x="542" y="250" type="curve" smooth="yes"/>
      <point x="616" y="715" type="line"/>
      <point x="672" y="715" type="line"/>
      <point x="597" y="243" type="line" smooth="yes"/>
      <point x="572" y="85"/>
      <point x="488" y="-7"/>
    </contour>
  </outline>
</glyph>
<glyph name="Ucircumflex" format="2">
  <advance width="682"/>
  <unicode hex="00DB"/>
  <outline>
    <contour>
      <point x="279" y="771" type="line"/>
      <point x="404" y="893" type="line"/>
      <point x="454" y="893" type="line"/>
      <point x="547" y="771" type="line"/>
      <point x="507" y="771" type="line"/>
      <point x="425" y="849" type="line"/>
      <point x="322" y="771" type="line"/>
    </contour>
    <contour>
      <point x="320" y="-7" type="curve" smooth="yes"/>
      <point x="140" y="-7"/>
      <point x="54" y="93"/>
      <point x="82" y="273" type="curve" smooth="yes"/>
      <point x="153" y="715" type="line"/>
      <point x="208" y="715" type="line"/>
      <point x="138" y="273" type="line" smooth="yes"/>
      <point x="114" y="116"/>
      <point x="175" y="40"/>
      <point x="323" y="40" type="curve" smooth="yes"/>
      <point x="450" y="40"/>
      <point x="519" y="104"/>
      <point x="542" y="250" type="curve" smooth="yes"/>
      <point x="616" y="715" type="line"/>
      <point x="672" y="715" type="line"/>
      <point x="597" y="243" type="line" smooth="yes"/>
      <point x="572" y="85"/>
      <point x="488" y="-7"/>
    </contour>
  </outline>
</glyph>
<glyph name="Udieresis" format="2">
  <advance width="682"/>
  <unicode hex="00DC"/>
  <outline>
    <contour>
      <point x="320" y="-7" type="curve" smooth="yes"/>
      <point x="140" y="-7"/>
      <point x="54" y="93"/>
      <point x="82" y="273" type="curve" smooth="yes"/>
      <point x="153" y="715" type="line"/>
      <point x="208" y="715" type="line"/>
      <point x="138" y="273" type="line" smooth="yes"/>
      <point x="114" y="116"/>
      <point x="175" y="40"/>
      <point x="323" y="40" type="curve" smooth="yes"/>
      <point x="450" y="40"/>
      <point x="519" y="104"/>
      <point x="542" y="250" type="curve" smooth="yes"/>
      <point x="616" y="715" type="line"/>
      <point x="672" y="715" type="line"/>
      <point x="597" y="243" type="line" smooth="yes"/>
      <point x="572" y="85"/>
      <point x="488" y="-7"/>
    </contour>
    <contour>
      <point x="332" y="788" type="curve" smooth="yes"/>
      <point x="311" y="788"/>
      <point x="295" y="804"/>
      <point x="295" y="824" type="curve" smooth="yes"/>
      <point x="295" y="844"/>
      <point x="312" y="861"/>
      <point x="332" y="861" type="curve" smooth="yes"/>
      <point x="353" y="861"/>
      <point x="368" y="845"/>
      <point x="368" y="825" type="curve" smooth="yes"/>
      <point x="368" y="805"/>
      <point x="352" y="788"/>
    </contour>
    <contour>
      <point x="512" y="788" type="curve" smooth="yes"/>
      <point x="492" y="788"/>
      <point x="476" y="804"/>
      <point x="476" y="824" type="curve" smooth="yes"/>
      <point x="476" y="844"/>
      <point x="492" y="861"/>
      <point x="513" y="861" type="curve" smooth="yes"/>
      <point x="533" y="861"/>
      <point x="549" y="845"/>
      <point x="549" y="825" type="curve" smooth="yes"/>
      <point x="549" y="805"/>
      <point x="532" y="788"/>
    </contour>
  </outline>
</glyph>
<glyph name="Yacute" format="2">
  <advance width="575"/>
  <unicode hex="00DD"/>
  <outline>
    <contour>
      <point x="222" y="0" type="line"/>
      <point x="272" y="318" type="line"/>
      <point x="88" y="715" type="line"/>
      <point x="147" y="715" type="line"/>
      <point x="308" y="364" type="line"/>
      <point x="563" y="715" type="line"/>
      <point x="621" y="715" type="line"/>
      <point x="327" y="314" type="line"/>
      <point x="278" y="0" type="line"/>
    </contour>
    <contour>
      <point x="330" y="771" type="line"/>
      <point x="404" y="893" type="line"/>
      <point x="472" y="893" type="line"/>
      <point x="375" y="771" type="line"/>
    </contour>
  </outline>
</glyph>
<glyph name="Thorn" format="2">
  <advance width="568"/>
  <unicode hex="00DE"/>
  <outline>
    <contour>
      <point x="219" y="715" type="line"/>
      <point x="196" y="571" type="line"/>
      <point x="323" y="571" type="line" smooth="yes"/>
      <point x="454" y="571"/>
      <point x="544" y="512"/>
      <point x="544" y="393" type="curve" smooth="yes"/>
      <point x="544" y="232"/>
      <point x="426" y="172"/>
      <point x="284" y="172" type="curve" smooth="yes"/>
      <point x="133" y="172" type="line"/>
      <point x="106" y="0" type="line"/>
      <point x="50" y="0" type="line"/>
      <point x="163" y="715" type="line"/>
    </contour>
    <contour>
      <point x="318" y="525" type="curve" smooth="yes"/>
      <point x="189" y="525" type="line"/>
      <point x="140" y="217" type="line"/>
      <point x="287" y="217" type="line" smooth="yes"/>
      <point x="413" y="217"/>
      <point x="488" y="270"/>
      <point x="488" y="393" type="curve" smooth="yes"/>
      <point x="489" y="486"/>
      <point x="426" y="525"/>
    </contour>
  </outline>
</glyph>
<glyph name="germandbls" format="2">
  <advance width="569"/>
  <unicode hex="00DF"/>
  <outline>
    <contour>
      <point x="295" y="-7" type="curve" smooth="yes"/>
      <point x="247" y="-7"/>
      <point x="212" y="3"/>
      <point x="185" y="17" type="curve"/>
      <point x="192" y="61" type="line"/>
      <point x="221" y="46"/>
      <point x="252" y="37"/>
      <point x="293" y="37" type="curve" smooth="yes"/>
      <point x="399" y="37"/>
      <point x="465" y="114"/>
      <point x="465" y="229" type="curve" smooth="yes"/>
      <point x="465" y="337"/>
      <point x="391" y="414"/>
      <point x="278" y="416" type="curve"/>
      <point x="286" y="461" type="line"/>
      <point x="386" y="463"/>
      <point x="469" y="511"/>
      <point x="469" y="614" type="curve" smooth="yes"/>
      <point x="469" y="691"/>
      <point x="416" y="731"/>
      <point x="343" y="732" type="curve" smooth="yes"/>
      <point x="255" y="732"/>
      <point x="199" y="673"/>
      <point x="185" y="580" type="curve" smooth="yes"/>
      <point x="93" y="0" type="line"/>
      <point x="40" y="0" type="line"/>
      <point x="132" y="583" type="line" smooth="yes"/>
      <point x="150" y="703"/>
      <point x="235" y="775"/>
      <point x="344" y="775" type="curve" smooth="yes"/>
      <point x="437" y="775"/>
      <point x="520" y="719"/>
      <point x="520" y="614" type="curve" smooth="yes"/>
      <point x="520" y="521"/>
      <point x="453" y="458"/>
      <point x="364" y="438" type="curve"/>
      <point x="452" y="413"/>
      <point x="520" y="336"/>
      <point x="520" y="227" type="curve" smooth="yes"/>
      <point x="520" y="83"/>
      <point x="431" y="-7"/>
    </contour>
  </outline>
</glyph>
<glyph name="aacute" format="2">
  <advance width="527"/>
  <unicode hex="00E1"/>
  <outline>
    <contour>
      <point x="201" y="-8" type="curve" smooth="yes"/>
      <point x="88" y="-8"/>
      <point x="30" y="53"/>
      <point x="30" y="137" type="curve" smooth="yes"/>
      <point x="30" y="262"/>
      <point x="141" y="300"/>
      <point x="268" y="300" type="curve" smooth="yes"/>
      <point x="403" y="300" type="line"/>
      <point x="409" y="342" type="line" smooth="yes"/>
      <point x="424" y="436"/>
      <point x="390" y="486"/>
      <point x="288" y="486" type="curve" smooth="yes"/>
      <point x="213" y="486"/>
      <point x="158" y="455"/>
      <point x="137" y="375" type="curve"/>
      <point x="84" y="375" type="line"/>
      <point x="110" y="490"/>
      <point x="204" y="531"/>
      <point x="290" y="531" type="curve" smooth="yes"/>
      <point x="415" y="531"/>
      <point x="482" y="466"/>
      <point x="462" y="338" type="curve" smooth="yes"/>
      <point x="432" y="150" type="line" smooth="yes"/>
      <point x="421" y="80"/>
      <point x="419" y="37"/>
      <point x="421" y="0" type="curve"/>
      <point x="370" y="0" type="line"/>
      <point x="369" y="25"/>
      <point x="370" y="59"/>
      <point x="373" y="86" type="curve"/>
      <point x="340" y="32"/>
      <point x="278" y="-8"/>
    </contour>
    <contour>
      <point x="207" y="35" type="curve" smooth="yes"/>
      <point x="295" y="35"/>
      <point x="369" y="86"/>
      <point x="382" y="173" type="curve" smooth="yes"/>
      <point x="396" y="259" type="line"/>
      <point x="269" y="259" type="line" smooth="yes"/>
      <point x="159" y="259"/>
      <point x="83" y="235"/>
      <point x="83" y="137" type="curve" smooth="yes"/>
      <point x="83" y="80"/>
      <point x="121" y="35"/>
    </contour>
    <contour>
      <point x="275" y="605" type="line"/>
      <point x="363" y="752" type="line"/>
      <point x="431" y="752" type="line"/>
      <point x="319" y="605" type="line"/>
    </contour>
  </outline>
</glyph>
<glyph name="aring" format="2">
  <advance width="527"/>
  <unicode hex="00E5"/>
  <outline>
    <contour>
      <point x="201" y="-8" type="curve" smooth="yes"/>
      <point x="88" y="-8"/>
      <point x="30" y="53"/>
      <point x="30" y="137" type="curve" smooth="yes"/>
      <point x="30" y="262"/>
      <point x="141" y="300"/>
      <point x="268" y="300" type="curve" smooth="yes"/>
      <point x="403" y="300" type="line"/>
      <point x="409" y="342" type="line" smooth="yes"/>
      <point x="424" y="436"/>
      <point x="390" y="486"/>
      <point x="288" y="486" type="curve" smooth="yes"/>
      <point x="213" y="486"/>
      <point x="158" y="455"/>
      <point x="137" y="375" type="curve"/>
      <point x="84" y="375" type="line"/>
      <point x="110" y="490"/>
      <point x="204" y="531"/>
      <point x="290" y="531" type="curve" smooth="yes"/>
      <point x="415" y="531"/>
      <point x="482" y="466"/>
      <point x="462" y="338" type="curve" smooth="yes"/>
      <point x="432" y="150" type="line" smooth="yes"/>
      <point x="421" y="80"/>
      <point x="419" y="37"/>
      <point x="421" y="0" type="curve"/>
      <point x="370" y="0" type="line"/>
      <point x="369" y="25"/>
      <point x="370" y="59"/>
      <point x="373" y="86" type="curve"/>
      <point x="340" y="32"/>
      <point x="278" y="-8"/>
    </contour>
    <contour>
      <point x="207" y="35" type="curve" smooth="yes"/>
      <point x="295" y="35"/>
      <point x="369" y="86"/>
      <point x="382" y="173" type="curve" smooth="yes"/>
      <point x="396" y="259" type="line"/>
      <point x="269" y="259" type="line" smooth="yes"/>
      <point x="159" y="259"/>
      <point x="83" y="235"/>
      <point x="83" y="137" type="curve" smooth="yes"/>
      <point x="83" y="80"/>
      <point x="121" y="35"/>
    </contour>
    <contour>
      <point x="318" y="633" type="curve" smooth="yes"/>
      <point x="354" y="633"/>
      <point x="380" y="660"/>
      <point x="380" y="698" type="curve" smooth="yes"/>
      <point x="380" y="734"/>
      <point x="357" y="760"/>
      <point x="321" y="760" type="curve" smooth="yes"/>
      <point x="286" y="760"/>
      <point x="258" y="732"/>
      <point x="258" y="694" type="curve" smooth="yes"/>
      <point x="258" y="659"/>
      <point x="282" y="633"/>
    </contour>
    <contour>
      <point x="318" y="601" type="curve" smooth="yes"/>
      <point x="263" y="601"/>
      <point x="221" y="643"/>
      <point x="221" y="694" type="curve" smooth="yes"/>
      <point x="221" y="748"/>
      <point x="267" y="792"/>
      <point x="321" y="792" type="curve" smooth="yes"/>
      <point x="376" y="792"/>
      <point x="417" y="750"/>
      <point x="417" y="698" type="curve" smooth="yes"/>
      <point x="417" y="644"/>
      <point x="373" y="601"/>
    </contour>
  </outline>
</glyph>
<glyph name="ae" format="2">
  <advance width="888"/>
  <unicode hex="00E6"/>
  <outline>
    <contour>
      <point x="449" y="215" type="curve" smooth="yes"/>
      <point x="449" y="102"/>
      <point x="499" y="37"/>
      <point x="612" y="37" type="curve" smooth="yes"/>
      <point x="695" y="37"/>
      <point x="751" y="74"/>
      <point x="778" y="146" type="curve"/>
      <point x="830" y="146" type="line"/>
      <point x="796" y="43"/>
      <point x="716" y="-8"/>
      <point x="610" y="-8" type="curve" smooth="yes"/>
      <point x="500" y="-8"/>
      <point x="433" y="45"/>
      <point x="408" y="132" type="curve"/>
      <point x="374" y="36"/>
      <point x="291" y="-8"/>
      <point x="202" y="-8" type="curve" smooth="yes"/>
      <point x="88" y="-8"/>
      <point x="30" y="49"/>
      <point x="30" y="133" type="curve" smooth="yes"/>
      <point x="30" y="259"/>
      <point x="143" y="299"/>
      <point x="270" y="299" type="curve" smooth="yes"/>
      <point x="403" y="299" type="line"/>
      <point x="410" y="342" type="line" smooth="yes"/>
      <point x="425" y="436"/>
      <point x="390" y="486"/>
      <point x="288" y="486" type="curve" smooth="yes"/>
      <point x="213" y="486"/>
      <point x="158" y="455"/>
      <point x="137" y="375" type="curve"/>
      <point x="84" y="375" type="line"/>
      <point x="110" y="490"/>
      <point x="204" y="531"/>
      <point x="290" y="531" type="curve" smooth="yes"/>
      <point x="383" y="531"/>
      <point x="441" y="495"/>
      <point x="457" y="423" type="curve"/>
      <point x="502" y="489"/>
      <point x="571" y="531"/>
      <point x="657" y="531" type="curve" smooth="yes"/>
      <point x="803" y="531"/>
      <point x="875" y="432"/>
      <point x="850" y="273" type="curve"/>
      <point x="847" y="258" type="line"/>
      <point x="451" y="258" type="line"/>
      <point x="449" y="244"/>
      <point x="449" y="230"/>
    </contour>
    <contour>
      <point x="206" y="35" type="curve" smooth="yes"/>
      <point x="296" y="35"/>
      <point x="370" y="85"/>
      <point x="386" y="188" type="curve" smooth="yes"/>
      <point x="397" y="258" type="line"/>
      <point x="269" y="258" type="line" smooth="yes"/>
      <point x="160" y="258"/>
      <point x="83" y="232"/>
      <point x="83" y="135" type="curve" smooth="yes"/>
      <point x="83" y="78"/>
      <point x="121" y="35"/>
    </contour>
    <contour>
      <point x="654" y="486" type="curve" smooth="yes"/>
      <point x="553" y="486"/>
      <point x="480" y="416"/>
      <point x="457" y="299" type="curve"/>
      <point x="800" y="299" type="line"/>
      <point x="813" y="415"/>
      <point x="770" y="486"/>
    </contour>
  </outline>
</glyph>
<glyph name="ccedilla" format="2">
  <advance width="547"/>
  <unicode hex="00E7"/>
  <outline>
    <contour>
      <point x="208" y="-212" type="curve" smooth="yes"/>
      <point x="157" y="-212"/>
      <point x="118" y="-187"/>
      <point x="113" y="-134" type="curve"/>
      <point x="157" y="-134" type="line"/>
      <point x="159" y="-159"/>
      <point x="178" y="-176"/>
      <point x="208" y="-176" type="curve" smooth="yes"/>
      <point x="232" y="-176"/>
      <point x="258" y="-164"/>
      <point x="258" y="-129" type="curve" smooth="yes"/>
      <point x="258" y="-104"/>
      <point x="239" y="-93"/>
      <point x="216" y="-93" type="curve" smooth="yes"/>
      <point x="200" y="-93"/>
      <point x="190" y="-98"/>
      <point x="183" y="-102" type="curve"/>
      <point x="163" y="-80" type="line"/>
      <point x="217" y="-2" type="line"/>
      <point x="104" y="20"/>
      <point x="40" y="109"/>
      <point x="40" y="230" type="curve" smooth="yes"/>
      <point x="40" y="410"/>
      <point x="160" y="531"/>
      <point x="310" y="531" type="curve" smooth="yes"/>
      <point x="422" y="531"/>
      <point x="507" y="468"/>
      <point x="514" y="354" type="curve"/>
      <point x="463" y="354" type="line"/>
      <point x="456" y="443"/>
      <point x="395" y="486"/>
      <point x="308" y="486" type="curve" smooth="yes"/>
      <point x="181" y="486"/>
      <point x="95" y="382"/>
      <point x="95" y="230" type="curve" smooth="yes"/>
      <point x="95" y="109"/>
      <point x="163" y="37"/>
      <point x="277" y="37" type="curve" smooth="yes"/>
      <point x="364" y="37"/>
      <point x="435" y="87"/>
      <point x="455" y="179" type="curve"/>
      <point x="506" y="179" type="line"/>
      <point x="481" y="57"/>
      <point x="389" y="-8"/>
      <point x="276" y="-8" type="curve" smooth="yes"/>
      <point x="254" y="-8" type="line"/>
      <point x="218" y="-59" type="line"/>
      <point x="261" y="-50"/>
      <point x="306" y="-75"/>
      <point x="306" y="-127" type="curve" smooth="yes"/>
      <point x="306" y="-182"/>
      <point x="266" y="-212"/>
    </contour>
  </outline>
</glyph>
<glyph name="edieresis" format="2">
  <advance width="542"/>
  <unicode hex="00EB"/>
  <outline>
    <contour>
      <point x="93" y="215" type="curve" smooth="yes"/>
      <point x="93" y="102"/>
      <point x="148" y="37"/>
      <point x="261" y="37" type="curve" smooth="yes"/>
      <point x="344" y="37"/>
      <point x="403" y="74"/>
      <point x="430" y="146" type="curve"/>
      <point x="483" y="146" type="line"/>
      <point x="450" y="43"/>
      <point x="364" y="-8"/>
      <point x="259" y="-8" type="curve" smooth="yes"/>
      <point x="116" y="-8"/>
      <point x="38" y="82"/>
      <point x="38" y="217" type="curve" smooth="yes"/>
      <point x="38" y="391"/>
      <point x="146" y="531"/>
      <point x="305" y="531" type="curve" smooth="yes"/>
      <point x="452" y="531"/>
      <point x="528" y="432"/>
      <point x="503" y="273" type="curve"/>
      <point x="501" y="257" type="line"/>
      <point x="95" y="257" type="line"/>
      <point x="93" y="243"/>
      <point x="93" y="229"/>
    </contour>
    <contour>
      <point x="303" y="486" type="curve" smooth="yes"/>
      <point x="201" y="486"/>
      <point x="125" y="417"/>
      <point x="101" y="300" type="curve"/>
      <point x="454" y="300" type="line"/>
      <point x="467" y="416"/>
      <point x="419" y="486"/>
    </contour>
    <contour>
      <point x="407" y="636" type="curve" smooth="yes"/>
      <point x="387" y="636"/>
      <point x="371" y="652"/>
      <point x="371" y="672" type="curve" smooth="yes"/>
      <point x="371" y="692"/>
      <point x="387" y="709"/>
      <point x="408" y="709" type="curve" smooth="yes"/>
      <point x="428" y="709"/>
      <point x="444" y="693"/>
      <point x="444" y="673" type="curve" smooth="yes"/>
      <point x="444" y="653"/>
      <point x="427" y="636"/>
    </contour>
    <contour>
      <point x="240" y="636" type="curve" smooth="yes"/>
      <point x="220" y="636"/>
      <point x="204" y="652"/>
      <point x="204" y="672" type="curve" smooth="yes"/>
      <point x="204" y="692"/>
      <point x="221" y="709"/>
      <point x="241" y="709" type="curve" smooth="yes"/>
      <point x="261" y="709"/>
      <point x="277" y="693"/>
      <point x="277" y="673" type="curve" smooth="yes"/>
      <point x="277" y="653"/>
      <point x="261" y="636"/>
    </contour>
  </outline>
</glyph>
<glyph name="iacute" format="2">
  <advance width="221"/>
  <unicode hex="00ED"/>
  <outline>
    <contour>
      <point x="136" y="605" type="line"/>
      <point x="224" y="752" type="line"/>
      <point x="292" y="752" type="line"/>
      <point x="180" y="605" type="line"/>
    </contour>
    <contour>
      <point x="42" y="0" type="line"/>
      <point x="125" y="523" type="line"/>
      <point x="178" y="523" type="line"/>
      <point x="95" y="0" type="line"/>
    </contour>
  </outline>
</glyph>
<glyph name="icircumflex" format="2">
  <advance width="221"/>
  <unicode hex="00EE"/>
  <outline>
    <contour>
      <point x="25" y="605" type="line"/>
      <point x="153" y="740" type="line"/>
      <point x="202" y="740" type="line"/>
      <point x="293" y="605" type="line"/>
      <point x="253" y="605" type="line"/>
      <point x="172" y="696" type="line"/>
      <point x="68" y="605" type="line"/>
    </contour>
    <contour>
      <point x="42" y="0" type="line"/>
      <point x="125" y="523" type="line"/>
      <point x="178" y="523" type="line"/>
      <point x="95" y="0" type="line"/>
    </contour>
  </outline>
</glyph>
<glyph name="idieresis" format="2">
  <advance width="221"/>
  <unicode hex="00EF"/>
  <outline>
    <contour>
      <point x="101" y="636" type="curve" smooth="yes"/>
      <point x="81" y="636"/>
      <point x="64" y="652"/>
      <point x="64" y="672" type="curve" smooth="yes"/>
      <point x="64" y="692"/>
      <point x="81" y="709"/>
      <point x="101" y="709" type="curve" smooth="yes"/>
      <point x="122" y="709"/>
      <point x="137" y="693"/>
      <point x="137" y="673" type="curve" smooth="yes"/>
      <point x="137" y="653"/>
      <point x="121" y="636"/>
    </contour>
    <contour>
      <point x="249" y="636" type="curve" smooth="yes"/>
      <point x="228" y="636"/>
      <point x="212" y="652"/>
      <point x="212" y="672" type="curve" smooth="yes"/>
      <point x="212" y="692"/>
      <point x="229" y="709"/>
      <point x="249" y="709" type="curve" smooth="yes"/>
      <point x="269" y="709"/>
      <point x="285" y="693"/>
      <point x="285" y="673" type="curve" smooth="yes"/>
      <point x="285" y="653"/>
      <point x="269" y="636"/>
    </contour>
    <contour>
      <point x="42" y="0" type="line"/>
      <point x="125" y="523" type="line"/>
      <point x="178" y="523" type="line"/>
      <point x="95" y="0" type="line"/>
    </contour>
  </outline>
</glyph>
<glyph name="eth" format="2">
  <advance width="582"/>
  <unicode hex="00F0"/>
  <outline>
    <contour>
      <point x="196" y="585" type="line"/>
      <point x="179" y="615" type="line"/>
      <point x="312" y="686" type="line"/>
      <point x="277" y="717"/>
      <point x="239" y="745"/>
      <point x="197" y="773" type="curve"/>
      <point x="267" y="773" type="line"/>
      <point x="296" y="756"/>
      <point x="326" y="734"/>
      <point x="355" y="709" type="curve"/>
      <point x="465" y="767" type="line"/>
      <point x="482" y="736" type="line"/>
      <point x="382" y="684" type="line"/>
      <point x="469" y="598"/>
      <point x="541" y="473"/>
      <point x="541" y="315" type="curve" smooth="yes"/>
      <point x="541" y="133"/>
      <point x="438" y="-8"/>
      <point x="265" y="-8" type="curve" smooth="yes"/>
      <point x="130" y="-8"/>
      <point x="38" y="91"/>
      <point x="38" y="228" type="curve" smooth="yes"/>
      <point x="38" y="383"/>
      <point x="142" y="531"/>
      <point x="305" y="531" type="curve" smooth="yes"/>
      <point x="391" y="531"/>
      <point x="444" y="489"/>
      <point x="477" y="432" type="curve"/>
      <point x="448" y="524"/>
      <point x="401" y="597"/>
      <point x="338" y="660" type="curve"/>
    </contour>
    <contour>
      <point x="92" y="226" type="curve" smooth="yes"/>
      <point x="92" y="126"/>
      <point x="150" y="37"/>
      <point x="266" y="37" type="curve" smooth="yes"/>
      <point x="403" y="37"/>
      <point x="486" y="154"/>
      <point x="486" y="296" type="curve" smooth="yes"/>
      <point x="486" y="403"/>
      <point x="424" y="486"/>
      <point x="310" y="486" type="curve" smooth="yes"/>
      <point x="172" y="486"/>
      <point x="92" y="364"/>
    </contour>
  </outline>
</glyph>
<glyph name="ntilde" format="2">
  <advance width="577"/>
  <unicode hex="00F1"/>
  <outline>
    <contour>
      <point x="40" y="0" type="line"/>
      <point x="100" y="377" type="line" smooth="yes"/>
      <point x="111" y="447"/>
      <point x="113" y="486"/>
      <point x="114" y="523" type="curve"/>
      <point x="164" y="523" type="line"/>
      <point x="164" y="495"/>
      <point x="161" y="452"/>
      <point x="155" y="410" type="curve"/>
      <point x="191" y="476"/>
      <point x="258" y="531"/>
      <point x="350" y="531" type="curve" smooth="yes"/>
      <point x="462" y="531"/>
      <point x="531" y="464"/>
      <point x="507" y="312" type="curve" smooth="yes"/>
      <point x="457" y="0" type="line"/>
      <point x="404" y="0" type="line"/>
      <point x="455" y="322" type="line" smooth="yes"/>
      <point x="473" y="432"/>
      <point x="427" y="485"/>
      <point x="340" y="485" type="curve" smooth="yes"/>
      <point x="248" y="485"/>
      <point x="160" y="422"/>
      <point x="142" y="310" type="curve" smooth="yes"/>
      <point x="93" y="0" type="line"/>
    </contour>
    <contour>
      <point x="399" y="616" type="curve" smooth="yes"/>
      <point x="351" y="616"/>
      <point x="312" y="669"/>
      <point x="277" y="669" type="curve" smooth="yes"/>
      <point x="255" y="669"/>
      <point x="233" y="651"/>
      <point x="225" y="616" type="curve"/>
      <point x="185" y="616" type="line"/>
      <point x="197" y="680"/>
      <point x="233" y="715"/>
      <point x="278" y="715" type="curve" smooth="yes"/>
      <point x="325" y="715"/>
      <point x="364" y="662"/>
      <point x="400" y="662" type="curve" smooth="yes"/>
      <point x="421" y="662"/>
      <point x="443" y="680"/>
      <point x="451" y="715" type="curve"/>
      <point x="491" y="715" type="line"/>
      <point x="478" y="651"/>
      <point x="443" y="616"/>
    </contour>
  </outline>
</glyph>
<glyph name="otilde" format="2">
  <advance width="579"/>
  <unicode hex="00F5"/>
  <outline>
    <contour>
      <point x="267" y="-8" type="curve" smooth="yes"/>
      <point x="127" y="-8"/>
      <point x="38" y="95"/>
      <point x="38" y="227" type="curve" smooth="yes"/>
      <point x="38" y="393"/>
      <point x="149" y="530"/>
      <point x="312" y="530" type="curve" smooth="yes"/>
      <point x="455" y="530"/>
      <point x="541" y="427"/>
      <point x="541" y="297" type="curve" smooth="yes"/>
      <point x="541" y="124"/>
      <point x="432" y="-8"/>
    </contour>
    <contour>
      <point x="269" y="37" type="curve" smooth="yes"/>
      <point x="404" y="37"/>
      <point x="486" y="149"/>
      <point x="486" y="296" type="curve" smooth="yes"/>
      <point x="486" y="403"/>
      <point x="424" y="486"/>
      <point x="310" y="486" type="curve" smooth="yes"/>
      <point x="175" y="486"/>
      <point x="92" y="370"/>
      <point x="92" y="227" type="curve" smooth="yes"/>
      <point x="92" y="119"/>
      <point x="156" y="37"/>
    </contour>
    <contour>
      <point x="393" y="616" type="curve" smooth="yes"/>
      <point x="345" y="616"/>
      <point x="306" y="669"/>
      <point x="271" y="669" type="curve" smooth="yes"/>
      <point x="249" y="669"/>
      <point x="227" y="651"/>
      <point x="219" y="616" type="curve"/>
      <point x="179" y="616" type="line"/>
      <point x="191" y="680"/>
      <point x="227" y="715"/>
      <point x="272" y="715" type="curve" smooth="yes"/>
      <point x="319" y="715"/>
      <point x="358" y="662"/>
      <point x="394" y="662" type="curve" smooth="yes"/>
      <point x="415" y="662"/>
      <point x="437" y="680"/>
      <point x="445" y="715" type="curve"/>
      <point x="485" y="715" type="line"/>
      <point x="472" y="651"/>
      <point x="437" y="616"/>
    </contour>
  </outline>
</glyph>
<glyph name="odieresis" format="2">
  <advance width="579"/>
  <unicode hex="00F6"/>
  <outline>
    <contour>
      <point x="249" y="636" type="curve" smooth="yes"/>
      <point x="229" y="636"/>
      <point x="213" y="652"/>
      <point x="213" y="672" type="curve" smooth="yes"/>
      <point x="213" y="692"/>
      <point x="230" y="709"/>
      <point x="250" y="709" type="curve" smooth="yes"/>
      <point x="270" y="709"/>
      <point x="286" y="693"/>
      <point x="286" y="673" type="curve" smooth="yes"/>
      <point x="286" y="653"/>
      <point x="270" y="636"/>
    </contour>
    <contour>
      <point x="416" y="636" type="curve" smooth="yes"/>
      <point x="396" y="636"/>
      <point x="380" y="652"/>
      <point x="380" y="672" type="curve" smooth="yes"/>
      <point x="380" y="692"/>
      <point x="396" y="709"/>
      <point x="417" y="709" type="curve" smooth="yes"/>
      <point x="437" y="709"/>
      <point x="453" y="693"/>
      <point x="453" y="673" type="curve" smooth="yes"/>
      <point x="453" y="653"/>
      <point x="436" y="636"/>
    </contour>
    <contour>
      <point x="267" y="-8" type="curve" smooth="yes"/>
      <point x="127" y="-8"/>
      <point x="38" y="95"/>
      <point x="38" y="227" type="curve" smooth="yes"/>
      <point x="38" y="393"/>
      <point x="149" y="530"/>
      <point x="312" y="530" type="curve" smooth="yes"/>
      <point x="455" y="530"/>
      <point x="541" y="427"/>
      <point x="541" y="297" type="curve" smooth="yes"/>
      <point x="541" y="124"/>
      <point x="432" y="-8"/>
    </contour>
    <contour>
      <point x="269" y="37" type="curve" smooth="yes"/>
      <point x="404" y="37"/>
      <point x="486" y="149"/>
      <point x="486" y="296" type="curve" smooth="yes"/>
      <point x="486" y="403"/>
      <point x="424" y="486"/>
      <point x="310" y="486" type="curve" smooth="yes"/>
      <point x="175" y="486"/>
      <point x="92" y="370"/>
      <point x="92" y="227" type="curve" smooth="yes"/>
      <point x="92" y="119"/>
      <point x="156" y="37"/>
    </contour>
  </outline>
</glyph>
<glyph name="divide" format="2">
  <advance width="510"/>
  <unicode hex="00F7"/>
  <outline>
    <contour>
      <point x="44" y="319" type="line"/>
      <point x="52" y="365" type="line"/>
      <point x="489" y="365" type="line"/>
      <point x="482" y="319" type="line"/>
    </contour>
    <contour>
      <point x="243" y="122" type="curve" smooth="yes"/>
      <point x="220" y="122"/>
      <point x="201" y="141"/>
      <point x="201" y="165" type="curve" smooth="yes"/>
      <point x="201" y="188"/>
      <point x="220" y="207"/>
      <point x="243" y="207" type="curve" smooth="yes"/>
      <point x="267" y="207"/>
      <point x="286" y="188"/>
      <point x="286" y="165" type="curve" smooth="yes"/>
      <point x="286" y="141"/>
      <point x="267" y="122"/>
    </contour>
    <contour>
      <point x="290" y="477" type="curve" smooth="yes"/>
      <point x="267" y="477"/>
      <point x="248" y="496"/>
      <point x="248" y="520" type="curve" smooth="yes"/>
      <point x="248" y="543"/>
      <point x="267" y="562"/>
      <point x="290" y="562" type="curve" smooth="yes"/>
      <point x="314" y="562"/>
      <point x="333" y="543"/>
      <point x="333" y="520" type="curve" smooth="yes"/>
      <point x="333" y="496"/>
      <point x="314" y="477"/>
    </contour>
  </outline>
</glyph>
<glyph name="oslash" format="2">
  <advance width="579"/>
  <unicode hex="00F8"/>
  <outline>
    <contour>
      <point x="43" y="-25" type="line"/>
      <point x="15" y="1" type="line"/>
      <point x="87" y="76" type="line"/>
      <point x="56" y="117"/>
      <point x="38" y="169"/>
      <point x="38" y="227" type="curve" smooth="yes"/>
      <point x="38" y="393"/>
      <point x="149" y="530"/>
      <point x="312" y="530" type="curve" smooth="yes"/>
      <point x="375" y="530"/>
      <point x="427" y="509"/>
      <point x="466" y="475" type="curve"/>
      <point x="532" y="545" type="line"/>
      <point x="561" y="519" type="line"/>
      <point x="492" y="447" type="line"/>
      <point x="524" y="406"/>
      <point x="541" y="354"/>
      <point x="541" y="297" type="curve" smooth="yes"/>
      <point x="541" y="124"/>
      <point x="432" y="-8"/>
      <point x="267" y="-8" type="curve" smooth="yes"/>
      <point x="204" y="-8"/>
      <point x="152" y="13"/>
      <point x="113" y="48" type="curve"/>
    </contour>
    <contour>
      <point x="269" y="37" type="curve" smooth="yes"/>
      <point x="404" y="37"/>
      <point x="486" y="149"/>
      <point x="486" y="296" type="curve" smooth="yes"/>
      <point x="486" y="339"/>
      <point x="476" y="378"/>
      <point x="457" y="410" type="curve"/>
      <point x="145" y="82" type="line"/>
      <point x="174" y="54"/>
      <point x="216" y="37"/>
    </contour>
    <contour>
      <point x="92" y="227" type="curve" smooth="yes"/>
      <point x="92" y="183"/>
      <point x="101" y="144"/>
      <point x="121" y="112" type="curve"/>
      <point x="433" y="440" type="line"/>
      <point x="404" y="469"/>
      <point x="363" y="486"/>
      <point x="310" y="486" type="curve" smooth="yes"/>
      <point x="175" y="486"/>
      <point x="92" y="370"/>
    </contour>
  </outline>
</glyph>
<glyph name="ydieresis" format="2">
  <advance width="494"/>
  <unicode hex="00FF"/>
  <outline>
    <contour>
      <point x="60" y="-182" type="line"/>
      <point x="191" y="48" type="line"/>
      <point x="63" y="523" type="line"/>
      <point x="117" y="523" type="line"/>
      <point x="227" y="106" type="line"/>
      <point x="455" y="523" type="line"/>
      <point x="512" y="523" type="line"/>
      <point x="116" y="-182" type="line"/>
    </contour>
    <contour>
      <point x="225" y="636" type="curve" smooth="yes"/>
      <point x="205" y="636"/>
      <point x="189" y="652"/>
      <point x="189" y="672" type="curve" smooth="yes"/>
      <point x="189" y="692"/>
      <point x="206" y="709"/>
      <point x="226" y="709" type="curve" smooth="yes"/>
      <point x="246" y="709"/>
      <point x="262" y="693"/>
      <point x="262" y="673" type="curve" smooth="yes"/>
      <point x="262" y="653"/>
      <point x="246" y="636"/>
    </contour>
    <contour>
      <point x="392" y="636" type="curve" smooth="yes"/>
      <point x="372" y="636"/>
      <point x="356" y="652"/>
      <point x="356" y="672" type="curve" smooth="yes"/>
      <point x="356" y="692"/>
      <point x="372" y="709"/>
      <point x="393" y="709" type="curve" smooth="yes"/>
      <point x="413" y="709"/>
      <point x="429" y="693"/>
      <point x="429" y="673" type="curve" smooth="yes"/>
      <point x="429" y="653"/>
      <point x="412" y="636"/>
    </contour>
  </outline>
</glyph>
<glyph name="Aogonek" format="2">
  <advance width="641"/>
  <unicode hex="0104"/>
  <outline>
    <contour>
      <point x="426" y="-107" type="curve" smooth="yes"/>
      <point x="426" y="-55"/>
      <point x="479" y="-20"/>
      <point x="518" y="1" type="curve"/>
      <point x="474" y="219" type="line"/>
      <point x="151" y="219" type="line"/>
      <point x="39" y="0" type="line"/>
      <point x="-15" y="0" type="line"/>
      <point x="353" y="715" type="line"/>
      <point x="427" y="715" type="line"/>
      <point x="572" y="0" type="line"/>
      <point x="537" y="-20"/>
      <point x="478" y="-53"/>
      <point x="478" y="-102" type="curve" smooth="yes"/>
      <point x="478" y="-126"/>
      <point x="492" y="-142"/>
      <point x="525" y="-142" type="curve" smooth="yes"/>
      <point x="541" y="-142"/>
      <point x="557" y="-139"/>
      <point x="572" y="-134" type="curve"/>
      <point x="566" y="-173" type="line"/>
      <point x="553" y="-177"/>
      <point x="537" y="-182"/>
      <point x="515" y="-182" type="curve" smooth="yes"/>
      <point x="461" y="-182"/>
      <point x="426" y="-156"/>
    </contour>
    <contour>
      <point x="382" y="670" type="line"/>
      <point x="174" y="264" type="line"/>
      <point x="465" y="264" type="line"/>
    </contour>
  </outline>
</glyph>
<glyph name="aogonek" format="2">
  <advance width="527"/>
  <unicode hex="0105"/>
  <outline>
    <contour>
      <point x="366" y="-182" type="curve" smooth="yes"/>
      <point x="312" y="-182"/>
      <point x="277" y="-156"/>
      <point x="277" y="-107" type="curve" smooth="yes"/>
      <point x="277" y="-55"/>
      <point x="334" y="-18"/>
      <point x="370" y="2" type="curve"/>
      <point x="369" y="28"/>
      <point x="370" y="60"/>
      <point x="373" y="86" type="curve"/>
      <point x="340" y="32"/>
      <point x="278" y="-8"/>
      <point x="201" y="-8" type="curve" smooth="yes"/>
      <point x="88" y="-8"/>
      <point x="30" y="53"/>
      <point x="30" y="137" type="curve" smooth="yes"/>
      <point x="30" y="262"/>
      <point x="141" y="300"/>
      <point x="268" y="300" type="curve" smooth="yes"/>
      <point x="403" y="300" type="line"/>
      <point x="409" y="342" type="line" smooth="yes"/>
      <point x="424" y="436"/>
      <point x="390" y="486"/>
      <point x="288" y="486" type="curve" smooth="yes"/>
      <point x="213" y="486"/>
      <point x="158" y="455"/>
      <point x="137" y="375" type="curve"/>
      <point x="84" y="375" type="line"/>
      <point x="110" y="490"/>
      <point x="204" y="531"/>
      <point x="290" y="531" type="curve" smooth="yes"/>
      <point x="415" y="531"/>
      <point x="482" y="466"/>
      <point x="462" y="338" type="curve" smooth="yes"/>
      <point x="432" y="150" type="line" smooth="yes"/>
      <point x="421" y="80"/>
      <point x="419" y="37"/>
      <point x="421" y="0" type="curve"/>
      <point x="388" y="-20"/>
      <point x="329" y="-53"/>
      <point x="329" y="-102" type="curve" smooth="yes"/>
      <point x="329" y="-126"/>
      <point x="343" y="-142"/>
      <point x="377" y="-142" type="curve" smooth="yes"/>
      <point x="393" y="-142"/>
      <point x="408" y="-139"/>
      <point x="423" y="-134" type="curve"/>
      <point x="417" y="-173" type="line"/>
      <point x="404" y="-177"/>
      <point x="388" y="-182"/>
    </contour>
    <contour>
      <point x="207" y="35" type="curve" smooth="yes"/>
      <point x="295" y="35"/>
      <point x="369" y="86"/>
      <point x="382" y="173" type="curve" smooth="yes"/>
      <point x="396" y="259" type="line"/>
      <point x="269" y="259" type="line" smooth="yes"/>
      <point x="159" y="259"/>
      <point x="83" y="235"/>
      <point x="83" y="137" type="curve" smooth="yes"/>
      <point x="83" y="80"/>
      <point x="121" y="35"/>
    </contour>
  </outline>
</glyph>
<glyph name="ccircumflex" format="2">
  <advance width="547"/>
  <unicode hex="0109"/>
  <outline>
    <contour>
      <point x="179" y="605" type="line"/>
      <point x="307" y="740" type="line"/>
      <point x="356" y="740" type="line"/>
      <point x="447" y="605" type="line"/>
      <point x="407" y="605" type="line"/>
      <point x="326" y="696" type="line"/>
      <point x="222" y="605" type="line"/>
    </contour>
    <contour>
      <point x="276" y="-8" type="curve" smooth="yes"/>
      <point x="127" y="-8"/>
      <point x="40" y="90"/>
      <point x="40" y="230" type="curve" smooth="yes"/>
      <point x="40" y="410"/>
      <point x="160" y="531"/>
      <point x="310" y="531" type="curve" smooth="yes"/>
      <point x="422" y="531"/>
      <point x="507" y="468"/>
      <point x="514" y="354" type="curve"/>
      <point x="463" y="354" type="line"/>
      <point x="456" y="443"/>
      <point x="395" y="486"/>
      <point x="308" y="486" type="curve" smooth="yes"/>
      <point x="181" y="486"/>
      <point x="95" y="382"/>
      <point x="95" y="230" type="curve" smooth="yes"/>
      <point x="95" y="109"/>
      <point x="163" y="37"/>
      <point x="277" y="37" type="curve" smooth="yes"/>
      <point x="364" y="37"/>
      <point x="435" y="87"/>
      <point x="455" y="179" type="curve"/>
      <point x="506" y="179" type="line"/>
      <point x="481" y="57"/>
      <point x="389" y="-8"/>
    </contour>
  </outline>
</glyph>
<glyph name="Dcaron" format="2">
  <advance width="688"/>
  <unicode hex="010E"/>
  <outline>
    <contour>
      <point x="528" y="893" type="line"/>
      <point x="402" y="771" type="line"/>
      <point x="353" y="771" type="line"/>
      <point x="259" y="893" type="line"/>
      <point x="299" y="893" type="line"/>
      <point x="381" y="815" type="line"/>
      <point x="485" y="893" type="line"/>
    </contour>
    <contour>
      <point x="50" y="0" type="line"/>
      <point x="163" y="715" type="line"/>
      <point x="336" y="715" type="line" smooth="yes"/>
      <point x="560" y="715"/>
      <point x="659" y="584"/>
      <point x="660" y="410" type="curve" smooth="yes"/>
      <point x="660" y="168"/>
      <point x="508" y="0"/>
      <point x="251" y="0" type="curve" smooth="yes"/>
    </contour>
    <contour>
      <point x="113" y="46" type="line"/>
      <point x="249" y="46" type="line" smooth="yes"/>
      <point x="469" y="46"/>
      <point x="603" y="182"/>
      <point x="603" y="410" type="curve" smooth="yes"/>
      <point x="603" y="556"/>
      <point x="523" y="669"/>
      <point x="334" y="669" type="curve" smooth="yes"/>
      <point x="212" y="669" type="line"/>
    </contour>
  </outline>
</glyph>
<glyph name="Dcroat" format="2">
  <advance width="699"/>
  <unicode hex="0110"/>
  <outline>
    <contour>
      <point x="39" y="337" type="line"/>
      <point x="46" y="381" type="line"/>
      <point x="121" y="381" type="line"/>
      <point x="174" y="715" type="line"/>
      <point x="347" y="715" type="line" smooth="yes"/>
      <point x="571" y="715"/>
      <point x="670" y="584"/>
      <point x="671" y="410" type="curve" smooth="yes"/>
      <point x="671" y="168"/>
      <point x="519" y="0"/>
      <point x="261" y="0" type="curve" smooth="yes"/>
      <point x="61" y="0" type="line"/>
      <point x="114" y="337" type="line"/>
    </contour>
    <contour>
      <point x="124" y="46" type="line"/>
      <point x="260" y="46" type="line" smooth="yes"/>
      <point x="480" y="46"/>
      <point x="614" y="182"/>
      <point x="614" y="410" type="curve" smooth="yes"/>
      <point x="614" y="557"/>
      <point x="535" y="669"/>
      <point x="345" y="669" type="curve" smooth="yes"/>
      <point x="223" y="669" type="line"/>
      <point x="177" y="381" type="line"/>
      <point x="385" y="381" type="line"/>
      <point x="378" y="337" type="line"/>
      <point x="170" y="337" type="line"/>
    </contour>
  </outline>
</glyph>
<glyph name="dcroat" format="2">
  <advance width="606"/>
  <unicode hex="0111"/>
  <outline>
    <contour>
      <point x="343" y="623" type="line"/>
      <point x="350" y="664" type="line"/>
      <point x="536" y="664" type="line"/>
      <point x="554" y="773" type="line"/>
      <point x="607" y="773" type="line"/>
      <point x="590" y="664" type="line"/>
      <point x="668" y="664" type="line"/>
      <point x="661" y="623" type="line"/>
      <point x="583" y="623" type="line"/>
      <point x="511" y="164" type="line" smooth="yes"/>
      <point x="498" y="83"/>
      <point x="496" y="37"/>
      <point x="496" y="0" type="curve"/>
      <point x="445" y="0" type="line"/>
      <point x="445" y="32"/>
      <point x="449" y="82"/>
      <point x="454" y="117" type="curve"/>
      <point x="417" y="45"/>
      <point x="347" y="-8"/>
      <point x="256" y="-8" type="curve" smooth="yes"/>
      <point x="131" y="-8"/>
      <point x="39" y="81"/>
      <point x="39" y="223" type="curve" smooth="yes"/>
      <point x="39" y="389"/>
      <point x="141" y="531"/>
      <point x="305" y="531" type="curve" smooth="yes"/>
      <point x="421" y="531"/>
      <point x="476" y="453"/>
      <point x="493" y="390" type="curve"/>
      <point x="530" y="623" type="line"/>
    </contour>
    <contour>
      <point x="307" y="486" type="curve" smooth="yes"/>
      <point x="173" y="486"/>
      <point x="94" y="371"/>
      <point x="94" y="226" type="curve" smooth="yes"/>
      <point x="94" y="104"/>
      <point x="162" y="37"/>
      <point x="261" y="37" type="curve" smooth="yes"/>
      <point x="392" y="37"/>
      <point x="477" y="147"/>
      <point x="478" y="297" type="curve" smooth="yes"/>
      <point x="479" y="417"/>
      <point x="409" y="486"/>
    </contour>
  </outline>
</glyph>
<glyph name="emacron" format="2">
  <advance width="542"/>
  <unicode hex="0113"/>
  <outline>
    <contour>
      <point x="93" y="215" type="curve" smooth="yes"/>
      <point x="93" y="102"/>
      <point x="148" y="37"/>
      <point x="261" y="37" type="curve" smooth="yes"/>
      <point x="344" y="37"/>
      <point x="403" y="74"/>
      <point x="430" y="146" type="curve"/>
      <point x="483" y="146" type="line"/>
      <point x="450" y="43"/>
      <point x="364" y="-8"/>
      <point x="259" y="-8" type="curve" smooth="yes"/>
      <point x="116" y="-8"/>
      <point x="38" y="82"/>
      <point x="38" y="217" type="curve" smooth="yes"/>
      <point x="38" y="391"/>
      <point x="146" y="531"/>
      <point x="305" y="531" type="curve" smooth="yes"/>
      <point x="452" y="531"/>
      <point x="528" y="432"/>
      <point x="503" y="273" type="curve"/>
      <point x="501" y="257" type="line"/>
      <point x="95" y="257" type="line"/>
      <point x="93" y="243"/>
      <point x="93" y="229"/>
    </contour>
    <contour>
      <point x="303" y="486" type="curve" smooth="yes"/>
      <point x="201" y="486"/>
      <point x="125" y="417"/>
      <point x="101" y="300" type="curve"/>
      <point x="454" y="300" type="line"/>
      <point x="467" y="416"/>
      <point x="419" y="486"/>
    </contour>
    <contour>
      <point x="201" y="647" type="line"/>
      <point x="207" y="689" type="line"/>
      <point x="450" y="689" type="line"/>
      <point x="443" y="647" type="line"/>
    </contour>
  </outline>
</glyph>
<glyph name="Edotaccent" format="2">
  <advance width="569"/>
  <unicode hex="0116"/>
  <outline>
    <contour>
      <point x="373" y="787" type="curve" smooth="yes"/>
      <point x="352" y="787"/>
      <point x="335" y="804"/>
      <point x="335" y="824" type="curve" smooth="yes"/>
      <point x="335" y="844"/>
      <point x="352" y="862"/>
      <point x="373" y="862" type="curve" smooth="yes"/>
      <point x="394" y="862"/>
      <point x="410" y="845"/>
      <point x="410" y="825" type="curve" smooth="yes"/>
      <point x="410" y="805"/>
      <point x="394" y="787"/>
    </contour>
    <contour>
      <point x="50" y="0" type="line"/>
      <point x="163" y="715" type="line"/>
      <point x="569" y="715" type="line"/>
      <point x="561" y="669" type="line"/>
      <point x="211" y="669" type="line"/>
      <point x="167" y="390" type="line"/>
      <point x="455" y="390" type="line"/>
      <point x="448" y="344" type="line"/>
      <point x="160" y="344" type="line"/>
      <point x="113" y="46" type="line"/>
      <point x="487" y="46" type="line"/>
      <point x="479" y="0" type="line"/>
    </contour>
  </outline>
</glyph>
<glyph name="Eogonek" format="2">
  <advance width="569"/>
  <unicode hex="0118"/>
  <outline>
    <contour>
      <point x="50" y="0" type="line"/>
      <point x="163" y="715" type="line"/>
      <point x="569" y="715" type="line"/>
      <point x="561" y="669" type="line"/>
      <point x="211" y="669" type="line"/>
      <point x="167" y="390" type="line"/>
      <point x="455" y="390" type="line"/>
      <point x="448" y="344" type="line"/>
      <point x="160" y="344" type="line"/>
      <point x="113" y="46" type="line"/>
      <point x="486" y="46" type="line"/>
      <point x="479" y="0" type="line"/>
      <point x="434" y="0" type="line"/>
      <point x="398" y="-20"/>
      <point x="339" y="-53"/>
      <point x="339" y="-103" type="curve" smooth="yes"/>
      <point x="339" y="-126"/>
      <point x="353" y="-142"/>
      <point x="387" y="-142" type="curve" smooth="yes"/>
      <point x="403" y="-142"/>
      <point x="418" y="-139"/>
      <point x="433" y="-134" type="curve"/>
      <point x="427" y="-173" type="line"/>
      <point x="414" y="-177"/>
      <point x="398" y="-182"/>
      <point x="376" y="-182" type="curve" smooth="yes"/>
      <point x="322" y="-182"/>
      <point x="287" y="-156"/>
      <point x="287" y="-110" type="curve" smooth="yes"/>
      <point x="287" y="-57"/>
      <point x="340" y="-20"/>
      <point x="375" y="0" type="curve"/>
    </contour>
  </outline>
</glyph>
<glyph name="eogonek" format="2">
  <advance width="542"/>
  <unicode hex="0119"/>
  <outline>
    <contour>
      <point x="305" y="-182" type="curve" smooth="yes"/>
      <point x="252" y="-182"/>
      <point x="216" y="-156"/>
      <point x="217" y="-107" type="curve" smooth="yes"/>
      <point x="217" y="-59"/>
      <point x="266" y="-26"/>
      <point x="301" y="-5" type="curve"/>
      <point x="286" y="-7"/>
      <point x="274" y="-8"/>
      <point x="259" y="-8" type="curve" smooth="yes"/>
      <point x="116" y="-8"/>
      <point x="38" y="82"/>
      <point x="38" y="217" type="curve" smooth="yes"/>
      <point x="38" y="391"/>
      <point x="146" y="531"/>
      <point x="305" y="531" type="curve" smooth="yes"/>
      <point x="452" y="531"/>
      <point x="528" y="432"/>
      <point x="503" y="273" type="curve"/>
      <point x="501" y="257" type="line"/>
      <point x="95" y="257" type="line"/>
      <point x="93" y="243"/>
      <point x="93" y="229"/>
      <point x="93" y="215" type="curve" smooth="yes"/>
      <point x="93" y="102"/>
      <point x="148" y="37"/>
      <point x="261" y="37" type="curve" smooth="yes"/>
      <point x="344" y="37"/>
      <point x="403" y="74"/>
      <point x="430" y="146" type="curve"/>
      <point x="483" y="146" type="line"/>
      <point x="469" y="104"/>
      <point x="449" y="72"/>
      <point x="417" y="45" type="curve" smooth="yes"/>
      <point x="357" y="-7"/>
      <point x="269" y="-43"/>
      <point x="269" y="-102" type="curve" smooth="yes"/>
      <point x="269" y="-126"/>
      <point x="283" y="-142"/>
      <point x="316" y="-142" type="curve" smooth="yes"/>
      <point x="332" y="-142"/>
      <point x="347" y="-139"/>
      <point x="363" y="-134" type="curve"/>
      <point x="357" y="-173" type="line"/>
      <point x="344" y="-177"/>
      <point x="327" y="-182"/>
    </contour>
    <contour>
      <point x="303" y="486" type="curve" smooth="yes"/>
      <point x="201" y="486"/>
      <point x="125" y="415"/>
      <point x="101" y="300" type="curve"/>
      <point x="454" y="300" type="line"/>
      <point x="467" y="416"/>
      <point x="419" y="486"/>
    </contour>
  </outline>
</glyph>
<glyph name="gcommaaccent" format="2">
  <advance width="610"/>
  <unicode hex="0123"/>
  <outline>
    <contour>
      <point x="382" y="770" type="line"/>
      <point x="415" y="753" type="line"/>
      <point x="345" y="607" type="line"/>
      <point x="294" y="622" type="line"/>
    </contour>
    <contour>
      <point x="264" y="62" type="curve" smooth="yes"/>
      <point x="388" y="62"/>
      <point x="482" y="170"/>
      <point x="482" y="313" type="curve" smooth="yes"/>
      <point x="482" y="416"/>
      <point x="416" y="486"/>
      <point x="310" y="486" type="curve" smooth="yes"/>
      <point x="181" y="487"/>
      <point x="99" y="376"/>
      <point x="99" y="242" type="curve" smooth="yes"/>
      <point x="99" y="139"/>
      <point x="157" y="62"/>
    </contour>
    <contour>
      <point x="570" y="523" type="line"/>
      <point x="491" y="21" type="line" smooth="yes"/>
      <point x="469" y="-120"/>
      <point x="377" y="-188"/>
      <point x="240" y="-188" type="curve" smooth="yes"/>
      <point x="99" y="-188"/>
      <point x="25" y="-120"/>
      <point x="13" y="-30" type="curve"/>
      <point x="66" y="-30" type="line"/>
      <point x="78" y="-100"/>
      <point x="137" y="-143"/>
      <point x="238" y="-143" type="curve" smooth="yes"/>
      <point x="355" y="-143"/>
      <point x="420" y="-86"/>
      <point x="438" y="25" type="curve" smooth="yes"/>
      <point x="456" y="135" type="line"/>
      <point x="419" y="72"/>
      <point x="355" y="18"/>
      <point x="259" y="18" type="curve" smooth="yes"/>
      <point x="130" y="18"/>
      <point x="44" y="108"/>
      <point x="44" y="240" type="curve" smooth="yes"/>
      <point x="44" y="399"/>
      <point x="152" y="531"/>
      <point x="308" y="531" type="curve" smooth="yes"/>
      <point x="414" y="531"/>
      <point x="476" y="471"/>
      <point x="498" y="399" type="curve"/>
      <point x="517" y="523" type="line"/>
    </contour>
  </outline>
</glyph>
<glyph name="Hcircumflex" format="2">
  <advance width="717"/>
  <unicode hex="0124"/>
  <outline>
    <contour>
      <point x="50" y="0" type="line"/>
      <point x="163" y="715" type="line"/>
      <point x="219" y="715" type="line"/>
      <point x="166" y="382" type="line"/>
      <point x="587" y="382" type="line"/>
      <point x="640" y="715" type="line"/>
      <point x="696" y="715" type="line"/>
      <point x="583" y="0" type="line"/>
      <point x="527" y="0" type="line"/>
      <point x="580" y="335" type="line"/>
      <point x="159" y="335" type="line"/>
      <point x="106" y="0" type="line"/>
    </contour>
    <contour>
      <point x="298" y="771" type="line"/>
      <point x="423" y="893" type="line"/>
      <point x="473" y="893" type="line"/>
      <point x="566" y="771" type="line"/>
      <point x="526" y="771" type="line"/>
      <point x="444" y="849" type="line"/>
      <point x="341" y="771" type="line"/>
    </contour>
  </outline>
</glyph>
<glyph name="hcircumflex" format="2">
  <advance width="577"/>
  <unicode hex="0125"/>
  <outline>
    <contour>
      <point x="40" y="0" type="line"/>
      <point x="162" y="773" type="line"/>
      <point x="215" y="773" type="line"/>
      <point x="159" y="416" type="line"/>
      <point x="192" y="475"/>
      <point x="258" y="531"/>
      <point x="350" y="531" type="curve" smooth="yes"/>
      <point x="462" y="531"/>
      <point x="531" y="464"/>
      <point x="507" y="312" type="curve" smooth="yes"/>
      <point x="457" y="0" type="line"/>
      <point x="404" y="0" type="line"/>
      <point x="455" y="322" type="line" smooth="yes"/>
      <point x="473" y="432"/>
      <point x="427" y="485"/>
      <point x="340" y="485" type="curve" smooth="yes"/>
      <point x="248" y="485"/>
      <point x="160" y="422"/>
      <point x="142" y="310" type="curve" smooth="yes"/>
      <point x="93" y="0" type="line"/>
    </contour>
    <contour>
      <point x="231" y="816" type="line"/>
      <point x="356" y="938" type="line"/>
      <point x="406" y="938" type="line"/>
      <point x="499" y="816" type="line"/>
      <point x="459" y="816" type="line"/>
      <point x="377" y="894" type="line"/>
      <point x="274" y="816" type="line"/>
    </contour>
  </outline>
</glyph>
<glyph name="Hbar" format="2">
  <advance width="717"/>
  <unicode hex="0126"/>
  <outline>
    <contour>
      <point x="51" y="510" type="line"/>
      <point x="58" y="554" type="line"/>
      <point x="137" y="554" type="line"/>
      <point x="163" y="715" type="line"/>
      <point x="219" y="715" type="line"/>
      <point x="193" y="554" type="line"/>
      <point x="614" y="554" type="line"/>
      <point x="640" y="715" type="line"/>
      <point x="696" y="715" type="line"/>
      <point x="670" y="554" type="line"/>
      <point x="750" y="554" type="line"/>
      <point x="743" y="510" type="line"/>
      <point x="663" y="510" type="line"/>
      <point x="583" y="0" type="line"/>
      <point x="527" y="0" type="line"/>
      <point x="580" y="335" type="line"/>
      <point x="159" y="335" type="line"/>
      <point x="106" y="0" type="line"/>
      <point x="50" y="0" type="line"/>
      <point x="130" y="510" type="line"/>
    </contour>
    <contour>
      <point x="166" y="382" type="line"/>
      <point x="587" y="382" type="line"/>
      <point x="607" y="510" type="line"/>
      <point x="186" y="510" type="line"/>
    </contour>
  </outline>
</glyph>
<glyph name="Itilde" format="2">
  <advance width="251"/>
  <unicode hex="0128"/>
  <outline>
    <contour>
      <point x="55" y="0" type="line"/>
      <point x="168" y="715" type="line"/>
      <point x="224" y="715" type="line"/>
      <point x="111" y="0" type="line"/>
    </contour>
    <contour>
      <point x="272" y="774" type="curve" smooth="yes"/>
      <point x="224" y="774"/>
      <point x="185" y="827"/>
      <point x="150" y="827" type="curve" smooth="yes"/>
      <point x="128" y="827"/>
      <point x="106" y="808"/>
      <point x="98" y="773" type="curve"/>
      <point x="58" y="773" type="line"/>
      <point x="70" y="838"/>
      <point x="106" y="872"/>
      <point x="151" y="872" type="curve" smooth="yes"/>
      <point x="198" y="872"/>
      <point x="237" y="820"/>
      <point x="273" y="820" type="curve" smooth="yes"/>
      <point x="294" y="820"/>
      <point x="316" y="838"/>
      <point x="324" y="873" type="curve"/>
      <point x="364" y="873" type="line"/>
      <point x="351" y="809"/>
      <point x="316" y="774"/>
    </contour>
  </outline>
</glyph>
<glyph name="itilde" format="2">
  <advance width="221"/>
  <unicode hex="0129"/>
  <outline>
    <contour>
      <point x="42" y="0" type="line"/>
      <point x="125" y="523" type="line"/>
      <point x="178" y="523" type="line"/>
      <point x="95" y="0" type="line"/>
    </contour>
    <contour>
      <point x="231" y="616" type="curve" smooth="yes"/>
      <point x="183" y="616"/>
      <point x="144" y="669"/>
      <point x="109" y="669" type="curve" smooth="yes"/>
      <point x="87" y="669"/>
      <point x="65" y="651"/>
      <point x="57" y="616" type="curve"/>
      <point x="17" y="616" type="line"/>
      <point x="29" y="680"/>
      <point x="65" y="715"/>
      <point x="110" y="715" type="curve" smooth="yes"/>
      <point x="157" y="715"/>
      <point x="196" y="662"/>
      <point x="232" y="662" type="curve" smooth="yes"/>
      <point x="253" y="662"/>
      <point x="275" y="680"/>
      <point x="283" y="715" type="curve"/>
      <point x="323" y="715" type="line"/>
      <point x="310" y="651"/>
      <point x="275" y="616"/>
    </contour>
  </outline>
</glyph>
<glyph name="Imacron" format="2">
  <advance width="251"/>
  <unicode hex="012A"/>
  <outline>
    <contour>
      <point x="55" y="0" type="line"/>
      <point x="168" y="715" type="line"/>
      <point x="224" y="715" type="line"/>
      <point x="111" y="0" type="line"/>
    </contour>
    <contour>
      <point x="85" y="791" type="line"/>
      <point x="92" y="833" type="line"/>
      <point x="340" y="833" type="line"/>
      <point x="333" y="791" type="line"/>
    </contour>
  </outline>
</glyph>
<glyph name="Ibreve" format="2">
  <advance width="251"/>
  <unicode hex="012C"/>
  <outline>
    <contour>
      <point x="55" y="0" type="line"/>
      <point x="168" y="715" type="line"/>
      <point x="224" y="715" type="line"/>
      <point x="111" y="0" type="line"/>
    </contour>
    <contour>
      <point x="206" y="771" type="curve" smooth="yes"/>
      <point x="135" y="771"/>
      <point x="85" y="821"/>
      <point x="85" y="893" type="curve"/>
      <point x="129" y="893" type="line"/>
      <point x="132" y="845"/>
      <point x="159" y="815"/>
      <point x="206" y="815" type="curve" smooth="yes"/>
      <point x="254" y="815"/>
      <point x="288" y="845"/>
      <point x="297" y="893" type="curve"/>
      <point x="340" y="893" type="line"/>
      <point x="332" y="821"/>
      <point x="272" y="771"/>
    </contour>
  </outline>
</glyph>
<glyph name="ibreve" format="2">
  <advance width="221"/>
  <unicode hex="012D"/>
  <outline>
    <contour>
      <point x="42" y="0" type="line"/>
      <point x="125" y="523" type="line"/>
      <point x="178" y="523" type="line"/>
      <point x="95" y="0" type="line"/>
    </contour>
    <contour>
      <point x="167" y="616" type="curve" smooth="yes"/>
      <point x="97" y="616"/>
      <point x="50" y="665"/>
      <point x="50" y="737" type="curve"/>
      <point x="94" y="737" type="line"/>
      <point x="96" y="689"/>
      <point x="121" y="660"/>
      <point x="167" y="660" type="curve" smooth="yes"/>
      <point x="214" y="660"/>
      <point x="245" y="688"/>
      <point x="255" y="737" type="curve"/>
      <point x="297" y="737" type="line"/>
      <point x="289" y="664"/>
      <point x="232" y="616"/>
    </contour>
  </outline>
</glyph>
<glyph name="Iogonek" format="2">
  <advance width="251"/>
  <unicode hex="012E"/>
  <outline>
    <contour>
      <point x="61" y="-182" type="curve" smooth="yes"/>
      <point x="8" y="-182"/>
      <point x="-28" y="-156"/>
      <point x="-27" y="-107" type="curve" smooth="yes"/>
      <point x="-27" y="-57"/>
      <point x="20" y="-21"/>
      <point x="55" y="0" type="curve"/>
      <point x="168" y="715" type="line"/>
      <point x="224" y="715" type="line"/>
      <point x="112" y="3" type="line"/>
      <point x="77" y="-21"/>
      <point x="25" y="-57"/>
      <point x="25" y="-102" type="curve" smooth="yes"/>
      <point x="25" y="-126"/>
      <point x="39" y="-142"/>
      <point x="72" y="-142" type="curve" smooth="yes"/>
      <point x="88" y="-142"/>
      <point x="103" y="-139"/>
      <point x="119" y="-134" type="curve"/>
      <point x="112" y="-173" type="line"/>
      <point x="100" y="-177"/>
      <point x="83" y="-182"/>
    </contour>
  </outline>
</glyph>
<glyph name="iogonek" format="2">
  <advance width="221"/>
  <unicode hex="012F"/>
  <outline>
    <contour>
      <point x="43" y="2" type="curve"/>
      <point x="125" y="523" type="line"/>
      <point x="178" y="523" type="line"/>
      <point x="96" y="3" type="line"/>
      <point x="62" y="-21"/>
      <point x="12" y="-54"/>
      <point x="12" y="-102" type="curve" smooth="yes"/>
      <point x="12" y="-126"/>
      <point x="26" y="-142"/>
      <point x="58" y="-142" type="curve" smooth="yes"/>
      <point x="74" y="-142"/>
      <point x="89" y="-139"/>
      <point x="105" y="-134" type="curve"/>
      <point x="99" y="-173" type="line"/>
      <point x="86" y="-177"/>
      <point x="69" y="-182"/>
      <point x="47" y="-182" type="curve" smooth="yes"/>
      <point x="-4" y="-182"/>
      <point x="-40" y="-156"/>
      <point x="-40" y="-107" type="curve" smooth="yes"/>
      <point x="-40" y="-56"/>
      <point x="9" y="-19"/>
    </contour>
    <contour>
      <point x="173" y="635" type="curve" smooth="yes"/>
      <point x="152" y="635"/>
      <point x="136" y="652"/>
      <point x="136" y="672" type="curve" smooth="yes"/>
      <point x="136" y="693"/>
      <point x="153" y="710"/>
      <point x="174" y="710" type="curve" smooth="yes"/>
      <point x="194" y="710"/>
      <point x="211" y="694"/>
      <point x="211" y="673" type="curve" smooth="yes"/>
      <point x="211" y="653"/>
      <point x="194" y="635"/>
    </contour>
  </outline>
</glyph>
<glyph name="Idotaccent" format="2">
  <advance width="251"/>
  <unicode hex="0130"/>
  <outline>
    <contour>
      <point x="55" y="0" type="line"/>
      <point x="168" y="715" type="line"/>
      <point x="224" y="715" type="line"/>
      <point x="111" y="0" type="line"/>
    </contour>
    <contour>
      <point x="211" y="787" type="curve" smooth="yes"/>
      <point x="190" y="787"/>
      <point x="173" y="804"/>
      <point x="173" y="824" type="curve" smooth="yes"/>
      <point x="173" y="844"/>
      <point x="190" y="862"/>
      <point x="211" y="862" type="curve" smooth="yes"/>
      <point x="232" y="862"/>
      <point x="248" y="845"/>
      <point x="248" y="825" type="curve" smooth="yes"/>
      <point x="248" y="805"/>
      <point x="232" y="787"/>
    </contour>
  </outline>
</glyph>
<glyph name="dotlessi" format="2">
  <advance width="221"/>
  <unicode hex="0131"/>
  <outline>
    <contour>
      <point x="42" y="0" type="line"/>
      <point x="125" y="523" type="line"/>
      <point x="178" y="523" type="line"/>
      <point x="95" y="0" type="line"/>
    </contour>
  </outline>
</glyph>
<glyph name="IJ" format="2">
  <advance width="616"/>
  <unicode hex="0132"/>
  <outline>
    <contour>
      <point x="33" y="0" type="line"/>
      <point x="146" y="715" type="line"/>
      <point x="202" y="715" type="line"/>
      <point x="89" y="0" type="line"/>
    </contour>
    <contour>
      <point x="305" y="-7" type="curve" smooth="yes"/>
      <point x="243" y="-7"/>
      <point x="210" y="8"/>
      <point x="190" y="21" type="curve"/>
      <point x="197" y="67" type="line"/>
      <point x="224" y="52"/>
      <point x="256" y="39"/>
      <point x="304" y="39" type="curve" smooth="yes"/>
      <point x="379" y="39"/>
      <point x="426" y="78"/>
      <point x="441" y="172" type="curve" smooth="yes"/>
      <point x="526" y="715" type="line"/>
      <point x="582" y="715" type="line"/>
      <point x="495" y="167" type="line" smooth="yes"/>
      <point x="476" y="43"/>
      <point x="402" y="-7"/>
    </contour>
  </outline>
</glyph>
<glyph name="ij" format="2">
  <advance width="443"/>
  <unicode hex="0133"/>
  <outline>
    <contour>
      <point x="173" y="635" type="curve" smooth="yes"/>
      <point x="152" y="635"/>
      <point x="136" y="652"/>
      <point x="136" y="672" type="curve" smooth="yes"/>
      <point x="136" y="693"/>
      <point x="153" y="710"/>
      <point x="174" y="710" type="curve" smooth="yes"/>
      <point x="194" y="710"/>
      <point x="211" y="694"/>
      <point x="211" y="673" type="curve" smooth="yes"/>
      <point x="211" y="653"/>
      <point x="194" y="635"/>
    </contour>
    <contour>
      <point x="42" y="0" type="line"/>
      <point x="125" y="523" type="line"/>
      <point x="178" y="523" type="line"/>
      <point x="95" y="0" type="line"/>
    </contour>
    <contour>
      <point x="157" y="-187" type="curve"/>
      <point x="164" y="-143" type="line"/>
      <point x="223" y="-140"/>
      <point x="245" y="-112"/>
      <point x="254" y="-57" type="curve" smooth="yes"/>
      <point x="346" y="523" type="line"/>
      <point x="399" y="523" type="line"/>
      <point x="307" y="-60" type="line" smooth="yes"/>
      <point x="293" y="-146"/>
      <point x="250" y="-186"/>
    </contour>
    <contour>
      <point x="394" y="635" type="curve" smooth="yes"/>
      <point x="373" y="635"/>
      <point x="357" y="652"/>
      <point x="357" y="672" type="curve" smooth="yes"/>
      <point x="357" y="693"/>
      <point x="374" y="710"/>
      <point x="395" y="710" type="curve" smooth="yes"/>
      <point x="415" y="710"/>
      <point x="432" y="694"/>
      <point x="432" y="673" type="curve" smooth="yes"/>
      <point x="432" y="653"/>
      <point x="415" y="635"/>
    </contour>
  </outline>
</glyph>
<glyph name="Jcircumflex" format="2">
  <advance width="401"/>
  <unicode hex="0134"/>
  <outline>
    <contour>
      <point x="231" y="771" type="line"/>
      <point x="356" y="893" type="line"/>
      <point x="406" y="893" type="line"/>
      <point x="499" y="771" type="line"/>
      <point x="459" y="771" type="line"/>
      <point x="377" y="849" type="line"/>
      <point x="274" y="771" type="line"/>
    </contour>
    <contour>
      <point x="113" y="-7" type="curve" smooth="yes"/>
      <point x="51" y="-7"/>
      <point x="18" y="8"/>
      <point x="-2" y="21" type="curve"/>
      <point x="5" y="67" type="line"/>
      <point x="32" y="52"/>
      <point x="64" y="39"/>
      <point x="112" y="39" type="curve" smooth="yes"/>
      <point x="187" y="39"/>
      <point x="234" y="78"/>
      <point x="249" y="172" type="curve" smooth="yes"/>
      <point x="334" y="715" type="line"/>
      <point x="390" y="715" type="line"/>
      <point x="303" y="167" type="line" smooth="yes"/>
      <point x="284" y="43"/>
      <point x="210" y="-7"/>
    </contour>
  </outline>
</glyph>
<glyph name="jcircumflex" format="2">
  <advance width="221"/>
  <unicode hex="0135"/>
  <outline>
    <contour>
      <point x="-64" y="-187" type="curve"/>
      <point x="-57" y="-143" type="line"/>
      <point x="2" y="-140"/>
      <point x="24" y="-112"/>
      <point x="33" y="-57" type="curve" smooth="yes"/>
      <point x="125" y="523" type="line"/>
      <point x="178" y="523" type="line"/>
      <point x="86" y="-60" type="line" smooth="yes"/>
      <point x="72" y="-146"/>
      <point x="29" y="-186"/>
    </contour>
    <contour>
      <point x="24" y="605" type="line"/>
      <point x="152" y="740" type="line"/>
      <point x="201" y="740" type="line"/>
      <point x="292" y="605" type="line"/>
      <point x="252" y="605" type="line"/>
      <point x="171" y="696" type="line"/>
      <point x="67" y="605" type="line"/>
    </contour>
  </outline>
</glyph>
<glyph name="Kcommaaccent" format="2">
  <advance width="599"/>
  <unicode hex="0136"/>
  <outline>
    <contour>
      <point x="215" y="-204" type="line"/>
      <point x="182" y="-187" type="line"/>
      <point x="251" y="-41" type="line"/>
      <point x="302" y="-56" type="line"/>
    </contour>
    <contour>
      <point x="532" y="0" type="line"/>
      <point x="469" y="0" type="line"/>
      <point x="165" y="367" type="line"/>
      <point x="563" y="715" type="line"/>
      <point x="629" y="715" type="line"/>
      <point x="230" y="369" type="line"/>
    </contour>
    <contour>
      <point x="50" y="0" type="line"/>
      <point x="163" y="715" type="line"/>
      <point x="219" y="715" type="line"/>
      <point x="106" y="0" type="line"/>
    </contour>
  </outline>
</glyph>
<glyph name="kcommaaccent" format="2">
  <advance width="484"/>
  <unicode hex="0137"/>
  <outline>
    <contour>
      <point x="40" y="0" type="line"/>
      <point x="162" y="773" type="line"/>
      <point x="215" y="773" type="line"/>
      <point x="138" y="285" type="line"/>
      <point x="424" y="523" type="line"/>
      <point x="492" y="523" type="line"/>
      <point x="200" y="282" type="line"/>
      <point x="425" y="0" type="line"/>
      <point x="363" y="0" type="line"/>
      <point x="137" y="283" type="line"/>
      <point x="93" y="0" type="line"/>
    </contour>
    <contour>
      <point x="156" y="-204" type="line"/>
      <point x="123" y="-187" type="line"/>
      <point x="192" y="-41" type="line"/>
      <point x="243" y="-56" type="line"/>
    </contour>
  </outline>
</glyph>
<glyph name="lacute" format="2">
  <advance width="222"/>
  <unicode hex="013A"/>
  <outline>
    <contour>
      <point x="175" y="816" type="line"/>
      <point x="249" y="938" type="line"/>
      <point x="317" y="938" type="line"/>
      <point x="220" y="816" type="line"/>
    </contour>
    <contour>
      <point x="42" y="0" type="line"/>
      <point x="164" y="773" type="line"/>
      <point x="218" y="773" type="line"/>
      <point x="96" y="0" type="line"/>
    </contour>
  </outline>
</glyph>
<glyph name="lcommaaccent" format="2">
  <advance width="222"/>
  <unicode hex="013C"/>
  <outline>
    <contour>
      <point x="5" y="-204" type="line"/>
      <point x="-28" y="-187" type="line"/>
      <point x="41" y="-41" type="line"/>
      <point x="92" y="-56" type="line"/>
    </contour>
    <contour>
      <point x="42" y="0" type="line"/>
      <point x="164" y="773" type="line"/>
      <point x="218" y="773" type="line"/>
      <point x="96" y="0" type="line"/>
    </contour>
  </outline>
</glyph>
<glyph name="Lcaron" format="2">
  <advance width="530"/>
  <unicode hex="013D"/>
  <outline>
    <contour>
      <point x="376" y="558" type="line"/>
      <point x="421" y="715" type="line"/>
      <point x="481" y="715" type="line"/>
      <point x="416" y="558" type="line"/>
    </contour>
    <contour>
      <point x="50" y="0" type="line"/>
      <point x="163" y="715" type="line"/>
      <point x="219" y="715" type="line"/>
      <point x="113" y="46" type="line"/>
      <point x="461" y="46" type="line"/>
      <point x="453" y="0" type="line"/>
    </contour>
  </outline>
</glyph>
<glyph name="lcaron" format="2">
  <advance width="222"/>
  <unicode hex="013E"/>
  <outline>
    <contour>
      <point x="247" y="611" type="line"/>
      <point x="285" y="773" type="line"/>
      <point x="343" y="773" type="line"/>
      <point x="287" y="611" type="line"/>
    </contour>
    <contour>
      <point x="42" y="0" type="line"/>
      <point x="164" y="773" type="line"/>
      <point x="218" y="773" type="line"/>
      <point x="96" y="0" type="line"/>
    </contour>
  </outline>
</glyph>
<glyph name="Ldot" format="2">
  <advance width="530"/>
  <unicode hex="013F"/>
  <outline>
    <contour>
      <point x="50" y="0" type="line"/>
      <point x="163" y="715" type="line"/>
      <point x="219" y="715" type="line"/>
      <point x="113" y="46" type="line"/>
      <point x="461" y="46" type="line"/>
      <point x="453" y="0" type="line"/>
    </contour>
    <contour>
      <point x="443" y="333" type="curve" smooth="yes"/>
      <point x="419" y="333"/>
      <point x="400" y="352"/>
      <point x="400" y="376" type="curve" smooth="yes"/>
      <point x="400" y="399"/>
      <point x="419" y="418"/>
      <point x="442" y="418" type="curve" smooth="yes"/>
      <point x="466" y="418"/>
      <point x="485" y="399"/>
      <point x="485" y="376" type="curve" smooth="yes"/>
      <point x="485" y="352"/>
      <point x="466" y="333"/>
    </contour>
  </outline>
</glyph>
<glyph name="ldot" format="2">
  <advance width="279"/>
  <unicode hex="0140"/>
  <outline>
    <contour>
      <point x="42" y="0" type="line"/>
      <point x="164" y="773" type="line"/>
      <point x="218" y="773" type="line"/>
      <point x="96" y="0" type="line"/>
    </contour>
    <contour>
      <point x="266" y="330" type="curve" smooth="yes"/>
      <point x="242" y="330"/>
      <point x="223" y="349"/>
      <point x="223" y="373" type="curve" smooth="yes"/>
      <point x="223" y="396"/>
      <point x="242" y="415"/>
      <point x="265" y="415" type="curve" smooth="yes"/>
      <point x="289" y="415"/>
      <point x="308" y="396"/>
      <point x="308" y="373" type="curve" smooth="yes"/>
      <point x="308" y="349"/>
      <point x="289" y="330"/>
    </contour>
  </outline>
</glyph>
<glyph name="Lslash" format="2">
  <advance width="545"/>
  <unicode hex="0141"/>
  <outline>
    <contour>
      <point x="33" y="257" type="line"/>
      <point x="40" y="304" type="line"/>
      <point x="117" y="331" type="line"/>
      <point x="178" y="715" type="line"/>
      <point x="234" y="715" type="line"/>
      <point x="176" y="351" type="line"/>
      <point x="412" y="434" type="line"/>
      <point x="405" y="387" type="line"/>
      <point x="169" y="304" type="line"/>
      <point x="128" y="46" type="line"/>
      <point x="475" y="46" type="line"/>
      <point x="468" y="0" type="line"/>
      <point x="65" y="0" type="line"/>
      <point x="110" y="284" type="line"/>
    </contour>
  </outline>
</glyph>
<glyph name="lslash" format="2">
  <advance width="244"/>
  <unicode hex="0142"/>
  <outline>
    <contour>
      <point x="28" y="331" type="line"/>
      <point x="36" y="380" type="line"/>
      <point x="120" y="427" type="line"/>
      <point x="175" y="773" type="line"/>
      <point x="229" y="773" type="line"/>
      <point x="180" y="461" type="line"/>
      <point x="268" y="511" type="line"/>
      <point x="260" y="462" type="line"/>
      <point x="172" y="412" type="line"/>
      <point x="107" y="0" type="line"/>
      <point x="53" y="0" type="line"/>
      <point x="113" y="379" type="line"/>
    </contour>
  </outline>
</glyph>
<glyph name="Nacute" format="2">
  <advance width="713"/>
  <unicode hex="0143"/>
  <outline>
    <contour>
      <point x="419" y="771" type="line"/>
      <point x="493" y="893" type="line"/>
      <point x="561" y="893" type="line"/>
      <point x="464" y="771" type="line"/>
    </contour>
    <contour>
      <point x="50" y="0" type="line"/>
      <point x="163" y="715" type="line"/>
      <point x="237" y="715" type="line"/>
      <point x="537" y="77" type="line"/>
      <point x="639" y="715" type="line"/>
      <point x="692" y="715" type="line"/>
      <point x="579" y="0" type="line"/>
      <point x="515" y="0" type="line"/>
      <point x="207" y="653" type="line"/>
      <point x="104" y="0" type="line"/>
    </contour>
  </outline>
</glyph>
<glyph name="Ncommaaccent" format="2">
  <advance width="713"/>
  <unicode hex="0145"/>
  <outline>
    <contour>
      <point x="255" y="-204" type="line"/>
      <point x="222" y="-187" type="line"/>
      <point x="291" y="-41" type="line"/>
      <point x="342" y="-56" type="line"/>
    </contour>
    <contour>
      <point x="50" y="0" type="line"/>
      <point x="163" y="715" type="line"/>
      <point x="237" y="715" type="line"/>
      <point x="537" y="77" type="line"/>
      <point x="639" y="715" type="line"/>
      <point x="692" y="715" type="line"/>
      <point x="579" y="0" type="line"/>
      <point x="515" y="0" type="line"/>
      <point x="207" y="653" type="line"/>
      <point x="104" y="0" type="line"/>
    </contour>
  </outline>
</glyph>
<glyph name="Ncaron" format="2">
  <advance width="713"/>
  <unicode hex="0147"/>
  <outline>
    <contour>
      <point x="593" y="893" type="line"/>
      <point x="467" y="771" type="line"/>
      <point x="418" y="771" type="line"/>
      <point x="324" y="893" type="line"/>
      <point x="364" y="893" type="line"/>
      <point x="446" y="815" type="line"/>
      <point x="550" y="893" type="line"/>
    </contour>
    <contour>
      <point x="50" y="0" type="line"/>
      <point x="163" y="715" type="line"/>
      <point x="237" y="715" type="line"/>
      <point x="537" y="77" type="line"/>
      <point x="639" y="715" type="line"/>
      <point x="692" y="715" type="line"/>
      <point x="579" y="0" type="line"/>
      <point x="515" y="0" type="line"/>
      <point x="207" y="653" type="line"/>
      <point x="104" y="0" type="line"/>
    </contour>
  </outline>
</glyph>
<glyph name="napostrophe" format="2">
  <advance width="587"/>
  <unicode hex="0149"/>
  <outline>
    <contour>
      <point x="44" y="528" type="line"/>
      <point x="12" y="545" type="line"/>
      <point x="98" y="722" type="line"/>
      <point x="148" y="699" type="line"/>
    </contour>
    <contour>
      <point x="50" y="0" type="line"/>
      <point x="110" y="377" type="line" smooth="yes"/>
      <point x="121" y="447"/>
      <point x="123" y="486"/>
      <point x="124" y="523" type="curve"/>
      <point x="174" y="523" type="line"/>
      <point x="174" y="495"/>
      <point x="171" y="452"/>
      <point x="165" y="410" type="curve"/>
      <point x="201" y="476"/>
      <point x="268" y="531"/>
      <point x="360" y="531" type="curve" smooth="yes"/>
      <point x="472" y="531"/>
      <point x="541" y="464"/>
      <point x="517" y="312" type="curve" smooth="yes"/>
      <point x="467" y="0" type="line"/>
      <point x="414" y="0" type="line"/>
      <point x="465" y="322" type="line" smooth="yes"/>
      <point x="483" y="432"/>
      <point x="437" y="485"/>
      <point x="350" y="485" type="curve" smooth="yes"/>
      <point x="258" y="485"/>
      <point x="170" y="422"/>
      <point x="152" y="310" type="curve" smooth="yes"/>
      <point x="103" y="0" type="line"/>
    </contour>
  </outline>
</glyph>
